<svg width="95" height="123" viewBox="0 0 95 123" fill="none" xmlns="http://www.w3.org/2000/svg" class="IdentifySection-module--icon--ec6d0"><g clip-path="url(#clip0_3303_2316)"><path d="M8.36401 89.9604L47.864 110.06L85.864 89.9604V11.3604H8.36401V89.9604Z" fill="white"></path><path d="M86.664 11.6606L7.56396 91.3606L48.564 111.661L86.664 92.1606V11.6606Z" fill="#F2F3F2"></path><path d="M5.76392 37.5607V91.6607L7.16392 92.3607L46.6639 112.461L47.8639 113.061L49.0639 112.461L87.1639 92.3607L88.5639 91.6607V8.76074H5.76392V37.5607ZM8.36392 90.1607V11.3607H85.9639V90.1607L47.8639 110.261L8.36392 90.1607Z" fill="#DCDEDC"></path><path d="M47.164 12.6607C47.564 12.6607 47.964 12.6607 48.364 12.7607L47.164 15.0607C45.364 14.9607 43.764 16.3607 43.664 18.1607C43.564 19.9607 44.964 21.5607 46.764 21.6607H47.164C47.964 21.6607 48.764 21.3607 49.364 20.8607L50.664 23.0607C49.664 23.7607 48.464 24.1607 47.164 24.1607C43.964 24.2607 41.264 21.8607 41.164 18.6607C41.064 15.4607 43.464 12.7607 46.664 12.6607H47.164ZM51.264 17.5607L52.764 20.0607L51.264 22.4607L49.864 20.0607H46.964L48.464 17.5607H51.264ZM48.864 16.6607C48.864 16.2607 48.964 15.8607 49.164 15.5607C49.364 15.2607 49.764 14.9607 50.064 14.7607L50.264 14.6607C50.664 14.4607 50.764 14.3607 50.764 14.1607C50.764 13.9607 50.464 13.7607 50.264 13.7607C49.864 13.7607 49.564 13.9607 49.364 14.3607L48.864 13.8607C48.964 13.6607 49.164 13.4607 49.364 13.2607C49.664 13.0607 49.964 13.0607 50.264 13.0607C50.564 13.0607 50.964 13.1607 51.164 13.3607C51.364 13.5607 51.564 13.8607 51.564 14.1607C51.564 14.6607 51.264 15.0607 50.664 15.2607L50.364 15.4607C50.064 15.6607 49.864 15.7607 49.764 16.0607H51.564V16.7607L48.864 16.6607ZM47.164 29.1607L56.664 23.7607V8.76074H37.564V23.6607L47.164 29.1607Z" fill="#FF492C"></path><path d="M90.4638 64.5605H3.86382L0.663818 71.5605L3.86382 78.5605H90.4638L93.5638 71.5605L90.4638 64.5605Z" fill="#2690CE"></path><path d="M31.864 60.1804C31.064 60.1804 30.3673 60.0537 29.774 59.8004C29.1673 59.5404 28.704 59.1737 28.384 58.7004C28.0573 58.227 27.894 57.677 27.894 57.0504V56.7204C27.894 56.667 27.9107 56.6237 27.944 56.5904C27.984 56.557 28.0273 56.5404 28.074 56.5404H29.784C29.8307 56.5404 29.874 56.557 29.914 56.5904C29.9473 56.6237 29.964 56.667 29.964 56.7204V56.9404C29.964 57.3404 30.1507 57.677 30.524 57.9504C30.8907 58.2304 31.3907 58.3704 32.024 58.3704C32.5507 58.3704 32.944 58.257 33.204 58.0304C33.464 57.8037 33.594 57.527 33.594 57.2004C33.594 56.9537 33.514 56.7504 33.354 56.5904C33.194 56.4237 32.9773 56.277 32.704 56.1504C32.424 56.0304 31.9873 55.8604 31.394 55.6404C30.7207 55.407 30.1507 55.1704 29.684 54.9304C29.224 54.6904 28.834 54.3637 28.514 53.9504C28.2007 53.537 28.044 53.0237 28.044 52.4104C28.044 51.8104 28.2007 51.287 28.514 50.8404C28.8207 50.387 29.2473 50.0404 29.794 49.8004C30.3473 49.5604 30.984 49.4404 31.704 49.4404C32.464 49.4404 33.1407 49.577 33.734 49.8504C34.3273 50.117 34.794 50.4937 35.134 50.9804C35.4673 51.4604 35.634 52.0237 35.634 52.6704V52.8904C35.634 52.9437 35.6173 52.987 35.584 53.0204C35.544 53.0537 35.5007 53.0704 35.454 53.0704H33.734C33.6807 53.0704 33.6373 53.0537 33.604 53.0204C33.564 52.987 33.544 52.9437 33.544 52.8904V52.7704C33.544 52.3504 33.374 51.9937 33.034 51.7004C32.6873 51.407 32.214 51.2604 31.614 51.2604C31.1407 51.2604 30.774 51.3604 30.514 51.5604C30.2473 51.7537 30.114 52.027 30.114 52.3804C30.114 52.6337 30.1907 52.8437 30.344 53.0104C30.504 53.1837 30.734 53.337 31.034 53.4704C31.3407 53.6037 31.814 53.787 32.454 54.0204C33.1673 54.2804 33.724 54.5104 34.124 54.7104C34.5307 54.9104 34.8973 55.207 35.224 55.6004C35.5507 55.9937 35.714 56.507 35.714 57.1404C35.714 58.0804 35.3673 58.8204 34.674 59.3604C33.9873 59.907 33.0507 60.1804 31.864 60.1804ZM43.884 55.4104C43.944 55.7903 43.964 56.2137 43.944 56.6804C43.9307 56.807 43.864 56.8704 43.744 56.8704H39.114C39.054 56.8704 39.034 56.8937 39.054 56.9404C39.0807 57.1404 39.134 57.3404 39.214 57.5404C39.474 58.1004 40.004 58.3804 40.804 58.3804C41.444 58.3737 41.9507 58.1137 42.324 57.6004C42.364 57.5404 42.4073 57.5104 42.454 57.5104C42.4873 57.5104 42.524 57.5303 42.564 57.5704L43.644 58.6304C43.6907 58.6837 43.714 58.7304 43.714 58.7704C43.714 58.7904 43.694 58.8304 43.654 58.8904C43.3273 59.3037 42.904 59.6204 42.384 59.8404C41.864 60.067 41.294 60.1804 40.674 60.1804C39.814 60.1804 39.0873 59.987 38.494 59.6004C37.894 59.207 37.464 58.6604 37.204 57.9604C36.9973 57.4604 36.894 56.807 36.894 56.0004C36.894 55.447 36.9673 54.9604 37.114 54.5404C37.3473 53.8337 37.7507 53.2704 38.324 52.8504C38.8973 52.4304 39.5807 52.2204 40.374 52.2204C41.374 52.2204 42.1773 52.5104 42.784 53.0904C43.3907 53.6704 43.7573 54.4437 43.884 55.4104ZM40.384 54.0504C39.7573 54.0504 39.344 54.3437 39.144 54.9304C39.104 55.0637 39.0673 55.2237 39.034 55.4104C39.034 55.457 39.0606 55.4804 39.114 55.4804H41.704C41.764 55.4804 41.784 55.457 41.764 55.4104C41.7173 55.1237 41.694 54.9837 41.694 54.9904C41.6007 54.6904 41.444 54.457 41.224 54.2904C40.9973 54.1304 40.7173 54.0504 40.384 54.0504ZM49.494 53.8704C49.494 53.917 49.4773 53.957 49.444 53.9904C49.404 54.0304 49.3607 54.0504 49.314 54.0504H47.874C47.8273 54.0504 47.804 54.0737 47.804 54.1204V57.3004C47.804 57.627 47.8707 57.8737 48.004 58.0404C48.1373 58.2004 48.354 58.2804 48.654 58.2804H49.144C49.1973 58.2804 49.2407 58.297 49.274 58.3304C49.3073 58.3637 49.324 58.407 49.324 58.4604V59.8804C49.324 59.9937 49.264 60.057 49.144 60.0704C48.724 60.0904 48.424 60.1004 48.244 60.1004C47.4173 60.1004 46.8007 59.9637 46.394 59.6904C45.9807 59.417 45.7673 58.9004 45.754 58.1404V54.1204C45.754 54.0737 45.7306 54.0504 45.684 54.0504H44.824C44.7773 54.0504 44.7373 54.0304 44.704 53.9904C44.664 53.957 44.644 53.917 44.644 53.8704V52.5304C44.644 52.4837 44.664 52.4404 44.704 52.4004C44.7373 52.367 44.7773 52.3504 44.824 52.3504H45.684C45.7306 52.3504 45.754 52.3237 45.754 52.2704V50.4904C45.754 50.4437 45.774 50.4004 45.814 50.3604C45.8473 50.327 45.8873 50.3104 45.934 50.3104H47.624C47.6707 50.3104 47.7107 50.327 47.744 50.3604C47.784 50.4004 47.804 50.4437 47.804 50.4904V52.2704C47.804 52.3237 47.8273 52.3504 47.874 52.3504H49.314C49.3607 52.3504 49.404 52.367 49.444 52.4004C49.4773 52.4404 49.494 52.4837 49.494 52.5304V53.8704ZM55.264 52.5304C55.264 52.4837 55.284 52.4404 55.324 52.4004C55.3573 52.367 55.3973 52.3504 55.444 52.3504H57.204C57.2506 52.3504 57.294 52.367 57.334 52.4004C57.3673 52.4404 57.384 52.4837 57.384 52.5304V59.8804C57.384 59.9337 57.3673 59.977 57.334 60.0104C57.294 60.0437 57.2506 60.0604 57.204 60.0604H55.444C55.3973 60.0604 55.3573 60.0437 55.324 60.0104C55.284 59.977 55.264 59.9337 55.264 59.8804V59.3704C55.264 59.3437 55.254 59.327 55.234 59.3204C55.214 59.3137 55.194 59.327 55.174 59.3604C54.774 59.8937 54.154 60.1604 53.314 60.1604C52.554 60.1604 51.9307 59.9337 51.444 59.4804C50.9507 59.0204 50.704 58.3737 50.704 57.5404V52.5304C50.704 52.4837 50.724 52.4404 50.764 52.4004C50.7973 52.367 50.8373 52.3504 50.884 52.3504H52.624C52.6773 52.3504 52.7207 52.367 52.754 52.4004C52.7873 52.4404 52.804 52.4837 52.804 52.5304V57.0204C52.804 57.4204 52.914 57.7437 53.134 57.9904C53.3473 58.2437 53.644 58.3704 54.024 58.3704C54.364 58.3704 54.644 58.267 54.864 58.0604C55.084 57.8537 55.2173 57.587 55.264 57.2604V52.5304ZM65.824 54.4204C66.004 54.927 66.094 55.527 66.094 56.2204C66.094 56.9137 66.0007 57.5404 65.814 58.1004C65.5807 58.7404 65.2173 59.247 64.724 59.6204C64.2307 59.9937 63.6173 60.1804 62.884 60.1804C62.164 60.1804 61.604 59.9304 61.204 59.4304C61.184 59.4037 61.164 59.3937 61.144 59.4004C61.124 59.407 61.114 59.427 61.114 59.4604V62.6704C61.114 62.7237 61.0973 62.767 61.064 62.8004C61.0307 62.8337 60.9873 62.8504 60.934 62.8504H59.184C59.1306 62.8504 59.0873 62.8337 59.054 62.8004C59.0207 62.767 59.004 62.7237 59.004 62.6704V52.5304C59.004 52.4837 59.0207 52.4404 59.054 52.4004C59.0873 52.367 59.1306 52.3504 59.184 52.3504H60.934C60.9873 52.3504 61.0307 52.367 61.064 52.4004C61.0973 52.4404 61.114 52.4837 61.114 52.5304V53.0204C61.114 53.0537 61.124 53.0737 61.144 53.0804C61.164 53.087 61.184 53.0804 61.204 53.0604C61.624 52.507 62.204 52.2304 62.944 52.2304C63.6373 52.2304 64.2373 52.4237 64.744 52.8104C65.244 53.197 65.604 53.7337 65.824 54.4204ZM63.534 57.7804C63.7807 57.3937 63.904 56.8637 63.904 56.1904C63.904 55.5637 63.8007 55.0637 63.594 54.6904C63.3607 54.2637 62.9907 54.0504 62.484 54.0504C62.024 54.0504 61.6773 54.2637 61.444 54.6904C61.2373 55.0504 61.134 55.557 61.134 56.2104C61.134 56.877 61.244 57.397 61.464 57.7704C61.6907 58.1704 62.0307 58.3704 62.484 58.3704C62.9307 58.3704 63.2807 58.1737 63.534 57.7804ZM30.134 36.1904C30.134 36.2437 30.114 36.287 30.074 36.3204C30.0407 36.3537 30.0007 36.3704 29.954 36.3704H25.024C24.9773 36.3704 24.954 36.397 24.954 36.4504V38.7704C24.954 38.8237 24.9773 38.8504 25.024 38.8504H28.254C28.3007 38.8504 28.344 38.867 28.384 38.9004C28.4173 38.9404 28.434 38.9837 28.434 39.0304V40.4804C28.434 40.5337 28.4173 40.577 28.384 40.6104C28.344 40.6504 28.3007 40.6704 28.254 40.6704H25.024C24.9773 40.6704 24.954 40.6937 24.954 40.7404V43.1704C24.954 43.2237 24.9773 43.2504 25.024 43.2504H29.954C30.0007 43.2504 30.0407 43.267 30.074 43.3004C30.114 43.3337 30.134 43.3737 30.134 43.4204V44.8804C30.134 44.9337 30.114 44.977 30.074 45.0104C30.0407 45.0437 30.0007 45.0604 29.954 45.0604H23.014C22.9673 45.0604 22.9273 45.0437 22.894 45.0104C22.854 44.977 22.834 44.9337 22.834 44.8804V34.7404C22.834 34.6937 22.854 34.6504 22.894 34.6104C22.9273 34.577 22.9673 34.5604 23.014 34.5604H29.954C30.0007 34.5604 30.0407 34.577 30.074 34.6104C30.114 34.6504 30.134 34.6937 30.134 34.7404V36.1904ZM34.544 37.2304C35.1906 37.2304 35.7707 37.3437 36.284 37.5704C36.7907 37.797 37.1873 38.1037 37.474 38.4904C37.754 38.8837 37.894 39.3204 37.894 39.8004V44.8804C37.894 44.9337 37.8773 44.977 37.844 45.0104C37.8107 45.0437 37.7673 45.0604 37.714 45.0604H35.964C35.9107 45.0604 35.8673 45.0437 35.834 45.0104C35.8007 44.977 35.784 44.9337 35.784 44.8804V44.3904C35.784 44.357 35.774 44.337 35.754 44.3304C35.734 44.317 35.714 44.327 35.694 44.3604C35.274 44.907 34.5973 45.1804 33.664 45.1804C32.884 45.1804 32.2573 44.9904 31.784 44.6104C31.2973 44.2304 31.054 43.6704 31.054 42.9304C31.054 42.1637 31.3273 41.567 31.874 41.1404C32.4073 40.7137 33.174 40.5004 34.174 40.5004H35.714C35.7607 40.5004 35.784 40.477 35.784 40.4304V40.1004C35.784 39.767 35.684 39.507 35.484 39.3204C35.284 39.1404 34.984 39.0504 34.584 39.0504C34.2773 39.0504 34.0207 39.1037 33.814 39.2104C33.6073 39.3237 33.474 39.4804 33.414 39.6804C33.3873 39.787 33.3207 39.837 33.214 39.8304L31.404 39.5904C31.284 39.5704 31.2273 39.5237 31.234 39.4504C31.2807 39.0304 31.4507 38.6504 31.744 38.3104C32.0373 37.9704 32.4273 37.707 32.914 37.5204C33.394 37.327 33.9373 37.2304 34.544 37.2304ZM34.234 43.6104C34.6673 43.6104 35.034 43.4937 35.334 43.2604C35.634 43.027 35.784 42.7304 35.784 42.3704V41.8304C35.784 41.7837 35.7607 41.7604 35.714 41.7604H34.634C34.1807 41.7604 33.8273 41.847 33.574 42.0204C33.3207 42.187 33.194 42.427 33.194 42.7404C33.194 43.007 33.2873 43.217 33.474 43.3704C33.6607 43.5304 33.914 43.6104 34.234 43.6104ZM42.464 45.1604C41.7907 45.1604 41.204 45.067 40.704 44.8804C40.204 44.6937 39.8173 44.4304 39.544 44.0904C39.264 43.7504 39.124 43.3637 39.124 42.9304V42.7804C39.124 42.7337 39.144 42.6904 39.184 42.6504C39.2173 42.617 39.2573 42.6004 39.304 42.6004H40.974C41.0273 42.6004 41.0707 42.617 41.104 42.6504C41.1373 42.6904 41.154 42.7337 41.154 42.7804V42.7904C41.154 43.017 41.2773 43.207 41.524 43.3604C41.764 43.5137 42.0707 43.5904 42.444 43.5904C42.784 43.5904 43.0573 43.5237 43.264 43.3904C43.4773 43.2504 43.584 43.0837 43.584 42.8904C43.584 42.7104 43.494 42.5737 43.314 42.4804C43.134 42.3937 42.8373 42.3004 42.424 42.2004C41.9573 42.0804 41.5873 41.9637 41.314 41.8504C40.674 41.6304 40.164 41.3604 39.784 41.0404C39.404 40.7204 39.214 40.2604 39.214 39.6604C39.214 38.9204 39.504 38.3337 40.084 37.9004C40.6573 37.467 41.4207 37.2504 42.374 37.2504C43.014 37.2504 43.574 37.3504 44.054 37.5504C44.5273 37.757 44.8973 38.047 45.164 38.4204C45.4307 38.787 45.564 39.207 45.564 39.6804C45.564 39.727 45.5473 39.767 45.514 39.8004C45.4807 39.8337 45.4373 39.8504 45.384 39.8504H43.784C43.7307 39.8504 43.6873 39.8337 43.654 39.8004C43.6207 39.767 43.604 39.727 43.604 39.6804C43.604 39.4604 43.4907 39.2737 43.264 39.1204C43.0373 38.967 42.7407 38.8904 42.374 38.8904C42.0407 38.8904 41.7673 38.9537 41.554 39.0804C41.3473 39.2004 41.244 39.3637 41.244 39.5704C41.244 39.7704 41.3473 39.9204 41.554 40.0204C41.754 40.1204 42.0973 40.227 42.584 40.3404C42.6907 40.367 42.814 40.397 42.954 40.4304C43.094 40.4637 43.244 40.507 43.404 40.5604C44.1173 40.7737 44.6773 41.0437 45.084 41.3704C45.4907 41.7037 45.694 42.1837 45.694 42.8104C45.694 43.5504 45.404 44.127 44.824 44.5404C44.2373 44.9537 43.4507 45.1604 42.464 45.1604ZM48.054 36.4804C47.714 36.4804 47.4307 36.367 47.204 36.1404C46.984 35.9204 46.874 35.6404 46.874 35.3004C46.874 34.947 46.984 34.6604 47.204 34.4404C47.424 34.2204 47.7073 34.1104 48.054 34.1104C48.4073 34.1104 48.6907 34.2204 48.904 34.4404C49.1307 34.6604 49.244 34.947 49.244 35.3004C49.244 35.6404 49.1307 35.9204 48.904 36.1404C48.6773 36.367 48.394 36.4804 48.054 36.4804ZM47.154 45.0604C47.1073 45.0604 47.064 45.0437 47.024 45.0104C46.9907 44.977 46.974 44.9337 46.974 44.8804V37.5204C46.974 37.467 46.9907 37.4237 47.024 37.3904C47.064 37.357 47.1073 37.3404 47.154 37.3404H48.904C48.9573 37.3404 49.0007 37.357 49.034 37.3904C49.0673 37.4237 49.084 37.467 49.084 37.5204V44.8804C49.084 44.9337 49.0673 44.977 49.034 45.0104C49.0007 45.0437 48.9573 45.0604 48.904 45.0604H47.154ZM57.564 40.4104C57.624 40.7904 57.644 41.2137 57.624 41.6804C57.6173 41.807 57.554 41.8704 57.434 41.8704H52.794C52.734 41.8704 52.714 41.8937 52.734 41.9404C52.7673 42.1404 52.824 42.3404 52.904 42.5404C53.164 43.1004 53.6907 43.3804 54.484 43.3804C55.124 43.3737 55.6307 43.1137 56.004 42.6004C56.044 42.5404 56.0907 42.5104 56.144 42.5104C56.1707 42.5104 56.204 42.5304 56.244 42.5704L57.324 43.6304C57.3773 43.6837 57.404 43.7304 57.404 43.7704C57.404 43.7904 57.3806 43.8304 57.334 43.8904C57.0073 44.3037 56.584 44.6204 56.064 44.8404C55.544 45.067 54.974 45.1804 54.354 45.1804C53.494 45.1804 52.7673 44.987 52.174 44.6004C51.5807 44.207 51.1507 43.6604 50.884 42.9604C50.6773 42.4604 50.574 41.807 50.574 41.0004C50.574 40.447 50.6507 39.9604 50.804 39.5404C51.0307 38.8337 51.4307 38.2704 52.004 37.8504C52.584 37.4304 53.2673 37.2204 54.054 37.2204C55.054 37.2204 55.8573 37.5104 56.464 38.0904C57.0707 38.6704 57.4373 39.4437 57.564 40.4104ZM54.064 39.0504C53.4373 39.0504 53.024 39.3437 52.824 39.9304C52.784 40.0637 52.7507 40.2237 52.724 40.4104C52.724 40.457 52.7473 40.4804 52.794 40.4804H55.394C55.4473 40.4804 55.464 40.457 55.444 40.4104C55.3973 40.1237 55.374 39.9837 55.374 39.9904C55.2807 39.6904 55.124 39.457 54.904 39.2904C54.6773 39.1304 54.3973 39.0504 54.064 39.0504ZM61.904 45.1604C61.2307 45.1604 60.644 45.067 60.144 44.8804C59.644 44.6937 59.2573 44.4304 58.984 44.0904C58.7107 43.7504 58.574 43.3637 58.574 42.9304V42.7804C58.574 42.7337 58.5907 42.6904 58.624 42.6504C58.6573 42.617 58.7007 42.6004 58.754 42.6004H60.414C60.4673 42.6004 60.5107 42.617 60.544 42.6504C60.5773 42.6904 60.594 42.7337 60.594 42.7804V42.7904C60.594 43.017 60.7173 43.207 60.964 43.3604C61.2107 43.5137 61.5173 43.5904 61.884 43.5904C62.224 43.5904 62.5007 43.5237 62.714 43.3904C62.9207 43.2504 63.024 43.0837 63.024 42.8904C63.024 42.7104 62.934 42.5737 62.754 42.4804C62.574 42.3937 62.2807 42.3004 61.874 42.2004C61.4007 42.0804 61.0307 41.9637 60.764 41.8504C60.124 41.6304 59.614 41.3604 59.234 41.0404C58.854 40.7204 58.664 40.2604 58.664 39.6604C58.664 38.9204 58.9506 38.3337 59.524 37.9004C60.0973 37.467 60.8606 37.2504 61.814 37.2504C62.454 37.2504 63.014 37.3504 63.494 37.5504C63.974 37.757 64.344 38.047 64.604 38.4204C64.8706 38.787 65.004 39.207 65.004 39.6804C65.004 39.727 64.9873 39.767 64.954 39.8004C64.9207 39.8337 64.8773 39.8504 64.824 39.8504H63.224C63.1707 39.8504 63.1273 39.8337 63.094 39.8004C63.0607 39.767 63.044 39.727 63.044 39.6804C63.044 39.4604 62.9306 39.2737 62.704 39.1204C62.4773 38.967 62.1806 38.8904 61.814 38.8904C61.4807 38.8904 61.2107 38.9537 61.004 39.0804C60.7907 39.2004 60.684 39.3637 60.684 39.5704C60.684 39.7704 60.7873 39.9204 60.994 40.0204C61.2006 40.1204 61.544 40.227 62.024 40.3404C62.1306 40.367 62.254 40.397 62.394 40.4304C62.534 40.4637 62.684 40.507 62.844 40.5604C63.5573 40.7737 64.1173 41.0437 64.524 41.3704C64.9373 41.7037 65.144 42.1837 65.144 42.8104C65.144 43.5504 64.8507 44.127 64.264 44.5404C63.6773 44.9537 62.8907 45.1604 61.904 45.1604ZM70.764 38.8704C70.764 38.917 70.7473 38.957 70.714 38.9904C70.6806 39.0304 70.6373 39.0504 70.584 39.0504H69.144C69.0973 39.0504 69.074 39.0737 69.074 39.1204V42.3004C69.074 42.627 69.1407 42.8737 69.274 43.0404C69.4073 43.2004 69.624 43.2804 69.924 43.2804H70.424C70.4707 43.2804 70.5107 43.297 70.544 43.3304C70.584 43.3637 70.604 43.407 70.604 43.4604V44.8804C70.604 44.9937 70.544 45.057 70.424 45.0704C70.004 45.0904 69.704 45.1004 69.524 45.1004C68.6907 45.1004 68.0707 44.9637 67.664 44.6904C67.2507 44.417 67.0406 43.9004 67.034 43.1404V39.1204C67.034 39.0737 67.0073 39.0504 66.954 39.0504H66.104C66.0506 39.0504 66.0073 39.0304 65.974 38.9904C65.9407 38.957 65.924 38.917 65.924 38.8704V37.5304C65.924 37.4837 65.9407 37.4404 65.974 37.4004C66.0073 37.367 66.0506 37.3504 66.104 37.3504H66.954C67.0073 37.3504 67.034 37.3237 67.034 37.2704V35.4904C67.034 35.4437 67.0507 35.4004 67.084 35.3604C67.1173 35.327 67.1606 35.3104 67.214 35.3104H68.894C68.9406 35.3104 68.9807 35.327 69.014 35.3604C69.054 35.4004 69.074 35.4437 69.074 35.4904V37.2704C69.074 37.3237 69.0973 37.3504 69.144 37.3504H70.584C70.6373 37.3504 70.6806 37.367 70.714 37.4004C70.7473 37.4404 70.764 37.4837 70.764 37.5304V38.8704Z" fill="#252530"></path><path d="M17.164 75.5405C16.644 75.5405 16.1907 75.4571 15.804 75.2905C15.4173 75.1238 15.1173 74.8905 14.904 74.5905C14.6973 74.2905 14.594 73.9371 14.594 73.5305V73.2805C14.594 73.2471 14.6073 73.2171 14.634 73.1905C14.654 73.1705 14.6807 73.1605 14.714 73.1605H15.604C15.6373 73.1605 15.6673 73.1705 15.694 73.1905C15.714 73.2171 15.724 73.2471 15.724 73.2805V73.4705C15.724 73.7771 15.8607 74.0305 16.134 74.2305C16.4073 74.4371 16.7807 74.5405 17.254 74.5405C17.6607 74.5405 17.9673 74.4538 18.174 74.2805C18.3807 74.1071 18.484 73.8838 18.484 73.6105C18.484 73.4238 18.4273 73.2638 18.314 73.1305C18.2007 73.0038 18.0407 72.8871 17.834 72.7805C17.6207 72.6738 17.304 72.5405 16.884 72.3805C16.4107 72.2071 16.0273 72.0438 15.734 71.8905C15.4407 71.7371 15.1973 71.5271 15.004 71.2605C14.804 71.0005 14.704 70.6738 14.704 70.2805C14.704 69.6938 14.9173 69.2305 15.344 68.8905C15.7707 68.5505 16.3407 68.3805 17.054 68.3805C17.554 68.3805 17.9973 68.4671 18.384 68.6405C18.764 68.8138 19.0607 69.0571 19.274 69.3705C19.4873 69.6771 19.594 70.0338 19.594 70.4405V70.6105C19.594 70.6438 19.5807 70.6738 19.554 70.7005C19.534 70.7205 19.5073 70.7305 19.474 70.7305H18.574C18.5407 70.7305 18.514 70.7205 18.494 70.7005C18.4673 70.6738 18.454 70.6438 18.454 70.6105V70.5005C18.454 70.1871 18.3273 69.9238 18.074 69.7105C17.814 69.4905 17.4573 69.3805 17.004 69.3805C16.6373 69.3805 16.354 69.4571 16.154 69.6105C15.9473 69.7638 15.844 69.9805 15.844 70.2605C15.844 70.4605 15.8973 70.6238 16.004 70.7505C16.1107 70.8771 16.2707 70.9905 16.484 71.0905C16.6973 71.1971 17.0273 71.3305 17.474 71.4905C17.9473 71.6705 18.3273 71.8338 18.614 71.9805C18.894 72.1271 19.1373 72.3305 19.344 72.5905C19.544 72.8571 19.644 73.1871 19.644 73.5805C19.644 74.1805 19.4207 74.6571 18.974 75.0105C18.534 75.3638 17.9307 75.5405 17.164 75.5405ZM26.174 70.2705C26.6873 70.2705 27.0907 70.4238 27.384 70.7305C27.6707 71.0438 27.814 71.4771 27.814 72.0305V75.3405C27.814 75.3738 27.804 75.4005 27.784 75.4205C27.7573 75.4471 27.7273 75.4605 27.694 75.4605H26.784C26.7507 75.4605 26.724 75.4471 26.704 75.4205C26.6773 75.4005 26.664 75.3738 26.664 75.3405V72.2705C26.664 71.9638 26.584 71.7205 26.424 71.5405C26.2573 71.3605 26.0373 71.2705 25.764 71.2705C25.4907 71.2705 25.2673 71.3605 25.094 71.5405C24.9207 71.7205 24.834 71.9605 24.834 72.2605V75.3405C24.834 75.3738 24.824 75.4005 24.804 75.4205C24.7773 75.4471 24.7473 75.4605 24.714 75.4605H23.804C23.7707 75.4605 23.7407 75.4471 23.714 75.4205C23.694 75.4005 23.684 75.3738 23.684 75.3405V72.2705C23.684 71.9638 23.6007 71.7205 23.434 71.5405C23.2673 71.3605 23.0473 71.2705 22.774 71.2705C22.5207 71.2705 22.3107 71.3438 22.144 71.4905C21.984 71.6371 21.8907 71.8371 21.864 72.0905V75.3405C21.864 75.3738 21.854 75.4005 21.834 75.4205C21.8073 75.4471 21.7773 75.4605 21.744 75.4605H20.824C20.7907 75.4605 20.764 75.4471 20.744 75.4205C20.7173 75.4005 20.704 75.3738 20.704 75.3405V70.4705C20.704 70.4371 20.7173 70.4071 20.744 70.3805C20.764 70.3605 20.7907 70.3505 20.824 70.3505H21.744C21.7773 70.3505 21.8073 70.3605 21.834 70.3805C21.854 70.4071 21.864 70.4371 21.864 70.4705V70.8005C21.864 70.8205 21.8707 70.8338 21.884 70.8405C21.8973 70.8471 21.9107 70.8405 21.924 70.8205C22.0707 70.6338 22.2507 70.4971 22.464 70.4105C22.684 70.3171 22.9273 70.2705 23.194 70.2705C23.5207 70.2705 23.8073 70.3371 24.054 70.4705C24.3007 70.6038 24.4907 70.7971 24.624 71.0505C24.644 71.0771 24.6673 71.0771 24.694 71.0505C24.8407 70.7838 25.044 70.5871 25.304 70.4605C25.564 70.3338 25.854 70.2705 26.174 70.2705ZM30.944 70.2705C31.364 70.2705 31.734 70.3438 32.054 70.4905C32.374 70.6371 32.6207 70.8371 32.794 71.0905C32.9673 71.3505 33.054 71.6438 33.054 71.9705V75.3405C33.054 75.3738 33.044 75.4005 33.024 75.4205C32.9973 75.4471 32.9673 75.4605 32.934 75.4605H32.014C31.9807 75.4605 31.954 75.4471 31.934 75.4205C31.9073 75.4005 31.894 75.3738 31.894 75.3405V75.0205C31.894 75.0005 31.8873 74.9871 31.874 74.9805C31.8607 74.9805 31.8473 74.9871 31.834 75.0005C31.5073 75.3605 31.034 75.5405 30.414 75.5405C29.914 75.5405 29.504 75.4138 29.184 75.1605C28.8573 74.9071 28.694 74.5305 28.694 74.0305C28.694 73.5105 28.8773 73.1038 29.244 72.8105C29.604 72.5238 30.114 72.3805 30.774 72.3805H31.844C31.8773 72.3805 31.894 72.3638 31.894 72.3305V72.0905C31.894 71.8305 31.8173 71.6271 31.664 71.4805C31.5107 71.3405 31.2807 71.2705 30.974 71.2705C30.7207 71.2705 30.5173 71.3171 30.364 71.4105C30.204 71.4971 30.104 71.6205 30.064 71.7805C30.044 71.8605 29.9973 71.8938 29.924 71.8805L28.954 71.7605C28.9207 71.7538 28.894 71.7438 28.874 71.7305C28.8473 71.7105 28.8373 71.6871 28.844 71.6605C28.8973 71.2538 29.1173 70.9205 29.504 70.6605C29.884 70.4005 30.364 70.2705 30.944 70.2705ZM30.704 74.6205C31.0307 74.6205 31.3107 74.5338 31.544 74.3605C31.7773 74.1871 31.894 73.9671 31.894 73.7005V73.2305C31.894 73.1971 31.8773 73.1805 31.844 73.1805H31.004C30.6507 73.1805 30.374 73.2471 30.174 73.3805C29.9673 73.5138 29.864 73.7038 29.864 73.9505C29.864 74.1638 29.944 74.3271 30.104 74.4405C30.2573 74.5605 30.4573 74.6205 30.704 74.6205ZM34.334 75.4605C34.3007 75.4605 34.274 75.4471 34.254 75.4205C34.2273 75.4005 34.214 75.3738 34.214 75.3405V68.5805C34.214 68.5471 34.2273 68.5205 34.254 68.5005C34.274 68.4738 34.3007 68.4605 34.334 68.4605H35.254C35.2873 68.4605 35.3173 68.4738 35.344 68.5005C35.364 68.5205 35.374 68.5471 35.374 68.5805V75.3405C35.374 75.3738 35.364 75.4005 35.344 75.4205C35.3173 75.4471 35.2873 75.4605 35.254 75.4605H34.334ZM36.724 75.4605C36.6907 75.4605 36.664 75.4471 36.644 75.4205C36.6173 75.4005 36.604 75.3738 36.604 75.3405V68.5805C36.604 68.5471 36.6173 68.5205 36.644 68.5005C36.664 68.4738 36.6907 68.4605 36.724 68.4605H37.644C37.6773 68.4605 37.7073 68.4738 37.734 68.5005C37.754 68.5205 37.764 68.5471 37.764 68.5805V75.3405C37.764 75.3738 37.754 75.4005 37.734 75.4205C37.7073 75.4471 37.6773 75.4605 37.644 75.4605H36.724ZM45.014 71.8105C44.974 71.8305 44.974 71.8505 45.014 71.8705C45.694 72.1905 46.034 72.7405 46.034 73.5205C46.034 74.1538 45.824 74.6371 45.404 74.9705C44.9773 75.2971 44.424 75.4605 43.744 75.4605H41.224C41.1907 75.4605 41.164 75.4471 41.144 75.4205C41.1173 75.4005 41.104 75.3738 41.104 75.3405V68.5805C41.104 68.5471 41.1173 68.5205 41.144 68.5005C41.164 68.4738 41.1907 68.4605 41.224 68.4605H43.664C44.3907 68.4605 44.9507 68.6171 45.344 68.9305C45.7373 69.2438 45.934 69.7171 45.934 70.3505C45.934 71.0505 45.6273 71.5371 45.014 71.8105ZM42.314 69.4605C42.2807 69.4605 42.264 69.4771 42.264 69.5105V71.3605C42.264 71.3938 42.2807 71.4105 42.314 71.4105H43.664C44.0173 71.4105 44.2973 71.3271 44.504 71.1605C44.704 70.9871 44.804 70.7505 44.804 70.4505C44.804 70.1438 44.704 69.9005 44.504 69.7205C44.2973 69.5471 44.0173 69.4605 43.664 69.4605H42.314ZM43.744 74.4505C44.0907 74.4505 44.3673 74.3571 44.574 74.1705C44.774 73.9838 44.874 73.7305 44.874 73.4105C44.874 73.0838 44.7707 72.8305 44.564 72.6505C44.3573 72.4638 44.0773 72.3705 43.724 72.3705H42.314C42.2807 72.3705 42.264 72.3871 42.264 72.4205V74.4005C42.264 74.4338 42.2807 74.4505 42.314 74.4505H43.744ZM50.144 70.4705C50.144 70.4371 50.154 70.4071 50.174 70.3805C50.2007 70.3605 50.2307 70.3505 50.264 70.3505H51.174C51.2073 70.3505 51.2373 70.3605 51.264 70.3805C51.284 70.4071 51.294 70.4371 51.294 70.4705V75.3405C51.294 75.3738 51.284 75.4005 51.264 75.4205C51.2373 75.4471 51.2073 75.4605 51.174 75.4605H50.264C50.2307 75.4605 50.2007 75.4471 50.174 75.4205C50.154 75.4005 50.144 75.3738 50.144 75.3405V75.0205C50.144 75.0005 50.1373 74.9871 50.124 74.9805C50.1107 74.9738 50.0973 74.9805 50.084 75.0005C49.8107 75.3538 49.4007 75.5305 48.854 75.5305C48.3473 75.5305 47.924 75.3838 47.584 75.0905C47.2373 74.7971 47.064 74.3805 47.064 73.8405V70.4705C47.064 70.4371 47.074 70.4071 47.094 70.3805C47.1207 70.3605 47.1507 70.3505 47.184 70.3505H48.104C48.1373 70.3505 48.1673 70.3605 48.194 70.3805C48.214 70.4071 48.224 70.4371 48.224 70.4705V73.5105C48.224 73.8238 48.3073 74.0738 48.474 74.2605C48.634 74.4471 48.8607 74.5405 49.154 74.5405C49.454 74.5405 49.694 74.4471 49.874 74.2605C50.054 74.0738 50.144 73.8238 50.144 73.5105V70.4705ZM54.434 75.5205C54.014 75.5205 53.644 75.4571 53.324 75.3305C53.0107 75.2105 52.7673 75.0405 52.594 74.8205C52.4207 74.6071 52.334 74.3671 52.334 74.1005V74.0105C52.334 73.9771 52.344 73.9471 52.364 73.9205C52.3907 73.9005 52.4207 73.8905 52.454 73.8905H53.334C53.3673 73.8905 53.394 73.9005 53.414 73.9205C53.4407 73.9471 53.454 73.9771 53.454 74.0105V74.0305C53.454 74.1971 53.544 74.3438 53.724 74.4705C53.9107 74.5905 54.144 74.6505 54.424 74.6505C54.6907 74.6505 54.9073 74.5971 55.074 74.4905C55.2407 74.3771 55.324 74.2371 55.324 74.0705C55.324 73.9171 55.254 73.8005 55.114 73.7205C54.9807 73.6471 54.7607 73.5671 54.454 73.4805L54.074 73.3605C53.734 73.2605 53.4473 73.1538 53.214 73.0405C52.9807 72.9271 52.784 72.7705 52.624 72.5705C52.464 72.3771 52.384 72.1271 52.384 71.8205C52.384 71.3538 52.5673 70.9838 52.934 70.7105C53.3007 70.4305 53.784 70.2905 54.384 70.2905C54.7907 70.2905 55.1473 70.3538 55.454 70.4805C55.7607 70.6138 55.9973 70.7938 56.164 71.0205C56.3307 71.2538 56.414 71.5171 56.414 71.8105C56.414 71.8438 56.4007 71.8738 56.374 71.9005C56.354 71.9205 56.3273 71.9305 56.294 71.9305H55.444C55.4107 71.9305 55.3807 71.9205 55.354 71.9005C55.334 71.8738 55.324 71.8438 55.324 71.8105C55.324 71.6371 55.2373 71.4938 55.064 71.3805C54.8973 71.2605 54.6673 71.2005 54.374 71.2005C54.114 71.2005 53.9007 71.2471 53.734 71.3405C53.574 71.4405 53.494 71.5771 53.494 71.7505C53.494 71.9105 53.5707 72.0305 53.724 72.1105C53.884 72.1971 54.1473 72.2905 54.514 72.3905L54.734 72.4505C55.0873 72.5571 55.384 72.6638 55.624 72.7705C55.864 72.8838 56.0673 73.0371 56.234 73.2305C56.4007 73.4305 56.484 73.6871 56.484 74.0005C56.484 74.4738 56.2973 74.8438 55.924 75.1105C55.5507 75.3838 55.054 75.5205 54.434 75.5205ZM58.124 69.6505C57.9173 69.6505 57.7473 69.5838 57.614 69.4505C57.4807 69.3171 57.414 69.1471 57.414 68.9405C57.414 68.7338 57.4807 68.5638 57.614 68.4305C57.7473 68.2971 57.9173 68.2305 58.124 68.2305C58.3307 68.2305 58.5007 68.2971 58.634 68.4305C58.7673 68.5638 58.834 68.7338 58.834 68.9405C58.834 69.1471 58.7673 69.3171 58.634 69.4505C58.5007 69.5838 58.3307 69.6505 58.124 69.6505ZM57.644 75.4605C57.6107 75.4605 57.5807 75.4471 57.554 75.4205C57.534 75.4005 57.524 75.3738 57.524 75.3405V70.4605C57.524 70.4271 57.534 70.4005 57.554 70.3805C57.5807 70.3538 57.6107 70.3405 57.644 70.3405H58.564C58.5973 70.3405 58.624 70.3538 58.644 70.3805C58.6707 70.4005 58.684 70.4271 58.684 70.4605V75.3405C58.684 75.3738 58.6707 75.4005 58.644 75.4205C58.624 75.4471 58.5973 75.4605 58.564 75.4605H57.644ZM62.464 70.2705C63.004 70.2705 63.434 70.4305 63.754 70.7505C64.0807 71.0705 64.244 71.5071 64.244 72.0605V75.3405C64.244 75.3738 64.2307 75.4005 64.204 75.4205C64.184 75.4471 64.1573 75.4605 64.124 75.4605H63.204C63.1707 75.4605 63.1407 75.4471 63.114 75.4205C63.094 75.4005 63.084 75.3738 63.084 75.3405V72.3005C63.084 71.9938 62.9973 71.7438 62.824 71.5505C62.6507 71.3638 62.4207 71.2705 62.134 71.2705C61.8473 71.2705 61.614 71.3638 61.434 71.5505C61.2607 71.7371 61.174 71.9838 61.174 72.2905V75.3405C61.174 75.3738 61.1607 75.4005 61.134 75.4205C61.114 75.4471 61.0873 75.4605 61.054 75.4605H60.134C60.1007 75.4605 60.0707 75.4471 60.044 75.4205C60.024 75.4005 60.014 75.3738 60.014 75.3405V70.4705C60.014 70.4371 60.024 70.4071 60.044 70.3805C60.0707 70.3605 60.1007 70.3505 60.134 70.3505H61.054C61.0873 70.3505 61.114 70.3605 61.134 70.3805C61.1607 70.4071 61.174 70.4371 61.174 70.4705V70.7905C61.174 70.8105 61.1807 70.8238 61.194 70.8305C61.2073 70.8371 61.2173 70.8305 61.224 70.8105C61.4973 70.4505 61.9107 70.2705 62.464 70.2705ZM69.724 72.3305C69.7507 72.4971 69.764 72.6838 69.764 72.8905L69.754 73.2005C69.754 73.2805 69.714 73.3205 69.634 73.3205H66.504C66.4707 73.3205 66.454 73.3371 66.454 73.3705C66.474 73.5905 66.504 73.7405 66.544 73.8205C66.704 74.3005 67.094 74.5438 67.714 74.5505C68.1673 74.5505 68.5273 74.3638 68.794 73.9905C68.8207 73.9505 68.854 73.9305 68.894 73.9305C68.9207 73.9305 68.944 73.9405 68.964 73.9605L69.584 74.4705C69.644 74.5171 69.654 74.5705 69.614 74.6305C69.4073 74.9238 69.1307 75.1505 68.784 75.3105C68.444 75.4705 68.064 75.5505 67.644 75.5505C67.124 75.5505 66.6807 75.4338 66.314 75.2005C65.954 74.9671 65.6907 74.6405 65.524 74.2205C65.3707 73.8605 65.294 73.3605 65.294 72.7205C65.294 72.3338 65.334 72.0205 65.414 71.7805C65.5473 71.3138 65.7973 70.9438 66.164 70.6705C66.5373 70.4038 66.984 70.2705 67.504 70.2705C68.8173 70.2705 69.5573 70.9571 69.724 72.3305ZM67.504 71.2705C67.2573 71.2705 67.0507 71.3338 66.884 71.4605C66.724 71.5805 66.6107 71.7505 66.544 71.9705C66.504 72.0838 66.4773 72.2305 66.464 72.4105C66.4507 72.4438 66.464 72.4605 66.504 72.4605H68.534C68.5673 72.4605 68.584 72.4438 68.584 72.4105C68.5707 72.2438 68.5507 72.1171 68.524 72.0305C68.464 71.7905 68.344 71.6038 68.164 71.4705C67.9907 71.3371 67.7707 71.2705 67.504 71.2705ZM72.644 75.5205C72.224 75.5205 71.854 75.4571 71.534 75.3305C71.2207 75.2105 70.9773 75.0405 70.804 74.8205C70.6307 74.6071 70.544 74.3671 70.544 74.1005V74.0105C70.544 73.9771 70.554 73.9471 70.574 73.9205C70.6007 73.9005 70.6307 73.8905 70.664 73.8905H71.544C71.5773 73.8905 71.604 73.9005 71.624 73.9205C71.6507 73.9471 71.664 73.9771 71.664 74.0105V74.0305C71.664 74.1971 71.754 74.3438 71.934 74.4705C72.1207 74.5905 72.354 74.6505 72.634 74.6505C72.9007 74.6505 73.1173 74.5971 73.284 74.4905C73.4507 74.3771 73.534 74.2371 73.534 74.0705C73.534 73.9171 73.464 73.8005 73.324 73.7205C73.1907 73.6471 72.9707 73.5671 72.664 73.4805L72.284 73.3605C71.944 73.2605 71.6573 73.1538 71.424 73.0405C71.1907 72.9271 70.994 72.7705 70.834 72.5705C70.674 72.3771 70.594 72.1271 70.594 71.8205C70.594 71.3538 70.7773 70.9838 71.144 70.7105C71.5107 70.4305 71.994 70.2905 72.594 70.2905C73.0007 70.2905 73.3573 70.3538 73.664 70.4805C73.9707 70.6138 74.2073 70.7938 74.374 71.0205C74.5407 71.2538 74.624 71.5171 74.624 71.8105C74.624 71.8438 74.6107 71.8738 74.584 71.9005C74.564 71.9205 74.5373 71.9305 74.504 71.9305H73.654C73.6207 71.9305 73.5907 71.9205 73.564 71.9005C73.544 71.8738 73.534 71.8438 73.534 71.8105C73.534 71.6371 73.4473 71.4938 73.274 71.3805C73.1073 71.2605 72.8773 71.2005 72.584 71.2005C72.324 71.2005 72.1107 71.2471 71.944 71.3405C71.784 71.4405 71.704 71.5771 71.704 71.7505C71.704 71.9105 71.7807 72.0305 71.934 72.1105C72.094 72.1971 72.3573 72.2905 72.724 72.3905L72.944 72.4505C73.2973 72.5571 73.594 72.6638 73.834 72.7705C74.074 72.8838 74.2773 73.0371 74.444 73.2305C74.6107 73.4305 74.694 73.6871 74.694 74.0005C74.694 74.4738 74.5073 74.8438 74.134 75.1105C73.7607 75.3838 73.264 75.5205 72.644 75.5205ZM77.474 75.5205C77.054 75.5205 76.684 75.4571 76.364 75.3305C76.0507 75.2105 75.8073 75.0405 75.634 74.8205C75.4607 74.6071 75.374 74.3671 75.374 74.1005V74.0105C75.374 73.9771 75.384 73.9471 75.404 73.9205C75.4307 73.9005 75.4607 73.8905 75.494 73.8905H76.374C76.4073 73.8905 76.434 73.9005 76.454 73.9205C76.4807 73.9471 76.494 73.9771 76.494 74.0105V74.0305C76.494 74.1971 76.584 74.3438 76.764 74.4705C76.9507 74.5905 77.184 74.6505 77.464 74.6505C77.7307 74.6505 77.9473 74.5971 78.114 74.4905C78.2807 74.3771 78.364 74.2371 78.364 74.0705C78.364 73.9171 78.294 73.8005 78.154 73.7205C78.0207 73.6471 77.8007 73.5671 77.494 73.4805L77.114 73.3605C76.774 73.2605 76.4873 73.1538 76.254 73.0405C76.0207 72.9271 75.824 72.7705 75.664 72.5705C75.504 72.3771 75.424 72.1271 75.424 71.8205C75.424 71.3538 75.6073 70.9838 75.974 70.7105C76.3407 70.4305 76.824 70.2905 77.424 70.2905C77.8307 70.2905 78.1873 70.3538 78.494 70.4805C78.8007 70.6138 79.0373 70.7938 79.204 71.0205C79.3707 71.2538 79.454 71.5171 79.454 71.8105C79.454 71.8438 79.4407 71.8738 79.414 71.9005C79.394 71.9205 79.3673 71.9305 79.334 71.9305H78.484C78.4507 71.9305 78.4207 71.9205 78.394 71.9005C78.374 71.8738 78.364 71.8438 78.364 71.8105C78.364 71.6371 78.2773 71.4938 78.104 71.3805C77.9373 71.2605 77.7073 71.2005 77.414 71.2005C77.154 71.2005 76.9407 71.2471 76.774 71.3405C76.614 71.4405 76.534 71.5771 76.534 71.7505C76.534 71.9105 76.6107 72.0305 76.764 72.1105C76.924 72.1971 77.1873 72.2905 77.554 72.3905L77.774 72.4505C78.1273 72.5571 78.424 72.6638 78.664 72.7705C78.904 72.8838 79.1073 73.0371 79.274 73.2305C79.4407 73.4305 79.524 73.6871 79.524 74.0005C79.524 74.4738 79.3373 74.8438 78.964 75.1105C78.5907 75.3838 78.094 75.5205 77.474 75.5205Z" fill="white"></path><path d="M40.7538 83.6505C40.7538 83.6839 40.7405 83.7105 40.7138 83.7305C40.6938 83.7572 40.6671 83.7705 40.6338 83.7705H37.3638C37.3305 83.7705 37.3138 83.7872 37.3138 83.8205V85.3705C37.3138 85.4039 37.3305 85.4205 37.3638 85.4205H39.5138C39.5471 85.4205 39.5738 85.4305 39.5938 85.4505C39.6205 85.4772 39.6338 85.5072 39.6338 85.5406V86.5105C39.6338 86.5439 39.6205 86.5739 39.5938 86.6005C39.5738 86.6205 39.5471 86.6305 39.5138 86.6305H37.3638C37.3305 86.6305 37.3138 86.6472 37.3138 86.6805V89.4405C37.3138 89.4739 37.3038 89.5005 37.2838 89.5205C37.2571 89.5472 37.2271 89.5605 37.1938 89.5605H36.0238C35.9905 89.5605 35.9638 89.5472 35.9438 89.5205C35.9171 89.5005 35.9038 89.4739 35.9038 89.4405V82.6805C35.9038 82.6472 35.9171 82.6205 35.9438 82.6005C35.9638 82.5739 35.9905 82.5605 36.0238 82.5605H40.6338C40.6671 82.5605 40.6938 82.5739 40.7138 82.6005C40.7405 82.6205 40.7538 82.6472 40.7538 82.6805V83.6505ZM45.1738 89.5605C45.1071 89.5605 45.0638 89.5272 45.0438 89.4605L44.7438 88.4805C44.7305 88.4539 44.7138 88.4405 44.6938 88.4405H42.2338C42.2138 88.4405 42.1971 88.4539 42.1838 88.4805L41.8938 89.4605C41.8738 89.5272 41.8305 89.5605 41.7638 89.5605H40.4938C40.4538 89.5605 40.4238 89.5472 40.4038 89.5205C40.3838 89.5005 40.3805 89.4672 40.3938 89.4205L42.5538 82.6605C42.5738 82.5939 42.6171 82.5605 42.6838 82.5605H44.2538C44.3205 82.5605 44.3638 82.5939 44.3838 82.6605L46.5438 89.4205C46.5505 89.4339 46.5538 89.4506 46.5538 89.4706C46.5538 89.5306 46.5171 89.5605 46.4438 89.5605H45.1738ZM42.5438 87.2906C42.5371 87.3306 42.5505 87.3505 42.5838 87.3505H44.3438C44.3838 87.3505 44.3971 87.3306 44.3838 87.2906L43.4838 84.3205C43.4771 84.2939 43.4671 84.2805 43.4538 84.2805C43.4405 84.2872 43.4305 84.3005 43.4238 84.3205L42.5438 87.2906ZM47.5538 89.5605C47.5205 89.5605 47.4938 89.5472 47.4738 89.5205C47.4471 89.5005 47.4338 89.4739 47.4338 89.4405V82.6805C47.4338 82.6472 47.4471 82.6205 47.4738 82.6005C47.4938 82.5739 47.5205 82.5605 47.5538 82.5605H48.7238C48.7571 82.5605 48.7871 82.5739 48.8138 82.6005C48.8338 82.6205 48.8438 82.6472 48.8438 82.6805V88.3005C48.8438 88.3339 48.8605 88.3505 48.8938 88.3505H52.1638C52.1971 88.3505 52.2271 88.3605 52.2538 88.3805C52.2738 88.4072 52.2838 88.4372 52.2838 88.4706V89.4405C52.2838 89.4739 52.2738 89.5005 52.2538 89.5205C52.2271 89.5472 52.1971 89.5605 52.1638 89.5605H47.5538ZM53.2738 89.5605C53.2405 89.5605 53.2105 89.5472 53.1838 89.5205C53.1638 89.5005 53.1538 89.4739 53.1538 89.4405V82.6805C53.1538 82.6472 53.1638 82.6205 53.1838 82.6005C53.2105 82.5739 53.2405 82.5605 53.2738 82.5605H54.4438C54.4771 82.5605 54.5038 82.5739 54.5238 82.6005C54.5505 82.6205 54.5638 82.6472 54.5638 82.6805V88.3005C54.5638 88.3339 54.5805 88.3505 54.6138 88.3505H57.8838C57.9171 88.3505 57.9471 88.3605 57.9738 88.3805C57.9938 88.4072 58.0038 88.4372 58.0038 88.4706V89.4405C58.0038 89.4739 57.9938 89.5005 57.9738 89.5205C57.9471 89.5472 57.9171 89.5605 57.8838 89.5605H53.2738ZM37.9438 97.6905C37.9305 97.7039 37.9271 97.7172 37.9338 97.7305C37.9405 97.7439 37.9538 97.7505 37.9738 97.7505H40.6838C40.7171 97.7505 40.7471 97.7605 40.7738 97.7805C40.7938 97.8072 40.8038 97.8372 40.8038 97.8705V98.8405C40.8038 98.8739 40.7938 98.9005 40.7738 98.9205C40.7471 98.9472 40.7171 98.9605 40.6838 98.9605H36.1838C36.1505 98.9605 36.1205 98.9472 36.0938 98.9205C36.0738 98.9005 36.0638 98.8739 36.0638 98.8405V97.9205C36.0638 97.8605 36.0838 97.8105 36.1238 97.7705C36.4505 97.4505 36.7838 97.1039 37.1238 96.7305C37.4638 96.3505 37.6771 96.1139 37.7638 96.0205C37.9505 95.8005 38.1405 95.5905 38.3338 95.3905C38.9405 94.7172 39.2438 94.2172 39.2438 93.8905C39.2438 93.6572 39.1605 93.4639 38.9938 93.3105C38.8271 93.1639 38.6105 93.0905 38.3438 93.0905C38.0771 93.0905 37.8605 93.1639 37.6938 93.3105C37.5271 93.4639 37.4438 93.6639 37.4438 93.9105V94.1605C37.4438 94.1939 37.4305 94.2239 37.4038 94.2505C37.3838 94.2705 37.3571 94.2805 37.3238 94.2805H36.1438C36.1105 94.2805 36.0838 94.2705 36.0638 94.2505C36.0371 94.2239 36.0238 94.1939 36.0238 94.1605V93.6905C36.0438 93.3305 36.1571 93.0105 36.3638 92.7305C36.5705 92.4572 36.8438 92.2472 37.1838 92.1005C37.5305 91.9539 37.9171 91.8805 38.3438 91.8805C38.8171 91.8805 39.2305 91.9672 39.5838 92.1405C39.9305 92.3205 40.2005 92.5605 40.3938 92.8605C40.5805 93.1606 40.6738 93.4939 40.6738 93.8605C40.6738 94.1405 40.6038 94.4272 40.4638 94.7206C40.3238 95.0139 40.1138 95.3305 39.8338 95.6705C39.6271 95.9305 39.4038 96.1872 39.1638 96.4405C38.9238 96.6939 38.5671 97.0606 38.0938 97.5406L37.9438 97.6905ZM44.0538 99.0705C43.3205 99.0705 42.7405 98.8639 42.3138 98.4505C41.8871 98.0439 41.6738 97.4872 41.6738 96.7805V94.1405C41.6738 93.4472 41.8871 92.8972 42.3138 92.4905C42.7405 92.0839 43.3205 91.8805 44.0538 91.8805C44.7871 91.8805 45.3705 92.0839 45.8038 92.4905C46.2305 92.8972 46.4438 93.4472 46.4438 94.1405V96.7805C46.4438 97.4872 46.2305 98.0439 45.8038 98.4505C45.3705 98.8639 44.7871 99.0705 44.0538 99.0705ZM44.0538 97.8605C44.3538 97.8605 44.5938 97.7672 44.7738 97.5805C44.9471 97.4005 45.0338 97.1572 45.0338 96.8505V94.1005C45.0338 93.7939 44.9471 93.5505 44.7738 93.3705C44.5938 93.1839 44.3538 93.0905 44.0538 93.0905C43.7605 93.0905 43.5271 93.1839 43.3538 93.3705C43.1738 93.5505 43.0838 93.7939 43.0838 94.1005V96.8505C43.0838 97.1572 43.1738 97.4005 43.3538 97.5805C43.5271 97.7672 43.7605 97.8605 44.0538 97.8605ZM49.2438 97.6905C49.2305 97.7039 49.2271 97.7172 49.2338 97.7305C49.2405 97.7439 49.2538 97.7505 49.2738 97.7505H51.9838C52.0171 97.7505 52.0471 97.7605 52.0738 97.7805C52.0938 97.8072 52.1038 97.8372 52.1038 97.8705V98.8405C52.1038 98.8739 52.0938 98.9005 52.0738 98.9205C52.0471 98.9472 52.0171 98.9605 51.9838 98.9605H47.4838C47.4505 98.9605 47.4238 98.9472 47.4038 98.9205C47.3771 98.9005 47.3638 98.8739 47.3638 98.8405V97.9205C47.3638 97.8605 47.3838 97.8105 47.4238 97.7705C47.7505 97.4505 48.0838 97.1039 48.4238 96.7305C48.7638 96.3505 48.9771 96.1139 49.0638 96.0205C49.2505 95.8005 49.4405 95.5905 49.6338 95.3905C50.2405 94.7172 50.5438 94.2172 50.5438 93.8905C50.5438 93.6572 50.4605 93.4639 50.2938 93.3105C50.1271 93.1639 49.9105 93.0905 49.6438 93.0905C49.3771 93.0905 49.1605 93.1639 48.9938 93.3105C48.8271 93.4639 48.7438 93.6639 48.7438 93.9105V94.1605C48.7438 94.1939 48.7338 94.2239 48.7138 94.2505C48.6871 94.2705 48.6571 94.2805 48.6238 94.2805H47.4438C47.4105 94.2805 47.3838 94.2705 47.3638 94.2505C47.3371 94.2239 47.3238 94.1939 47.3238 94.1605V93.6905C47.3438 93.3305 47.4571 93.0105 47.6638 92.7305C47.8705 92.4572 48.1471 92.2472 48.4938 92.1005C48.8338 91.9539 49.2171 91.8805 49.6438 91.8805C50.1171 91.8805 50.5305 91.9672 50.8838 92.1405C51.2305 92.3205 51.5005 92.5605 51.6938 92.8605C51.8805 93.1606 51.9738 93.4939 51.9738 93.8605C51.9738 94.1405 51.9038 94.4272 51.7638 94.7206C51.6238 95.0139 51.4138 95.3305 51.1338 95.6705C50.9271 95.9305 50.7038 96.1872 50.4638 96.4405C50.2238 96.6939 49.8671 97.0606 49.3938 97.5406L49.2438 97.6905ZM57.9738 95.9105C58.0071 95.9105 58.0371 95.9205 58.0638 95.9405C58.0838 95.9672 58.0938 95.9972 58.0938 96.0305V97.0406C58.0938 97.0739 58.0838 97.1039 58.0638 97.1305C58.0371 97.1505 58.0071 97.1605 57.9738 97.1605H57.5438C57.5105 97.1605 57.4938 97.1772 57.4938 97.2105V98.8405C57.4938 98.8739 57.4838 98.9005 57.4638 98.9205C57.4371 98.9472 57.4071 98.9605 57.3738 98.9605H56.2038C56.1705 98.9605 56.1438 98.9472 56.1238 98.9205C56.0971 98.9005 56.0838 98.8739 56.0838 98.8405V97.2105C56.0838 97.1772 56.0671 97.1605 56.0338 97.1605H52.9638C52.9305 97.1605 52.9038 97.1505 52.8838 97.1305C52.8571 97.1039 52.8438 97.0739 52.8438 97.0406V96.2405C52.8438 96.2005 52.8538 96.1505 52.8738 96.0905L54.6738 92.0505C54.7005 91.9905 54.7471 91.9605 54.8138 91.9605H56.0638C56.1105 91.9605 56.1438 91.9739 56.1638 92.0005C56.1771 92.0205 56.1738 92.0539 56.1538 92.1005L54.4838 95.8505C54.4771 95.8639 54.4771 95.8772 54.4838 95.8905C54.4905 95.9039 54.5005 95.9105 54.5138 95.9105H56.0338C56.0671 95.9105 56.0838 95.8939 56.0838 95.8605V94.6205C56.0838 94.5872 56.0971 94.5606 56.1238 94.5406C56.1438 94.5139 56.1705 94.5005 56.2038 94.5005H57.3738C57.4071 94.5005 57.4371 94.5139 57.4638 94.5406C57.4838 94.5606 57.4938 94.5872 57.4938 94.6205V95.8605C57.4938 95.8939 57.5105 95.9105 57.5438 95.9105H57.9738Z" fill="#252530"></path></g><defs><clipPath id="clip0_3303_2316"><rect width="94" height="122" fill="white" transform="translate(0.263916 0.0605469)"></rect></clipPath></defs></svg>