<svg width="95" height="123" viewBox="0 0 95 123" fill="none" xmlns="http://www.w3.org/2000/svg" class="IdentifySection-module--icon--ec6d0"><g clip-path="url(#clip0_3303_2463)"><path d="M8.36401 89.9604L47.864 110.06L85.864 89.9604V11.3604H8.36401V89.9604Z" fill="white"></path><path d="M86.664 11.6606L7.56396 91.3606L48.564 111.661L86.664 92.1606V11.6606Z" fill="#F2F3F2"></path><path d="M5.76392 37.5607V91.6607L7.16392 92.3607L46.6639 112.461L47.8639 113.061L49.0639 112.461L87.1639 92.3607L88.5639 91.6607V8.76074H5.76392V37.5607ZM8.36392 90.1607V11.3607H85.9639V90.1607L47.8639 110.261L8.36392 90.1607Z" fill="#DCDEDC"></path><path d="M47.1638 12.6607C47.5638 12.6607 47.9638 12.6607 48.3638 12.7607L47.1638 15.0607C45.3638 14.9607 43.7638 16.3607 43.6638 18.1607C43.5638 19.9607 44.9638 21.5607 46.7638 21.6607H47.1638C47.9638 21.6607 48.7638 21.3607 49.3638 20.8607L50.6638 23.0607C49.6638 23.7607 48.4638 24.1607 47.1638 24.1607C43.9638 24.2607 41.2638 21.8607 41.1638 18.6607C41.0638 15.4607 43.4638 12.7607 46.6638 12.6607H47.1638ZM51.2638 17.5607L52.7638 20.0607L51.2638 22.4607L49.8638 20.0607H46.9638L48.4638 17.5607H51.2638ZM48.8638 16.6607C48.8638 16.2607 48.9638 15.8607 49.1638 15.5607C49.3638 15.2607 49.7638 14.9607 50.0638 14.7607L50.2638 14.6607C50.6638 14.4607 50.7638 14.3607 50.7638 14.1607C50.7638 13.9607 50.4638 13.7607 50.2638 13.7607C49.8638 13.7607 49.5638 13.9607 49.3638 14.3607L48.8638 13.8607C48.9638 13.6607 49.1638 13.4607 49.3638 13.2607C49.6638 13.0607 49.9638 13.0607 50.2638 13.0607C50.5638 13.0607 50.9638 13.1607 51.1638 13.3607C51.3638 13.5607 51.5638 13.8607 51.5638 14.1607C51.5638 14.6607 51.2638 15.0607 50.6638 15.2607L50.3638 15.4607C50.0638 15.6607 49.8638 15.7607 49.7638 16.0607H51.5638V16.7607L48.8638 16.6607ZM47.1638 29.1607L56.6638 23.7607V8.76074H37.5638V23.6607L47.1638 29.1607ZM90.4638 64.5607H3.86382L0.663818 71.5607L3.86382 78.5607H90.4638L93.5638 71.5607L90.4638 64.5607Z" fill="#FF492C"></path><path d="M17.5638 49.5504C18.2238 49.5504 18.8038 49.6837 19.3038 49.9504C19.8038 50.217 20.1905 50.6004 20.4638 51.1004C20.7371 51.5937 20.8738 52.1604 20.8738 52.8004C20.8738 53.4337 20.7338 53.9904 20.4538 54.4704C20.1671 54.9437 19.7671 55.3137 19.2538 55.5804C18.7405 55.847 18.1471 55.9804 17.4738 55.9804H15.3438C15.2971 55.9804 15.2738 56.007 15.2738 56.0604V59.8804C15.2738 59.9337 15.2538 59.977 15.2138 60.0104C15.1805 60.0437 15.1371 60.0604 15.0838 60.0604H13.3338C13.2805 60.0604 13.2371 60.0437 13.2038 60.0104C13.1705 59.977 13.1538 59.9337 13.1538 59.8804V49.7304C13.1538 49.677 13.1705 49.6337 13.2038 49.6004C13.2371 49.567 13.2805 49.5504 13.3338 49.5504H17.5638ZM17.2438 54.2904C17.7105 54.2904 18.0805 54.157 18.3538 53.8904C18.6338 53.6237 18.7738 53.277 18.7738 52.8504C18.7738 52.4037 18.6338 52.047 18.3538 51.7804C18.0805 51.507 17.7105 51.3704 17.2438 51.3704H15.3438C15.2971 51.3704 15.2738 51.397 15.2738 51.4504V54.2104C15.2738 54.2637 15.2971 54.2904 15.3438 54.2904H17.2438ZM28.4438 55.4104C28.4971 55.7903 28.5138 56.2137 28.4938 56.6804C28.4871 56.807 28.4238 56.8704 28.3038 56.8704H23.6738C23.6138 56.8704 23.5905 56.8937 23.6038 56.9404C23.6371 57.1404 23.6938 57.3404 23.7738 57.5404C24.0338 58.1004 24.5638 58.3804 25.3638 58.3804C26.0038 58.3737 26.5071 58.1137 26.8738 57.6004C26.9205 57.5404 26.9671 57.5104 27.0138 57.5104C27.0405 57.5104 27.0738 57.5303 27.1138 57.5704L28.1938 58.6304C28.2471 58.6837 28.2738 58.7304 28.2738 58.7704C28.2738 58.7904 28.2538 58.8304 28.2138 58.8904C27.8805 59.3037 27.4571 59.6204 26.9438 59.8404C26.4171 60.067 25.8438 60.1804 25.2238 60.1804C24.3705 60.1804 23.6438 59.987 23.0438 59.6004C22.4505 59.207 22.0238 58.6604 21.7638 57.9604C21.5505 57.4604 21.4438 56.807 21.4438 56.0004C21.4438 55.447 21.5205 54.9604 21.6738 54.5404C21.9071 53.8337 22.3105 53.2704 22.8838 52.8504C23.4571 52.4304 24.1371 52.2204 24.9238 52.2204C25.9238 52.2204 26.7271 52.5104 27.3338 53.0904C27.9405 53.6704 28.3105 54.4437 28.4438 55.4104ZM24.9438 54.0504C24.3105 54.0504 23.8938 54.3437 23.6938 54.9304C23.6538 55.0637 23.6205 55.2237 23.5938 55.4104C23.5938 55.457 23.6205 55.4804 23.6738 55.4804H26.2638C26.3238 55.4804 26.3438 55.457 26.3238 55.4104C26.2705 55.1237 26.2438 54.9837 26.2438 54.9904C26.1571 54.6904 26.0005 54.457 25.7738 54.2904C25.5538 54.1304 25.2771 54.0504 24.9438 54.0504ZM33.6438 52.2504C34.0038 52.2504 34.2905 52.3204 34.5038 52.4604C34.5771 52.5004 34.6038 52.5737 34.5838 52.6804L34.2738 54.3904C34.2671 54.5104 34.1971 54.547 34.0638 54.5004C33.9105 54.447 33.7371 54.4204 33.5438 54.4204C33.4638 54.4204 33.3505 54.4304 33.2038 54.4504C32.8505 54.4837 32.5471 54.617 32.2938 54.8504C32.0471 55.0837 31.9238 55.397 31.9238 55.7904V59.8804C31.9238 59.9337 31.9038 59.977 31.8638 60.0104C31.8305 60.0437 31.7905 60.0604 31.7438 60.0604H29.9838C29.9371 60.0604 29.8938 60.0437 29.8538 60.0104C29.8205 59.977 29.8038 59.9337 29.8038 59.8804V52.5304C29.8038 52.4837 29.8205 52.4404 29.8538 52.4004C29.8938 52.367 29.9371 52.3504 29.9838 52.3504H31.7438C31.7905 52.3504 31.8305 52.367 31.8638 52.4004C31.9038 52.4404 31.9238 52.4837 31.9238 52.5304V53.1004C31.9238 53.127 31.9338 53.147 31.9538 53.1604C31.9671 53.1737 31.9805 53.167 31.9938 53.1404C32.4071 52.547 32.9571 52.2504 33.6438 52.2504ZM40.0338 52.3404C40.0871 52.3404 40.1305 52.357 40.1638 52.3904C40.1971 52.4237 40.2138 52.467 40.2138 52.5204V53.9404C40.2138 53.9937 40.1971 54.037 40.1638 54.0704C40.1305 54.1037 40.0871 54.1204 40.0338 54.1204H38.5838C38.5305 54.1204 38.5038 54.1437 38.5038 54.1904V59.8804C38.5038 59.9337 38.4871 59.977 38.4538 60.0104C38.4205 60.0437 38.3771 60.0604 38.3238 60.0604H36.5738C36.5205 60.0604 36.4771 60.0437 36.4438 60.0104C36.4105 59.977 36.3938 59.9337 36.3938 59.8804V54.1904C36.3938 54.1437 36.3671 54.1204 36.3138 54.1204H35.4338C35.3805 54.1204 35.3371 54.1037 35.3038 54.0704C35.2705 54.037 35.2538 53.9937 35.2538 53.9404V52.5204C35.2538 52.467 35.2705 52.4237 35.3038 52.3904C35.3371 52.357 35.3805 52.3404 35.4338 52.3404H36.3138C36.3671 52.3404 36.3938 52.3137 36.3938 52.2604V51.9304C36.3938 51.3104 36.4871 50.827 36.6738 50.4804C36.8671 50.1404 37.1738 49.897 37.5938 49.7504C38.0205 49.6037 38.6105 49.5404 39.3638 49.5604H39.9338C39.9805 49.5604 40.0205 49.577 40.0538 49.6104C40.0938 49.6504 40.1138 49.6937 40.1138 49.7404V50.9504C40.1138 51.0037 40.0938 51.047 40.0538 51.0804C40.0205 51.1204 39.9805 51.1404 39.9338 51.1404H39.4338C39.0871 51.147 38.8438 51.217 38.7038 51.3504C38.5705 51.4904 38.5038 51.7404 38.5038 52.1004V52.2604C38.5038 52.3137 38.5305 52.3404 38.5838 52.3404H40.0338ZM44.3838 60.1804C43.5438 60.1804 42.8238 59.9604 42.2238 59.5204C41.6238 59.0804 41.2138 58.4804 40.9938 57.7204C40.8538 57.2537 40.7838 56.7437 40.7838 56.1904C40.7838 55.6037 40.8538 55.0737 40.9938 54.6004C41.2271 53.8604 41.6438 53.2804 42.2438 52.8604C42.8438 52.4404 43.5638 52.2304 44.4038 52.2304C45.2171 52.2304 45.9171 52.437 46.5038 52.8504C47.0771 53.2704 47.4838 53.8504 47.7238 54.5904C47.8905 55.0904 47.9738 55.6137 47.9738 56.1604C47.9738 56.7004 47.9038 57.207 47.7638 57.6804C47.5438 58.4604 47.1338 59.0704 46.5338 59.5104C45.9405 59.957 45.2238 60.1804 44.3838 60.1804ZM44.3838 58.3704C44.7105 58.3704 44.9905 58.2704 45.2238 58.0704C45.4571 57.8703 45.6238 57.5937 45.7238 57.2404C45.7971 56.9204 45.8338 56.5704 45.8338 56.1904C45.8338 55.7704 45.7971 55.417 45.7238 55.1304C45.6105 54.7904 45.4405 54.5237 45.2138 54.3304C44.9805 54.1437 44.6971 54.0504 44.3638 54.0504C44.0305 54.0504 43.7505 54.1437 43.5238 54.3304C43.2971 54.5237 43.1338 54.7904 43.0338 55.1304C42.9538 55.3637 42.9138 55.717 42.9138 56.1904C42.9138 56.6437 42.9505 56.9937 43.0238 57.2404C43.1238 57.5937 43.2905 57.8703 43.5238 58.0704C43.7571 58.2704 44.0438 58.3704 44.3838 58.3704ZM53.1738 52.2504C53.5338 52.2504 53.8205 52.3204 54.0338 52.4604C54.1138 52.5004 54.1405 52.5737 54.1138 52.6804L53.8038 54.3904C53.7971 54.5104 53.7271 54.547 53.5938 54.5004C53.4405 54.447 53.2671 54.4204 53.0738 54.4204C52.9938 54.4204 52.8838 54.4304 52.7438 54.4504C52.3838 54.4837 52.0771 54.617 51.8238 54.8504C51.5771 55.0837 51.4538 55.397 51.4538 55.7904V59.8804C51.4538 59.9337 51.4338 59.977 51.3938 60.0104C51.3605 60.0437 51.3171 60.0604 51.2638 60.0604H49.5138C49.4671 60.0604 49.4238 60.0437 49.3838 60.0104C49.3505 59.977 49.3338 59.9337 49.3338 59.8804V52.5304C49.3338 52.4837 49.3505 52.4404 49.3838 52.4004C49.4238 52.367 49.4671 52.3504 49.5138 52.3504H51.2638C51.3171 52.3504 51.3605 52.367 51.3938 52.4004C51.4338 52.4404 51.4538 52.4837 51.4538 52.5304V53.1004C51.4538 53.127 51.4605 53.147 51.4738 53.1604C51.5005 53.1737 51.5171 53.167 51.5238 53.1404C51.9371 52.547 52.4871 52.2504 53.1738 52.2504ZM63.6238 52.2304C64.4038 52.2304 65.0138 52.4637 65.4538 52.9304C65.8938 53.4037 66.1138 54.067 66.1138 54.9204V59.8804C66.1138 59.9337 66.0971 59.977 66.0638 60.0104C66.0305 60.0437 65.9905 60.0604 65.9438 60.0604H64.1838C64.1371 60.0604 64.0938 60.0437 64.0538 60.0104C64.0205 59.977 64.0038 59.9337 64.0038 59.8804V55.3804C64.0038 54.9737 63.9005 54.6504 63.6938 54.4104C63.4805 54.1704 63.1971 54.0504 62.8438 54.0504C62.4971 54.0504 62.2138 54.1704 61.9938 54.4104C61.7738 54.6504 61.6638 54.9704 61.6638 55.3704V59.8804C61.6638 59.9337 61.6471 59.977 61.6138 60.0104C61.5738 60.0437 61.5305 60.0604 61.4838 60.0604H59.7438C59.6905 60.0604 59.6471 60.0437 59.6138 60.0104C59.5805 59.977 59.5638 59.9337 59.5638 59.8804V55.3804C59.5638 54.9804 59.4538 54.657 59.2338 54.4104C59.0138 54.1704 58.7271 54.0504 58.3738 54.0504C58.0605 54.0504 57.7938 54.1437 57.5738 54.3304C57.3605 54.5237 57.2338 54.7904 57.1938 55.1304V59.8804C57.1938 59.9337 57.1771 59.977 57.1438 60.0104C57.1038 60.0437 57.0605 60.0604 57.0138 60.0604H55.2638C55.2105 60.0604 55.1671 60.0437 55.1338 60.0104C55.1005 59.977 55.0838 59.9337 55.0838 59.8804V52.5304C55.0838 52.4837 55.1005 52.4404 55.1338 52.4004C55.1671 52.367 55.2105 52.3504 55.2638 52.3504H57.0138C57.0605 52.3504 57.1038 52.367 57.1438 52.4004C57.1771 52.4404 57.1938 52.4837 57.1938 52.5304V53.1204C57.1938 53.147 57.2038 53.167 57.2238 53.1804C57.2438 53.187 57.2638 53.1737 57.2838 53.1404C57.6971 52.5337 58.3338 52.2304 59.1938 52.2304C59.6938 52.2304 60.1305 52.337 60.5038 52.5504C60.8771 52.757 61.1638 53.057 61.3638 53.4504C61.3905 53.5104 61.4271 53.5104 61.4738 53.4504C61.6871 53.037 61.9838 52.7304 62.3638 52.5304C62.7371 52.3304 63.1571 52.2304 63.6238 52.2304ZM74.3838 55.4104C74.4438 55.7903 74.4638 56.2137 74.4438 56.6804C74.4305 56.807 74.3638 56.8704 74.2438 56.8704H69.6138C69.5538 56.8704 69.5338 56.8937 69.5538 56.9404C69.5805 57.1404 69.6338 57.3404 69.7138 57.5404C69.9738 58.1004 70.5038 58.3804 71.3038 58.3804C71.9438 58.3737 72.4505 58.1137 72.8238 57.6004C72.8638 57.5404 72.9071 57.5104 72.9538 57.5104C72.9871 57.5104 73.0238 57.5303 73.0638 57.5704L74.1438 58.6304C74.1905 58.6837 74.2138 58.7304 74.2138 58.7704C74.2138 58.7904 74.1938 58.8304 74.1538 58.8904C73.8271 59.3037 73.4038 59.6204 72.8838 59.8404C72.3638 60.067 71.7938 60.1804 71.1738 60.1804C70.3138 60.1804 69.5871 59.987 68.9938 59.6004C68.3938 59.207 67.9638 58.6604 67.7038 57.9604C67.4971 57.4604 67.3938 56.807 67.3938 56.0004C67.3938 55.447 67.4671 54.9604 67.6138 54.5404C67.8471 53.8337 68.2505 53.2704 68.8238 52.8504C69.3971 52.4304 70.0805 52.2204 70.8738 52.2204C71.8738 52.2204 72.6771 52.5104 73.2838 53.0904C73.8905 53.6704 74.2571 54.4437 74.3838 55.4104ZM70.8838 54.0504C70.2571 54.0504 69.8438 54.3437 69.6438 54.9304C69.6038 55.0637 69.5671 55.2237 69.5338 55.4104C69.5338 55.457 69.5605 55.4804 69.6138 55.4804H72.2038C72.2638 55.4804 72.2838 55.457 72.2638 55.4104C72.2171 55.1237 72.1938 54.9837 72.1938 54.9904C72.1005 54.6904 71.9438 54.457 71.7238 54.2904C71.4971 54.1304 71.2171 54.0504 70.8838 54.0504ZM79.5838 52.2504C79.9438 52.2504 80.2305 52.3204 80.4438 52.4604C80.5238 52.5004 80.5538 52.5737 80.5338 52.6804L80.2238 54.3904C80.2105 54.5104 80.1371 54.547 80.0038 54.5004C79.8571 54.447 79.6838 54.4204 79.4838 54.4204C79.4038 54.4204 79.2938 54.4304 79.1538 54.4504C78.7938 54.4837 78.4871 54.617 78.2338 54.8504C77.9871 55.0837 77.8638 55.397 77.8638 55.7904V59.8804C77.8638 59.9337 77.8471 59.977 77.8138 60.0104C77.7738 60.0437 77.7305 60.0604 77.6838 60.0604H75.9238C75.8771 60.0604 75.8371 60.0437 75.8038 60.0104C75.7638 59.977 75.7438 59.9337 75.7438 59.8804V52.5304C75.7438 52.4837 75.7638 52.4404 75.8038 52.4004C75.8371 52.367 75.8771 52.3504 75.9238 52.3504H77.6838C77.7305 52.3504 77.7738 52.367 77.8138 52.4004C77.8471 52.4404 77.8638 52.4837 77.8638 52.5304V53.1004C77.8638 53.127 77.8738 53.147 77.8938 53.1604C77.9138 53.1737 77.9305 53.167 77.9438 53.1404C78.3505 52.547 78.8971 52.2504 79.5838 52.2504ZM38.3238 34.7404C38.3238 34.6937 38.3405 34.6504 38.3738 34.6104C38.4071 34.577 38.4471 34.5604 38.4938 34.5604H40.2538C40.3005 34.5604 40.3438 34.577 40.3838 34.6104C40.4171 34.6504 40.4338 34.6937 40.4338 34.7404V44.8804C40.4338 44.9337 40.4171 44.977 40.3838 45.0104C40.3438 45.0437 40.3005 45.0604 40.2538 45.0604H38.4938C38.4471 45.0604 38.4071 45.0437 38.3738 45.0104C38.3405 44.977 38.3238 44.9337 38.3238 44.8804V40.7404C38.3238 40.6937 38.2971 40.6704 38.2438 40.6704H34.9238C34.8771 40.6704 34.8538 40.6937 34.8538 40.7404V44.8804C34.8538 44.9337 34.8371 44.977 34.8038 45.0104C34.7638 45.0437 34.7205 45.0604 34.6738 45.0604H32.9138C32.8671 45.0604 32.8271 45.0437 32.7938 45.0104C32.7538 44.977 32.7338 44.9337 32.7338 44.8804V34.7404C32.7338 34.6937 32.7538 34.6504 32.7938 34.6104C32.8271 34.577 32.8671 34.5604 32.9138 34.5604H34.6738C34.7205 34.5604 34.7638 34.577 34.8038 34.6104C34.8371 34.6504 34.8538 34.6937 34.8538 34.7404V38.7704C34.8538 38.8237 34.8771 38.8504 34.9238 38.8504H38.2438C38.2971 38.8504 38.3238 38.8237 38.3238 38.7704V34.7404ZM43.1638 36.4804C42.8238 36.4804 42.5405 36.367 42.3138 36.1404C42.0871 35.9204 41.9738 35.6404 41.9738 35.3004C41.9738 34.947 42.0838 34.6604 42.3038 34.4404C42.5238 34.2204 42.8105 34.1104 43.1638 34.1104C43.5171 34.1104 43.8038 34.2204 44.0238 34.4404C44.2438 34.6604 44.3538 34.947 44.3538 35.3004C44.3538 35.6404 44.2405 35.9204 44.0138 36.1404C43.7871 36.367 43.5038 36.4804 43.1638 36.4804ZM42.2638 45.0604C42.2171 45.0604 42.1738 45.0437 42.1338 45.0104C42.1005 44.977 42.0838 44.9337 42.0838 44.8804V37.5204C42.0838 37.467 42.1005 37.4237 42.1338 37.3904C42.1738 37.357 42.2171 37.3404 42.2638 37.3404H44.0238C44.0705 37.3404 44.1105 37.357 44.1438 37.3904C44.1838 37.4237 44.2038 37.467 44.2038 37.5204V44.8804C44.2038 44.9337 44.1838 44.977 44.1438 45.0104C44.1105 45.0437 44.0705 45.0604 44.0238 45.0604H42.2638ZM50.5538 37.5304C50.5538 37.4837 50.5738 37.4404 50.6138 37.4004C50.6471 37.367 50.6871 37.3504 50.7338 37.3504H52.4938C52.5405 37.3504 52.5838 37.367 52.6238 37.4004C52.6571 37.4404 52.6738 37.4837 52.6738 37.5304V44.3704C52.6738 45.677 52.2971 46.6104 51.5438 47.1704C50.7905 47.737 49.8171 48.0204 48.6238 48.0204C48.2705 48.0204 47.8805 47.9937 47.4538 47.9404C47.3538 47.927 47.3038 47.8637 47.3038 47.7504L47.3638 46.2004C47.3638 46.067 47.4338 46.0104 47.5738 46.0304C47.9338 46.0904 48.2638 46.1204 48.5638 46.1204C49.2038 46.1204 49.6971 45.9837 50.0438 45.7104C50.3838 45.4237 50.5538 44.9737 50.5538 44.3604C50.5538 44.327 50.5438 44.307 50.5238 44.3004C50.5038 44.2937 50.4838 44.3037 50.4638 44.3304C50.0838 44.737 49.5305 44.9404 48.8038 44.9404C48.1505 44.9404 47.5538 44.7837 47.0138 44.4704C46.4671 44.157 46.0771 43.6504 45.8438 42.9504C45.6971 42.4904 45.6238 41.8937 45.6238 41.1604C45.6238 40.3804 45.7138 39.747 45.8938 39.2604C46.1005 38.647 46.4538 38.157 46.9538 37.7904C47.4538 37.417 48.0371 37.2304 48.7038 37.2304C49.4705 37.2304 50.0571 37.4604 50.4638 37.9204C50.4838 37.9404 50.5038 37.947 50.5238 37.9404C50.5438 37.9337 50.5538 37.917 50.5538 37.8904V37.5304ZM50.4338 42.3704C50.5138 42.077 50.5538 41.667 50.5538 41.1404C50.5538 40.8337 50.5438 40.597 50.5238 40.4304C50.5038 40.257 50.4705 40.0937 50.4238 39.9404C50.3305 39.6737 50.1805 39.457 49.9738 39.2904C49.7671 39.1304 49.5071 39.0504 49.1938 39.0504C48.8938 39.0504 48.6405 39.1304 48.4338 39.2904C48.2205 39.457 48.0638 39.6737 47.9638 39.9404C47.8238 40.2404 47.7538 40.647 47.7538 41.1604C47.7538 41.7204 47.8138 42.1204 47.9338 42.3604C48.0205 42.6337 48.1771 42.8504 48.4038 43.0104C48.6305 43.177 48.8971 43.2604 49.2038 43.2604C49.5238 43.2604 49.7905 43.177 50.0038 43.0104C50.2105 42.8504 50.3538 42.637 50.4338 42.3704ZM58.2138 37.2304C59.0138 37.2304 59.6571 37.477 60.1438 37.9704C60.6305 38.457 60.8738 39.1204 60.8738 39.9604V44.8804C60.8738 44.9337 60.8571 44.977 60.8238 45.0104C60.7905 45.0437 60.7505 45.0604 60.7038 45.0604H58.9438C58.8971 45.0604 58.8538 45.0437 58.8138 45.0104C58.7805 44.977 58.7638 44.9337 58.7638 44.8804V40.3904C58.7638 39.997 58.6505 39.6737 58.4238 39.4204C58.2038 39.1737 57.9071 39.0504 57.5338 39.0504C57.1671 39.0504 56.8705 39.1737 56.6438 39.4204C56.4171 39.6737 56.3038 39.997 56.3038 40.3904V44.8804C56.3038 44.9337 56.2871 44.977 56.2538 45.0104C56.2205 45.0437 56.1771 45.0604 56.1238 45.0604H54.3738C54.3205 45.0604 54.2771 45.0437 54.2438 45.0104C54.2105 44.977 54.1938 44.9337 54.1938 44.8804V34.7404C54.1938 34.6937 54.2105 34.6504 54.2438 34.6104C54.2771 34.577 54.3205 34.5604 54.3738 34.5604H56.1238C56.1771 34.5604 56.2205 34.577 56.2538 34.6104C56.2871 34.6504 56.3038 34.6937 56.3038 34.7404V38.0604C56.3038 38.087 56.3138 38.107 56.3338 38.1204C56.3538 38.127 56.3671 38.1204 56.3738 38.1004C56.7871 37.5204 57.4005 37.2304 58.2138 37.2304Z" fill="#252530"></path><path d="M27.2939 68.5405C27.3273 68.4871 27.3739 68.4605 27.4339 68.4605H28.3539C28.3873 68.4605 28.4139 68.4738 28.4339 68.5005C28.4606 68.5205 28.4739 68.5471 28.4739 68.5805V75.3405C28.4739 75.3738 28.4606 75.4005 28.4339 75.4205C28.4139 75.4471 28.3873 75.4605 28.3539 75.4605H27.4339C27.4006 75.4605 27.3706 75.4471 27.3439 75.4205C27.3239 75.4005 27.3139 75.3738 27.3139 75.3405V70.5705C27.3139 70.5505 27.3073 70.5371 27.2939 70.5305C27.2739 70.5238 27.2606 70.5305 27.2539 70.5505L26.0039 72.4705C25.9706 72.5238 25.9239 72.5505 25.8639 72.5505H25.4039C25.3439 72.5505 25.2973 72.5238 25.2639 72.4705L24.0039 70.5605C23.9973 70.5405 23.9873 70.5338 23.9739 70.5405C23.9539 70.5471 23.9439 70.5605 23.9439 70.5805V75.3405C23.9439 75.3738 23.9306 75.4005 23.9039 75.4205C23.8839 75.4471 23.8573 75.4605 23.8239 75.4605H22.9039C22.8706 75.4605 22.8439 75.4471 22.8239 75.4205C22.7973 75.4005 22.7839 75.3738 22.7839 75.3405V68.5805C22.7839 68.5471 22.7973 68.5205 22.8239 68.5005C22.8439 68.4738 22.8706 68.4605 22.9039 68.4605H23.8239C23.8839 68.4605 23.9306 68.4871 23.9639 68.5405L25.5939 71.0105C25.6073 71.0238 25.6206 71.0305 25.6339 71.0305C25.6473 71.0305 25.6573 71.0238 25.6639 71.0105L27.2939 68.5405ZM30.4839 69.6505C30.2773 69.6505 30.1073 69.5838 29.9739 69.4505C29.8406 69.3171 29.7739 69.1471 29.7739 68.9405C29.7739 68.7338 29.8406 68.5638 29.9739 68.4305C30.1073 68.2971 30.2773 68.2305 30.4839 68.2305C30.6906 68.2305 30.8606 68.2971 30.9939 68.4305C31.1273 68.5638 31.1939 68.7338 31.1939 68.9405C31.1939 69.1471 31.1273 69.3171 30.9939 69.4505C30.8606 69.5838 30.6906 69.6505 30.4839 69.6505ZM30.0039 75.4605C29.9706 75.4605 29.9439 75.4471 29.9239 75.4205C29.8973 75.4005 29.8839 75.3738 29.8839 75.3405V70.4605C29.8839 70.4271 29.8973 70.4005 29.9239 70.3805C29.9439 70.3538 29.9706 70.3405 30.0039 70.3405H30.9239C30.9573 70.3405 30.9873 70.3538 31.0139 70.3805C31.0339 70.4005 31.0439 70.4271 31.0439 70.4605V75.3405C31.0439 75.3738 31.0339 75.4005 31.0139 75.4205C30.9873 75.4471 30.9573 75.4605 30.9239 75.4605H30.0039ZM35.5439 68.5805C35.5439 68.5471 35.5573 68.5205 35.5839 68.5005C35.6039 68.4738 35.6306 68.4605 35.6639 68.4605H36.5839C36.6173 68.4605 36.6473 68.4738 36.6739 68.5005C36.6939 68.5205 36.7039 68.5471 36.7039 68.5805V75.3405C36.7039 75.3738 36.6939 75.4005 36.6739 75.4205C36.6473 75.4471 36.6173 75.4605 36.5839 75.4605H35.6639C35.6306 75.4605 35.6039 75.4471 35.5839 75.4205C35.5573 75.4005 35.5439 75.3738 35.5439 75.3405V75.0405C35.5439 75.0205 35.5373 75.0071 35.5239 75.0005C35.5106 74.9938 35.4973 75.0005 35.4839 75.0205C35.1906 75.3671 34.8073 75.5405 34.3339 75.5405C33.8606 75.5405 33.4606 75.4171 33.1339 75.1705C32.8073 74.9238 32.5706 74.5805 32.4239 74.1405C32.3039 73.7671 32.2439 73.3505 32.2439 72.8905C32.2439 72.4171 32.3006 72.0105 32.4139 71.6705C32.5606 71.2305 32.7973 70.8871 33.1239 70.6405C33.4506 70.3938 33.8606 70.2705 34.3539 70.2705C34.8139 70.2705 35.1906 70.4371 35.4839 70.7705C35.4973 70.7838 35.5106 70.7905 35.5239 70.7905C35.5373 70.7838 35.5439 70.7705 35.5439 70.7505V68.5805ZM35.3039 74.0605C35.4573 73.7871 35.5339 73.4005 35.5339 72.9005C35.5339 72.3805 35.4506 71.9838 35.2839 71.7105C35.1039 71.4171 34.8506 71.2705 34.5239 71.2705C34.1839 71.2705 33.9173 71.4105 33.7239 71.6905C33.5239 71.9838 33.4239 72.3905 33.4239 72.9105C33.4239 73.3771 33.5039 73.7605 33.6639 74.0605C33.8506 74.3805 34.1339 74.5405 34.5139 74.5405C34.8539 74.5405 35.1173 74.3805 35.3039 74.0605ZM37.7839 72.9505C37.7506 72.9505 37.7239 72.9405 37.7039 72.9205C37.6773 72.8938 37.6639 72.8638 37.6639 72.8305V72.0705C37.6639 72.0371 37.6773 72.0071 37.7039 71.9805C37.7239 71.9605 37.7506 71.9505 37.7839 71.9505H40.9339C40.9673 71.9505 40.9939 71.9605 41.0139 71.9805C41.0406 72.0071 41.0539 72.0371 41.0539 72.0705V72.8305C41.0539 72.8638 41.0406 72.8938 41.0139 72.9205C40.9939 72.9405 40.9673 72.9505 40.9339 72.9505H37.7839ZM46.6239 68.5405C46.6573 68.4871 46.7039 68.4605 46.7639 68.4605H47.6839C47.7173 68.4605 47.7473 68.4738 47.7739 68.5005C47.7939 68.5205 47.8039 68.5471 47.8039 68.5805V75.3405C47.8039 75.3738 47.7939 75.4005 47.7739 75.4205C47.7473 75.4471 47.7173 75.4605 47.6839 75.4605H46.7639C46.7306 75.4605 46.7039 75.4471 46.6839 75.4205C46.6573 75.4005 46.6439 75.3738 46.6439 75.3405V70.5705C46.6439 70.5505 46.6373 70.5371 46.6239 70.5305C46.6039 70.5238 46.5906 70.5305 46.5839 70.5505L45.3339 72.4705C45.3006 72.5238 45.2539 72.5505 45.1939 72.5505H44.7339C44.6739 72.5505 44.6273 72.5238 44.5939 72.4705L43.3339 70.5605C43.3273 70.5405 43.3173 70.5338 43.3039 70.5405C43.2839 70.5471 43.2739 70.5605 43.2739 70.5805V75.3405C43.2739 75.3738 43.2639 75.4005 43.2439 75.4205C43.2173 75.4471 43.1873 75.4605 43.1539 75.4605H42.2339C42.2006 75.4605 42.1739 75.4471 42.1539 75.4205C42.1273 75.4005 42.1139 75.3738 42.1139 75.3405V68.5805C42.1139 68.5471 42.1273 68.5205 42.1539 68.5005C42.1739 68.4738 42.2006 68.4605 42.2339 68.4605H43.1539C43.2139 68.4605 43.2606 68.4871 43.2939 68.5405L44.9239 71.0105C44.9373 71.0238 44.9506 71.0305 44.9639 71.0305C44.9773 71.0305 44.9873 71.0238 44.9939 71.0105L46.6239 68.5405ZM51.1039 70.2705C51.5239 70.2705 51.8939 70.3438 52.2139 70.4905C52.5339 70.6371 52.7806 70.8371 52.9539 71.0905C53.1273 71.3505 53.2139 71.6438 53.2139 71.9705V75.3405C53.2139 75.3738 53.2039 75.4005 53.1839 75.4205C53.1573 75.4471 53.1273 75.4605 53.0939 75.4605H52.1739C52.1406 75.4605 52.1139 75.4471 52.0939 75.4205C52.0673 75.4005 52.0539 75.3738 52.0539 75.3405V75.0205C52.0539 75.0005 52.0473 74.9871 52.0339 74.9805C52.0206 74.9805 52.0073 74.9871 51.9939 75.0005C51.6673 75.3605 51.1939 75.5405 50.5739 75.5405C50.0739 75.5405 49.6639 75.4138 49.3439 75.1605C49.0173 74.9071 48.8539 74.5305 48.8539 74.0305C48.8539 73.5105 49.0373 73.1038 49.4039 72.8105C49.7639 72.5238 50.2739 72.3805 50.9339 72.3805H52.0039C52.0373 72.3805 52.0539 72.3638 52.0539 72.3305V72.0905C52.0539 71.8305 51.9773 71.6271 51.8239 71.4805C51.6706 71.3405 51.4406 71.2705 51.1339 71.2705C50.8806 71.2705 50.6773 71.3171 50.5239 71.4105C50.3639 71.4971 50.2639 71.6205 50.2239 71.7805C50.2039 71.8605 50.1573 71.8938 50.0839 71.8805L49.1139 71.7605C49.0806 71.7538 49.0539 71.7438 49.0339 71.7305C49.0073 71.7105 48.9973 71.6871 49.0039 71.6605C49.0573 71.2538 49.2773 70.9205 49.6639 70.6605C50.0439 70.4005 50.5239 70.2705 51.1039 70.2705ZM50.8639 74.6205C51.1906 74.6205 51.4706 74.5338 51.7039 74.3605C51.9373 74.1871 52.0539 73.9671 52.0539 73.7005V73.2305C52.0539 73.1971 52.0373 73.1805 52.0039 73.1805H51.1639C50.8106 73.1805 50.5339 73.2471 50.3339 73.3805C50.1273 73.5138 50.0239 73.7038 50.0239 73.9505C50.0239 74.1638 50.1039 74.3271 50.2639 74.4405C50.4173 74.5605 50.6173 74.6205 50.8639 74.6205ZM56.7539 70.2905C56.9673 70.2905 57.1539 70.3338 57.3139 70.4205C57.3673 70.4471 57.3873 70.4971 57.3739 70.5705L57.2039 71.4705C57.1973 71.5505 57.1506 71.5738 57.0639 71.5405C56.9639 71.5071 56.8473 71.4905 56.7139 71.4905C56.6273 71.4905 56.5606 71.4938 56.5139 71.5005C56.2339 71.5138 56.0006 71.6105 55.8139 71.7905C55.6273 71.9771 55.5339 72.2171 55.5339 72.5105V75.3405C55.5339 75.3738 55.5239 75.4005 55.5039 75.4205C55.4773 75.4471 55.4473 75.4605 55.4139 75.4605H54.4939C54.4606 75.4605 54.4339 75.4471 54.4139 75.4205C54.3873 75.4005 54.3739 75.3738 54.3739 75.3405V70.4705C54.3739 70.4371 54.3873 70.4071 54.4139 70.3805C54.4339 70.3605 54.4606 70.3505 54.4939 70.3505H55.4139C55.4473 70.3505 55.4773 70.3605 55.5039 70.3805C55.5239 70.4071 55.5339 70.4371 55.5339 70.4705V70.9205C55.5339 70.9471 55.5406 70.9605 55.5539 70.9605C55.5606 70.9671 55.5706 70.9605 55.5839 70.9405C55.8639 70.5071 56.2539 70.2905 56.7539 70.2905ZM58.2539 75.4605C58.2206 75.4605 58.1939 75.4471 58.1739 75.4205C58.1473 75.4005 58.1339 75.3738 58.1339 75.3405V68.5805C58.1339 68.5471 58.1473 68.5205 58.1739 68.5005C58.1939 68.4738 58.2206 68.4605 58.2539 68.4605H59.1739C59.2073 68.4605 59.2339 68.4738 59.2539 68.5005C59.2806 68.5205 59.2939 68.5471 59.2939 68.5805V72.1905C59.2939 72.2105 59.3006 72.2238 59.3139 72.2305C59.3273 72.2371 59.3406 72.2305 59.3539 72.2105L60.9739 70.4205C61.0206 70.3738 61.0706 70.3505 61.1239 70.3505H62.1839C62.2506 70.3505 62.2839 70.3738 62.2839 70.4205C62.2839 70.4405 62.2739 70.4671 62.2539 70.5005L60.9839 72.0205C60.9639 72.0405 60.9606 72.0638 60.9739 72.0905L62.4739 75.3205C62.4873 75.3471 62.4939 75.3671 62.4939 75.3805C62.4939 75.4338 62.4573 75.4605 62.3839 75.4605H61.4139C61.3473 75.4605 61.3006 75.4305 61.2739 75.3705L60.1839 72.8305C60.1773 72.8171 60.1639 72.8071 60.1439 72.8005C60.1306 72.8005 60.1206 72.8071 60.1139 72.8205L59.3139 73.7405C59.3006 73.7671 59.2939 73.7905 59.2939 73.8105V75.3405C59.2939 75.3738 59.2806 75.4005 59.2539 75.4205C59.2339 75.4471 59.2073 75.4605 59.1739 75.4605H58.2539ZM67.3039 72.3305C67.3306 72.4971 67.3439 72.6838 67.3439 72.8905L67.3339 73.2005C67.3339 73.2805 67.2939 73.3205 67.2139 73.3205H64.0839C64.0506 73.3205 64.0339 73.3371 64.0339 73.3705C64.0539 73.5905 64.0839 73.7405 64.1239 73.8205C64.2839 74.3005 64.6739 74.5438 65.2939 74.5505C65.7473 74.5505 66.1073 74.3638 66.3739 73.9905C66.4006 73.9505 66.4339 73.9305 66.4739 73.9305C66.5006 73.9305 66.5239 73.9405 66.5439 73.9605L67.1639 74.4705C67.2239 74.5171 67.2339 74.5705 67.1939 74.6305C66.9873 74.9238 66.7106 75.1505 66.3639 75.3105C66.0239 75.4705 65.6439 75.5505 65.2239 75.5505C64.7039 75.5505 64.2606 75.4338 63.8939 75.2005C63.5339 74.9671 63.2706 74.6405 63.1039 74.2205C62.9506 73.8605 62.8739 73.3605 62.8739 72.7205C62.8739 72.3338 62.9139 72.0205 62.9939 71.7805C63.1273 71.3138 63.3806 70.9438 63.7539 70.6705C64.1206 70.4038 64.5639 70.2705 65.0839 70.2705C66.3973 70.2705 67.1373 70.9571 67.3039 72.3305ZM65.0839 71.2705C64.8373 71.2705 64.6306 71.3338 64.4639 71.4605C64.3039 71.5805 64.1906 71.7505 64.1239 71.9705C64.0839 72.0838 64.0573 72.2305 64.0439 72.4105C64.0306 72.4438 64.0439 72.4605 64.0839 72.4605H66.1139C66.1473 72.4605 66.1639 72.4438 66.1639 72.4105C66.1506 72.2438 66.1306 72.1171 66.1039 72.0305C66.0439 71.7905 65.9273 71.6038 65.7539 71.4705C65.5739 71.3371 65.3506 71.2705 65.0839 71.2705ZM71.0139 71.1705C71.0139 71.2038 71.0039 71.2305 70.9839 71.2505C70.9573 71.2771 70.9273 71.2905 70.8939 71.2905H69.8739C69.8406 71.2905 69.8239 71.3071 69.8239 71.3405V73.7505C69.8239 74.0038 69.8806 74.1871 69.9939 74.3005C70.1006 74.4138 70.2739 74.4705 70.5139 74.4705H70.8139C70.8473 74.4705 70.8739 74.4805 70.8939 74.5005C70.9206 74.5271 70.9339 74.5571 70.9339 74.5905V75.3405C70.9339 75.4138 70.8939 75.4571 70.8139 75.4705L70.2939 75.4805C69.7673 75.4805 69.3739 75.3905 69.1139 75.2105C68.8539 75.0305 68.7206 74.6905 68.7139 74.1905V71.3405C68.7139 71.3071 68.6973 71.2905 68.6639 71.2905H68.0939C68.0606 71.2905 68.0339 71.2771 68.0139 71.2505C67.9873 71.2305 67.9739 71.2038 67.9739 71.1705V70.4705C67.9739 70.4371 67.9873 70.4071 68.0139 70.3805C68.0339 70.3605 68.0606 70.3505 68.0939 70.3505H68.6639C68.6973 70.3505 68.7139 70.3338 68.7139 70.3005V69.1305C68.7139 69.0971 68.7273 69.0671 68.7539 69.0405C68.7739 69.0205 68.8006 69.0105 68.8339 69.0105H69.7039C69.7373 69.0105 69.7639 69.0205 69.7839 69.0405C69.8106 69.0671 69.8239 69.0971 69.8239 69.1305V70.3005C69.8239 70.3338 69.8406 70.3505 69.8739 70.3505H70.8939C70.9273 70.3505 70.9573 70.3605 70.9839 70.3805C71.0039 70.4071 71.0139 70.4371 71.0139 70.4705V71.1705Z" fill="white"></path><path d="M40.7538 83.6505C40.7538 83.6839 40.7405 83.7105 40.7138 83.7305C40.6938 83.7572 40.6671 83.7705 40.6338 83.7705H37.3638C37.3305 83.7705 37.3138 83.7872 37.3138 83.8205V85.3705C37.3138 85.4039 37.3305 85.4205 37.3638 85.4205H39.5138C39.5471 85.4205 39.5738 85.4305 39.5938 85.4505C39.6205 85.4772 39.6338 85.5072 39.6338 85.5406V86.5105C39.6338 86.5439 39.6205 86.5739 39.5938 86.6005C39.5738 86.6205 39.5471 86.6305 39.5138 86.6305H37.3638C37.3305 86.6305 37.3138 86.6472 37.3138 86.6805V89.4405C37.3138 89.4739 37.3038 89.5005 37.2838 89.5205C37.2571 89.5472 37.2271 89.5605 37.1938 89.5605H36.0238C35.9905 89.5605 35.9638 89.5472 35.9438 89.5205C35.9171 89.5005 35.9038 89.4739 35.9038 89.4405V82.6805C35.9038 82.6472 35.9171 82.6205 35.9438 82.6005C35.9638 82.5739 35.9905 82.5605 36.0238 82.5605H40.6338C40.6671 82.5605 40.6938 82.5739 40.7138 82.6005C40.7405 82.6205 40.7538 82.6472 40.7538 82.6805V83.6505ZM45.1738 89.5605C45.1071 89.5605 45.0638 89.5272 45.0438 89.4605L44.7438 88.4805C44.7305 88.4539 44.7138 88.4405 44.6938 88.4405H42.2338C42.2138 88.4405 42.1971 88.4539 42.1838 88.4805L41.8938 89.4605C41.8738 89.5272 41.8305 89.5605 41.7638 89.5605H40.4938C40.4538 89.5605 40.4238 89.5472 40.4038 89.5205C40.3838 89.5005 40.3805 89.4672 40.3938 89.4205L42.5538 82.6605C42.5738 82.5939 42.6171 82.5605 42.6838 82.5605H44.2538C44.3205 82.5605 44.3638 82.5939 44.3838 82.6605L46.5438 89.4205C46.5505 89.4339 46.5538 89.4506 46.5538 89.4706C46.5538 89.5306 46.5171 89.5605 46.4438 89.5605H45.1738ZM42.5438 87.2906C42.5371 87.3306 42.5505 87.3505 42.5838 87.3505H44.3438C44.3838 87.3505 44.3971 87.3306 44.3838 87.2906L43.4838 84.3205C43.4771 84.2939 43.4671 84.2805 43.4538 84.2805C43.4405 84.2872 43.4305 84.3005 43.4238 84.3205L42.5438 87.2906ZM47.5538 89.5605C47.5205 89.5605 47.4938 89.5472 47.4738 89.5205C47.4471 89.5005 47.4338 89.4739 47.4338 89.4405V82.6805C47.4338 82.6472 47.4471 82.6205 47.4738 82.6005C47.4938 82.5739 47.5205 82.5605 47.5538 82.5605H48.7238C48.7571 82.5605 48.7871 82.5739 48.8138 82.6005C48.8338 82.6205 48.8438 82.6472 48.8438 82.6805V88.3005C48.8438 88.3339 48.8605 88.3505 48.8938 88.3505H52.1638C52.1971 88.3505 52.2271 88.3605 52.2538 88.3805C52.2738 88.4072 52.2838 88.4372 52.2838 88.4706V89.4405C52.2838 89.4739 52.2738 89.5005 52.2538 89.5205C52.2271 89.5472 52.1971 89.5605 52.1638 89.5605H47.5538ZM53.2738 89.5605C53.2405 89.5605 53.2105 89.5472 53.1838 89.5205C53.1638 89.5005 53.1538 89.4739 53.1538 89.4405V82.6805C53.1538 82.6472 53.1638 82.6205 53.1838 82.6005C53.2105 82.5739 53.2405 82.5605 53.2738 82.5605H54.4438C54.4771 82.5605 54.5038 82.5739 54.5238 82.6005C54.5505 82.6205 54.5638 82.6472 54.5638 82.6805V88.3005C54.5638 88.3339 54.5805 88.3505 54.6138 88.3505H57.8838C57.9171 88.3505 57.9471 88.3605 57.9738 88.3805C57.9938 88.4072 58.0038 88.4372 58.0038 88.4706V89.4405C58.0038 89.4739 57.9938 89.5005 57.9738 89.5205C57.9471 89.5472 57.9171 89.5605 57.8838 89.5605H53.2738ZM37.9438 97.6905C37.9305 97.7039 37.9271 97.7172 37.9338 97.7305C37.9405 97.7439 37.9538 97.7505 37.9738 97.7505H40.6838C40.7171 97.7505 40.7471 97.7605 40.7738 97.7805C40.7938 97.8072 40.8038 97.8372 40.8038 97.8705V98.8405C40.8038 98.8739 40.7938 98.9005 40.7738 98.9205C40.7471 98.9472 40.7171 98.9605 40.6838 98.9605H36.1838C36.1505 98.9605 36.1205 98.9472 36.0938 98.9205C36.0738 98.9005 36.0638 98.8739 36.0638 98.8405V97.9205C36.0638 97.8605 36.0838 97.8105 36.1238 97.7705C36.4505 97.4505 36.7838 97.1039 37.1238 96.7305C37.4638 96.3505 37.6771 96.1139 37.7638 96.0205C37.9505 95.8005 38.1405 95.5905 38.3338 95.3905C38.9405 94.7172 39.2438 94.2172 39.2438 93.8905C39.2438 93.6572 39.1605 93.4639 38.9938 93.3105C38.8271 93.1639 38.6105 93.0905 38.3438 93.0905C38.0771 93.0905 37.8605 93.1639 37.6938 93.3105C37.5271 93.4639 37.4438 93.6639 37.4438 93.9105V94.1605C37.4438 94.1939 37.4305 94.2239 37.4038 94.2505C37.3838 94.2705 37.3571 94.2805 37.3238 94.2805H36.1438C36.1105 94.2805 36.0838 94.2705 36.0638 94.2505C36.0371 94.2239 36.0238 94.1939 36.0238 94.1605V93.6905C36.0438 93.3305 36.1571 93.0105 36.3638 92.7305C36.5705 92.4572 36.8438 92.2472 37.1838 92.1005C37.5305 91.9539 37.9171 91.8805 38.3438 91.8805C38.8171 91.8805 39.2305 91.9672 39.5838 92.1405C39.9305 92.3205 40.2005 92.5605 40.3938 92.8605C40.5805 93.1606 40.6738 93.4939 40.6738 93.8605C40.6738 94.1405 40.6038 94.4272 40.4638 94.7206C40.3238 95.0139 40.1138 95.3305 39.8338 95.6705C39.6271 95.9305 39.4038 96.1872 39.1638 96.4405C38.9238 96.6939 38.5671 97.0606 38.0938 97.5406L37.9438 97.6905ZM44.0538 99.0705C43.3205 99.0705 42.7405 98.8639 42.3138 98.4505C41.8871 98.0439 41.6738 97.4872 41.6738 96.7805V94.1405C41.6738 93.4472 41.8871 92.8972 42.3138 92.4905C42.7405 92.0839 43.3205 91.8805 44.0538 91.8805C44.7871 91.8805 45.3705 92.0839 45.8038 92.4905C46.2305 92.8972 46.4438 93.4472 46.4438 94.1405V96.7805C46.4438 97.4872 46.2305 98.0439 45.8038 98.4505C45.3705 98.8639 44.7871 99.0705 44.0538 99.0705ZM44.0538 97.8605C44.3538 97.8605 44.5938 97.7672 44.7738 97.5805C44.9471 97.4005 45.0338 97.1572 45.0338 96.8505V94.1005C45.0338 93.7939 44.9471 93.5505 44.7738 93.3705C44.5938 93.1839 44.3538 93.0905 44.0538 93.0905C43.7605 93.0905 43.5271 93.1839 43.3538 93.3705C43.1738 93.5505 43.0838 93.7939 43.0838 94.1005V96.8505C43.0838 97.1572 43.1738 97.4005 43.3538 97.5805C43.5271 97.7672 43.7605 97.8605 44.0538 97.8605ZM49.2438 97.6905C49.2305 97.7039 49.2271 97.7172 49.2338 97.7305C49.2405 97.7439 49.2538 97.7505 49.2738 97.7505H51.9838C52.0171 97.7505 52.0471 97.7605 52.0738 97.7805C52.0938 97.8072 52.1038 97.8372 52.1038 97.8705V98.8405C52.1038 98.8739 52.0938 98.9005 52.0738 98.9205C52.0471 98.9472 52.0171 98.9605 51.9838 98.9605H47.4838C47.4505 98.9605 47.4238 98.9472 47.4038 98.9205C47.3771 98.9005 47.3638 98.8739 47.3638 98.8405V97.9205C47.3638 97.8605 47.3838 97.8105 47.4238 97.7705C47.7505 97.4505 48.0838 97.1039 48.4238 96.7305C48.7638 96.3505 48.9771 96.1139 49.0638 96.0205C49.2505 95.8005 49.4405 95.5905 49.6338 95.3905C50.2405 94.7172 50.5438 94.2172 50.5438 93.8905C50.5438 93.6572 50.4605 93.4639 50.2938 93.3105C50.1271 93.1639 49.9105 93.0905 49.6438 93.0905C49.3771 93.0905 49.1605 93.1639 48.9938 93.3105C48.8271 93.4639 48.7438 93.6639 48.7438 93.9105V94.1605C48.7438 94.1939 48.7338 94.2239 48.7138 94.2505C48.6871 94.2705 48.6571 94.2805 48.6238 94.2805H47.4438C47.4105 94.2805 47.3838 94.2705 47.3638 94.2505C47.3371 94.2239 47.3238 94.1939 47.3238 94.1605V93.6905C47.3438 93.3305 47.4571 93.0105 47.6638 92.7305C47.8705 92.4572 48.1471 92.2472 48.4938 92.1005C48.8338 91.9539 49.2171 91.8805 49.6438 91.8805C50.1171 91.8805 50.5305 91.9672 50.8838 92.1405C51.2305 92.3205 51.5005 92.5605 51.6938 92.8605C51.8805 93.1606 51.9738 93.4939 51.9738 93.8605C51.9738 94.1405 51.9038 94.4272 51.7638 94.7206C51.6238 95.0139 51.4138 95.3305 51.1338 95.6705C50.9271 95.9305 50.7038 96.1872 50.4638 96.4405C50.2238 96.6939 49.8671 97.0606 49.3938 97.5406L49.2438 97.6905ZM57.9738 95.9105C58.0071 95.9105 58.0371 95.9205 58.0638 95.9405C58.0838 95.9672 58.0938 95.9972 58.0938 96.0305V97.0406C58.0938 97.0739 58.0838 97.1039 58.0638 97.1305C58.0371 97.1505 58.0071 97.1605 57.9738 97.1605H57.5438C57.5105 97.1605 57.4938 97.1772 57.4938 97.2105V98.8405C57.4938 98.8739 57.4838 98.9005 57.4638 98.9205C57.4371 98.9472 57.4071 98.9605 57.3738 98.9605H56.2038C56.1705 98.9605 56.1438 98.9472 56.1238 98.9205C56.0971 98.9005 56.0838 98.8739 56.0838 98.8405V97.2105C56.0838 97.1772 56.0671 97.1605 56.0338 97.1605H52.9638C52.9305 97.1605 52.9038 97.1505 52.8838 97.1305C52.8571 97.1039 52.8438 97.0739 52.8438 97.0406V96.2405C52.8438 96.2005 52.8538 96.1505 52.8738 96.0905L54.6738 92.0505C54.7005 91.9905 54.7471 91.9605 54.8138 91.9605H56.0638C56.1105 91.9605 56.1438 91.9739 56.1638 92.0005C56.1771 92.0205 56.1738 92.0539 56.1538 92.1005L54.4838 95.8505C54.4771 95.8639 54.4771 95.8772 54.4838 95.8905C54.4905 95.9039 54.5005 95.9105 54.5138 95.9105H56.0338C56.0671 95.9105 56.0838 95.8939 56.0838 95.8605V94.6205C56.0838 94.5872 56.0971 94.5606 56.1238 94.5406C56.1438 94.5139 56.1705 94.5005 56.2038 94.5005H57.3738C57.4071 94.5005 57.4371 94.5139 57.4638 94.5406C57.4838 94.5606 57.4938 94.5872 57.4938 94.6205V95.8605C57.4938 95.8939 57.5105 95.9105 57.5438 95.9105H57.9738Z" fill="#252530"></path></g><defs><clipPath id="clip0_3303_2463"><rect width="94" height="122" fill="white" transform="translate(0.263916 0.0605469)"></rect></clipPath></defs></svg>