<svg width="95" height="123" viewBox="0 0 95 123" fill="none" xmlns="http://www.w3.org/2000/svg" class="IdentifySection-module--icon--ec6d0"><g clip-path="url(#clip0_3303_2419)"><path d="M8.36401 89.9604L47.864 110.06L85.864 89.9604V11.3604H8.36401V89.9604Z" fill="white"></path><path d="M86.664 11.6606L7.56396 91.3606L48.564 111.661L86.664 92.1606V11.6606Z" fill="#F2F3F2"></path><path d="M5.76392 37.5607V91.6607L7.16392 92.3607L46.6639 112.461L47.8639 113.061L49.0639 112.461L87.1639 92.3607L88.5639 91.6607V8.76074H5.76392V37.5607ZM8.36392 90.1607V11.3607H85.9639V90.1607L47.8639 110.261L8.36392 90.1607Z" fill="#DCDEDC"></path><path d="M47.1638 12.6607C47.5638 12.6607 47.9638 12.6607 48.3638 12.7607L47.1638 15.0607C45.3638 14.9607 43.7638 16.3607 43.6638 18.1607C43.5638 19.9607 44.9638 21.5607 46.7638 21.6607H47.1638C47.9638 21.6607 48.7638 21.3607 49.3638 20.8607L50.6638 23.0607C49.6638 23.7607 48.4638 24.1607 47.1638 24.1607C43.9638 24.2607 41.2638 21.8607 41.1638 18.6607C41.0638 15.4607 43.4638 12.7607 46.6638 12.6607H47.1638ZM51.2638 17.5607L52.7638 20.0607L51.2638 22.4607L49.8638 20.0607H46.9638L48.4638 17.5607H51.2638ZM48.8638 16.6607C48.8638 16.2607 48.9638 15.8607 49.1638 15.5607C49.3638 15.2607 49.7638 14.9607 50.0638 14.7607L50.2638 14.6607C50.6638 14.4607 50.7638 14.3607 50.7638 14.1607C50.7638 13.9607 50.4638 13.7607 50.2638 13.7607C49.8638 13.7607 49.5638 13.9607 49.3638 14.3607L48.8638 13.8607C48.9638 13.6607 49.1638 13.4607 49.3638 13.2607C49.6638 13.0607 49.9638 13.0607 50.2638 13.0607C50.5638 13.0607 50.9638 13.1607 51.1638 13.3607C51.3638 13.5607 51.5638 13.8607 51.5638 14.1607C51.5638 14.6607 51.2638 15.0607 50.6638 15.2607L50.3638 15.4607C50.0638 15.6607 49.8638 15.7607 49.7638 16.0607H51.5638V16.7607L48.8638 16.6607ZM47.1638 29.1607L56.6638 23.7607V8.76074H37.5638V23.6607L47.1638 29.1607ZM90.4638 64.5607H3.86382L0.663818 71.5607L3.86382 78.5607H90.4638L93.5638 71.5607L90.4638 64.5607Z" fill="#FF492C"></path><path d="M17.5638 49.5504C18.2238 49.5504 18.8038 49.6837 19.3038 49.9504C19.8038 50.217 20.1905 50.6004 20.4638 51.1004C20.7371 51.5937 20.8738 52.1604 20.8738 52.8004C20.8738 53.4337 20.7338 53.9904 20.4538 54.4704C20.1671 54.9437 19.7671 55.3137 19.2538 55.5804C18.7405 55.847 18.1471 55.9804 17.4738 55.9804H15.3438C15.2971 55.9804 15.2738 56.007 15.2738 56.0604V59.8804C15.2738 59.9337 15.2538 59.977 15.2138 60.0104C15.1805 60.0437 15.1371 60.0604 15.0838 60.0604H13.3338C13.2805 60.0604 13.2371 60.0437 13.2038 60.0104C13.1705 59.977 13.1538 59.9337 13.1538 59.8804V49.7304C13.1538 49.677 13.1705 49.6337 13.2038 49.6004C13.2371 49.567 13.2805 49.5504 13.3338 49.5504H17.5638ZM17.2438 54.2904C17.7105 54.2904 18.0805 54.157 18.3538 53.8904C18.6338 53.6237 18.7738 53.277 18.7738 52.8504C18.7738 52.4037 18.6338 52.047 18.3538 51.7804C18.0805 51.507 17.7105 51.3704 17.2438 51.3704H15.3438C15.2971 51.3704 15.2738 51.397 15.2738 51.4504V54.2104C15.2738 54.2637 15.2971 54.2904 15.3438 54.2904H17.2438ZM28.4438 55.4104C28.4971 55.7903 28.5138 56.2137 28.4938 56.6804C28.4871 56.807 28.4238 56.8704 28.3038 56.8704H23.6738C23.6138 56.8704 23.5905 56.8937 23.6038 56.9404C23.6371 57.1404 23.6938 57.3404 23.7738 57.5404C24.0338 58.1004 24.5638 58.3804 25.3638 58.3804C26.0038 58.3737 26.5071 58.1137 26.8738 57.6004C26.9205 57.5404 26.9671 57.5104 27.0138 57.5104C27.0405 57.5104 27.0738 57.5303 27.1138 57.5704L28.1938 58.6304C28.2471 58.6837 28.2738 58.7304 28.2738 58.7704C28.2738 58.7904 28.2538 58.8304 28.2138 58.8904C27.8805 59.3037 27.4571 59.6204 26.9438 59.8404C26.4171 60.067 25.8438 60.1804 25.2238 60.1804C24.3705 60.1804 23.6438 59.987 23.0438 59.6004C22.4505 59.207 22.0238 58.6604 21.7638 57.9604C21.5505 57.4604 21.4438 56.807 21.4438 56.0004C21.4438 55.447 21.5205 54.9604 21.6738 54.5404C21.9071 53.8337 22.3105 53.2704 22.8838 52.8504C23.4571 52.4304 24.1371 52.2204 24.9238 52.2204C25.9238 52.2204 26.7271 52.5104 27.3338 53.0904C27.9405 53.6704 28.3105 54.4437 28.4438 55.4104ZM24.9438 54.0504C24.3105 54.0504 23.8938 54.3437 23.6938 54.9304C23.6538 55.0637 23.6205 55.2237 23.5938 55.4104C23.5938 55.457 23.6205 55.4804 23.6738 55.4804H26.2638C26.3238 55.4804 26.3438 55.457 26.3238 55.4104C26.2705 55.1237 26.2438 54.9837 26.2438 54.9904C26.1571 54.6904 26.0005 54.457 25.7738 54.2904C25.5538 54.1304 25.2771 54.0504 24.9438 54.0504ZM33.6438 52.2504C34.0038 52.2504 34.2905 52.3204 34.5038 52.4604C34.5771 52.5004 34.6038 52.5737 34.5838 52.6804L34.2738 54.3904C34.2671 54.5104 34.1971 54.547 34.0638 54.5004C33.9105 54.447 33.7371 54.4204 33.5438 54.4204C33.4638 54.4204 33.3505 54.4304 33.2038 54.4504C32.8505 54.4837 32.5471 54.617 32.2938 54.8504C32.0471 55.0837 31.9238 55.397 31.9238 55.7904V59.8804C31.9238 59.9337 31.9038 59.977 31.8638 60.0104C31.8305 60.0437 31.7905 60.0604 31.7438 60.0604H29.9838C29.9371 60.0604 29.8938 60.0437 29.8538 60.0104C29.8205 59.977 29.8038 59.9337 29.8038 59.8804V52.5304C29.8038 52.4837 29.8205 52.4404 29.8538 52.4004C29.8938 52.367 29.9371 52.3504 29.9838 52.3504H31.7438C31.7905 52.3504 31.8305 52.367 31.8638 52.4004C31.9038 52.4404 31.9238 52.4837 31.9238 52.5304V53.1004C31.9238 53.127 31.9338 53.147 31.9538 53.1604C31.9671 53.1737 31.9805 53.167 31.9938 53.1404C32.4071 52.547 32.9571 52.2504 33.6438 52.2504ZM40.0338 52.3404C40.0871 52.3404 40.1305 52.357 40.1638 52.3904C40.1971 52.4237 40.2138 52.467 40.2138 52.5204V53.9404C40.2138 53.9937 40.1971 54.037 40.1638 54.0704C40.1305 54.1037 40.0871 54.1204 40.0338 54.1204H38.5838C38.5305 54.1204 38.5038 54.1437 38.5038 54.1904V59.8804C38.5038 59.9337 38.4871 59.977 38.4538 60.0104C38.4205 60.0437 38.3771 60.0604 38.3238 60.0604H36.5738C36.5205 60.0604 36.4771 60.0437 36.4438 60.0104C36.4105 59.977 36.3938 59.9337 36.3938 59.8804V54.1904C36.3938 54.1437 36.3671 54.1204 36.3138 54.1204H35.4338C35.3805 54.1204 35.3371 54.1037 35.3038 54.0704C35.2705 54.037 35.2538 53.9937 35.2538 53.9404V52.5204C35.2538 52.467 35.2705 52.4237 35.3038 52.3904C35.3371 52.357 35.3805 52.3404 35.4338 52.3404H36.3138C36.3671 52.3404 36.3938 52.3137 36.3938 52.2604V51.9304C36.3938 51.3104 36.4871 50.827 36.6738 50.4804C36.8671 50.1404 37.1738 49.897 37.5938 49.7504C38.0205 49.6037 38.6105 49.5404 39.3638 49.5604H39.9338C39.9805 49.5604 40.0205 49.577 40.0538 49.6104C40.0938 49.6504 40.1138 49.6937 40.1138 49.7404V50.9504C40.1138 51.0037 40.0938 51.047 40.0538 51.0804C40.0205 51.1204 39.9805 51.1404 39.9338 51.1404H39.4338C39.0871 51.147 38.8438 51.217 38.7038 51.3504C38.5705 51.4904 38.5038 51.7404 38.5038 52.1004V52.2604C38.5038 52.3137 38.5305 52.3404 38.5838 52.3404H40.0338ZM44.3838 60.1804C43.5438 60.1804 42.8238 59.9604 42.2238 59.5204C41.6238 59.0804 41.2138 58.4804 40.9938 57.7204C40.8538 57.2537 40.7838 56.7437 40.7838 56.1904C40.7838 55.6037 40.8538 55.0737 40.9938 54.6004C41.2271 53.8604 41.6438 53.2804 42.2438 52.8604C42.8438 52.4404 43.5638 52.2304 44.4038 52.2304C45.2171 52.2304 45.9171 52.437 46.5038 52.8504C47.0771 53.2704 47.4838 53.8504 47.7238 54.5904C47.8905 55.0904 47.9738 55.6137 47.9738 56.1604C47.9738 56.7004 47.9038 57.207 47.7638 57.6804C47.5438 58.4604 47.1338 59.0704 46.5338 59.5104C45.9405 59.957 45.2238 60.1804 44.3838 60.1804ZM44.3838 58.3704C44.7105 58.3704 44.9905 58.2704 45.2238 58.0704C45.4571 57.8703 45.6238 57.5937 45.7238 57.2404C45.7971 56.9204 45.8338 56.5704 45.8338 56.1904C45.8338 55.7704 45.7971 55.417 45.7238 55.1304C45.6105 54.7904 45.4405 54.5237 45.2138 54.3304C44.9805 54.1437 44.6971 54.0504 44.3638 54.0504C44.0305 54.0504 43.7505 54.1437 43.5238 54.3304C43.2971 54.5237 43.1338 54.7904 43.0338 55.1304C42.9538 55.3637 42.9138 55.717 42.9138 56.1904C42.9138 56.6437 42.9505 56.9937 43.0238 57.2404C43.1238 57.5937 43.2905 57.8703 43.5238 58.0704C43.7571 58.2704 44.0438 58.3704 44.3838 58.3704ZM53.1738 52.2504C53.5338 52.2504 53.8205 52.3204 54.0338 52.4604C54.1138 52.5004 54.1405 52.5737 54.1138 52.6804L53.8038 54.3904C53.7971 54.5104 53.7271 54.547 53.5938 54.5004C53.4405 54.447 53.2671 54.4204 53.0738 54.4204C52.9938 54.4204 52.8838 54.4304 52.7438 54.4504C52.3838 54.4837 52.0771 54.617 51.8238 54.8504C51.5771 55.0837 51.4538 55.397 51.4538 55.7904V59.8804C51.4538 59.9337 51.4338 59.977 51.3938 60.0104C51.3605 60.0437 51.3171 60.0604 51.2638 60.0604H49.5138C49.4671 60.0604 49.4238 60.0437 49.3838 60.0104C49.3505 59.977 49.3338 59.9337 49.3338 59.8804V52.5304C49.3338 52.4837 49.3505 52.4404 49.3838 52.4004C49.4238 52.367 49.4671 52.3504 49.5138 52.3504H51.2638C51.3171 52.3504 51.3605 52.367 51.3938 52.4004C51.4338 52.4404 51.4538 52.4837 51.4538 52.5304V53.1004C51.4538 53.127 51.4605 53.147 51.4738 53.1604C51.5005 53.1737 51.5171 53.167 51.5238 53.1404C51.9371 52.547 52.4871 52.2504 53.1738 52.2504ZM63.6238 52.2304C64.4038 52.2304 65.0138 52.4637 65.4538 52.9304C65.8938 53.4037 66.1138 54.067 66.1138 54.9204V59.8804C66.1138 59.9337 66.0971 59.977 66.0638 60.0104C66.0305 60.0437 65.9905 60.0604 65.9438 60.0604H64.1838C64.1371 60.0604 64.0938 60.0437 64.0538 60.0104C64.0205 59.977 64.0038 59.9337 64.0038 59.8804V55.3804C64.0038 54.9737 63.9005 54.6504 63.6938 54.4104C63.4805 54.1704 63.1971 54.0504 62.8438 54.0504C62.4971 54.0504 62.2138 54.1704 61.9938 54.4104C61.7738 54.6504 61.6638 54.9704 61.6638 55.3704V59.8804C61.6638 59.9337 61.6471 59.977 61.6138 60.0104C61.5738 60.0437 61.5305 60.0604 61.4838 60.0604H59.7438C59.6905 60.0604 59.6471 60.0437 59.6138 60.0104C59.5805 59.977 59.5638 59.9337 59.5638 59.8804V55.3804C59.5638 54.9804 59.4538 54.657 59.2338 54.4104C59.0138 54.1704 58.7271 54.0504 58.3738 54.0504C58.0605 54.0504 57.7938 54.1437 57.5738 54.3304C57.3605 54.5237 57.2338 54.7904 57.1938 55.1304V59.8804C57.1938 59.9337 57.1771 59.977 57.1438 60.0104C57.1038 60.0437 57.0605 60.0604 57.0138 60.0604H55.2638C55.2105 60.0604 55.1671 60.0437 55.1338 60.0104C55.1005 59.977 55.0838 59.9337 55.0838 59.8804V52.5304C55.0838 52.4837 55.1005 52.4404 55.1338 52.4004C55.1671 52.367 55.2105 52.3504 55.2638 52.3504H57.0138C57.0605 52.3504 57.1038 52.367 57.1438 52.4004C57.1771 52.4404 57.1938 52.4837 57.1938 52.5304V53.1204C57.1938 53.147 57.2038 53.167 57.2238 53.1804C57.2438 53.187 57.2638 53.1737 57.2838 53.1404C57.6971 52.5337 58.3338 52.2304 59.1938 52.2304C59.6938 52.2304 60.1305 52.337 60.5038 52.5504C60.8771 52.757 61.1638 53.057 61.3638 53.4504C61.3905 53.5104 61.4271 53.5104 61.4738 53.4504C61.6871 53.037 61.9838 52.7304 62.3638 52.5304C62.7371 52.3304 63.1571 52.2304 63.6238 52.2304ZM74.3838 55.4104C74.4438 55.7903 74.4638 56.2137 74.4438 56.6804C74.4305 56.807 74.3638 56.8704 74.2438 56.8704H69.6138C69.5538 56.8704 69.5338 56.8937 69.5538 56.9404C69.5805 57.1404 69.6338 57.3404 69.7138 57.5404C69.9738 58.1004 70.5038 58.3804 71.3038 58.3804C71.9438 58.3737 72.4505 58.1137 72.8238 57.6004C72.8638 57.5404 72.9071 57.5104 72.9538 57.5104C72.9871 57.5104 73.0238 57.5303 73.0638 57.5704L74.1438 58.6304C74.1905 58.6837 74.2138 58.7304 74.2138 58.7704C74.2138 58.7904 74.1938 58.8304 74.1538 58.8904C73.8271 59.3037 73.4038 59.6204 72.8838 59.8404C72.3638 60.067 71.7938 60.1804 71.1738 60.1804C70.3138 60.1804 69.5871 59.987 68.9938 59.6004C68.3938 59.207 67.9638 58.6604 67.7038 57.9604C67.4971 57.4604 67.3938 56.807 67.3938 56.0004C67.3938 55.447 67.4671 54.9604 67.6138 54.5404C67.8471 53.8337 68.2505 53.2704 68.8238 52.8504C69.3971 52.4304 70.0805 52.2204 70.8738 52.2204C71.8738 52.2204 72.6771 52.5104 73.2838 53.0904C73.8905 53.6704 74.2571 54.4437 74.3838 55.4104ZM70.8838 54.0504C70.2571 54.0504 69.8438 54.3437 69.6438 54.9304C69.6038 55.0637 69.5671 55.2237 69.5338 55.4104C69.5338 55.457 69.5605 55.4804 69.6138 55.4804H72.2038C72.2638 55.4804 72.2838 55.457 72.2638 55.4104C72.2171 55.1237 72.1938 54.9837 72.1938 54.9904C72.1005 54.6904 71.9438 54.457 71.7238 54.2904C71.4971 54.1304 71.2171 54.0504 70.8838 54.0504ZM79.5838 52.2504C79.9438 52.2504 80.2305 52.3204 80.4438 52.4604C80.5238 52.5004 80.5538 52.5737 80.5338 52.6804L80.2238 54.3904C80.2105 54.5104 80.1371 54.547 80.0038 54.5004C79.8571 54.447 79.6838 54.4204 79.4838 54.4204C79.4038 54.4204 79.2938 54.4304 79.1538 54.4504C78.7938 54.4837 78.4871 54.617 78.2338 54.8504C77.9871 55.0837 77.8638 55.397 77.8638 55.7904V59.8804C77.8638 59.9337 77.8471 59.977 77.8138 60.0104C77.7738 60.0437 77.7305 60.0604 77.6838 60.0604H75.9238C75.8771 60.0604 75.8371 60.0437 75.8038 60.0104C75.7638 59.977 75.7438 59.9337 75.7438 59.8804V52.5304C75.7438 52.4837 75.7638 52.4404 75.8038 52.4004C75.8371 52.367 75.8771 52.3504 75.9238 52.3504H77.6838C77.7305 52.3504 77.7738 52.367 77.8138 52.4004C77.8471 52.4404 77.8638 52.4837 77.8638 52.5304V53.1004C77.8638 53.127 77.8738 53.147 77.8938 53.1604C77.9138 53.1737 77.9305 53.167 77.9438 53.1404C78.3505 52.547 78.8971 52.2504 79.5838 52.2504ZM38.3238 34.7404C38.3238 34.6937 38.3405 34.6504 38.3738 34.6104C38.4071 34.577 38.4471 34.5604 38.4938 34.5604H40.2538C40.3005 34.5604 40.3438 34.577 40.3838 34.6104C40.4171 34.6504 40.4338 34.6937 40.4338 34.7404V44.8804C40.4338 44.9337 40.4171 44.977 40.3838 45.0104C40.3438 45.0437 40.3005 45.0604 40.2538 45.0604H38.4938C38.4471 45.0604 38.4071 45.0437 38.3738 45.0104C38.3405 44.977 38.3238 44.9337 38.3238 44.8804V40.7404C38.3238 40.6937 38.2971 40.6704 38.2438 40.6704H34.9238C34.8771 40.6704 34.8538 40.6937 34.8538 40.7404V44.8804C34.8538 44.9337 34.8371 44.977 34.8038 45.0104C34.7638 45.0437 34.7205 45.0604 34.6738 45.0604H32.9138C32.8671 45.0604 32.8271 45.0437 32.7938 45.0104C32.7538 44.977 32.7338 44.9337 32.7338 44.8804V34.7404C32.7338 34.6937 32.7538 34.6504 32.7938 34.6104C32.8271 34.577 32.8671 34.5604 32.9138 34.5604H34.6738C34.7205 34.5604 34.7638 34.577 34.8038 34.6104C34.8371 34.6504 34.8538 34.6937 34.8538 34.7404V38.7704C34.8538 38.8237 34.8771 38.8504 34.9238 38.8504H38.2438C38.2971 38.8504 38.3238 38.8237 38.3238 38.7704V34.7404ZM43.1638 36.4804C42.8238 36.4804 42.5405 36.367 42.3138 36.1404C42.0871 35.9204 41.9738 35.6404 41.9738 35.3004C41.9738 34.947 42.0838 34.6604 42.3038 34.4404C42.5238 34.2204 42.8105 34.1104 43.1638 34.1104C43.5171 34.1104 43.8038 34.2204 44.0238 34.4404C44.2438 34.6604 44.3538 34.947 44.3538 35.3004C44.3538 35.6404 44.2405 35.9204 44.0138 36.1404C43.7871 36.367 43.5038 36.4804 43.1638 36.4804ZM42.2638 45.0604C42.2171 45.0604 42.1738 45.0437 42.1338 45.0104C42.1005 44.977 42.0838 44.9337 42.0838 44.8804V37.5204C42.0838 37.467 42.1005 37.4237 42.1338 37.3904C42.1738 37.357 42.2171 37.3404 42.2638 37.3404H44.0238C44.0705 37.3404 44.1105 37.357 44.1438 37.3904C44.1838 37.4237 44.2038 37.467 44.2038 37.5204V44.8804C44.2038 44.9337 44.1838 44.977 44.1438 45.0104C44.1105 45.0437 44.0705 45.0604 44.0238 45.0604H42.2638ZM50.5538 37.5304C50.5538 37.4837 50.5738 37.4404 50.6138 37.4004C50.6471 37.367 50.6871 37.3504 50.7338 37.3504H52.4938C52.5405 37.3504 52.5838 37.367 52.6238 37.4004C52.6571 37.4404 52.6738 37.4837 52.6738 37.5304V44.3704C52.6738 45.677 52.2971 46.6104 51.5438 47.1704C50.7905 47.737 49.8171 48.0204 48.6238 48.0204C48.2705 48.0204 47.8805 47.9937 47.4538 47.9404C47.3538 47.927 47.3038 47.8637 47.3038 47.7504L47.3638 46.2004C47.3638 46.067 47.4338 46.0104 47.5738 46.0304C47.9338 46.0904 48.2638 46.1204 48.5638 46.1204C49.2038 46.1204 49.6971 45.9837 50.0438 45.7104C50.3838 45.4237 50.5538 44.9737 50.5538 44.3604C50.5538 44.327 50.5438 44.307 50.5238 44.3004C50.5038 44.2937 50.4838 44.3037 50.4638 44.3304C50.0838 44.737 49.5305 44.9404 48.8038 44.9404C48.1505 44.9404 47.5538 44.7837 47.0138 44.4704C46.4671 44.157 46.0771 43.6504 45.8438 42.9504C45.6971 42.4904 45.6238 41.8937 45.6238 41.1604C45.6238 40.3804 45.7138 39.747 45.8938 39.2604C46.1005 38.647 46.4538 38.157 46.9538 37.7904C47.4538 37.417 48.0371 37.2304 48.7038 37.2304C49.4705 37.2304 50.0571 37.4604 50.4638 37.9204C50.4838 37.9404 50.5038 37.947 50.5238 37.9404C50.5438 37.9337 50.5538 37.917 50.5538 37.8904V37.5304ZM50.4338 42.3704C50.5138 42.077 50.5538 41.667 50.5538 41.1404C50.5538 40.8337 50.5438 40.597 50.5238 40.4304C50.5038 40.257 50.4705 40.0937 50.4238 39.9404C50.3305 39.6737 50.1805 39.457 49.9738 39.2904C49.7671 39.1304 49.5071 39.0504 49.1938 39.0504C48.8938 39.0504 48.6405 39.1304 48.4338 39.2904C48.2205 39.457 48.0638 39.6737 47.9638 39.9404C47.8238 40.2404 47.7538 40.647 47.7538 41.1604C47.7538 41.7204 47.8138 42.1204 47.9338 42.3604C48.0205 42.6337 48.1771 42.8504 48.4038 43.0104C48.6305 43.177 48.8971 43.2604 49.2038 43.2604C49.5238 43.2604 49.7905 43.177 50.0038 43.0104C50.2105 42.8504 50.3538 42.637 50.4338 42.3704ZM58.2138 37.2304C59.0138 37.2304 59.6571 37.477 60.1438 37.9704C60.6305 38.457 60.8738 39.1204 60.8738 39.9604V44.8804C60.8738 44.9337 60.8571 44.977 60.8238 45.0104C60.7905 45.0437 60.7505 45.0604 60.7038 45.0604H58.9438C58.8971 45.0604 58.8538 45.0437 58.8138 45.0104C58.7805 44.977 58.7638 44.9337 58.7638 44.8804V40.3904C58.7638 39.997 58.6505 39.6737 58.4238 39.4204C58.2038 39.1737 57.9071 39.0504 57.5338 39.0504C57.1671 39.0504 56.8705 39.1737 56.6438 39.4204C56.4171 39.6737 56.3038 39.997 56.3038 40.3904V44.8804C56.3038 44.9337 56.2871 44.977 56.2538 45.0104C56.2205 45.0437 56.1771 45.0604 56.1238 45.0604H54.3738C54.3205 45.0604 54.2771 45.0437 54.2438 45.0104C54.2105 44.977 54.1938 44.9337 54.1938 44.8804V34.7404C54.1938 34.6937 54.2105 34.6504 54.2438 34.6104C54.2771 34.577 54.3205 34.5604 54.3738 34.5604H56.1238C56.1771 34.5604 56.2205 34.577 56.2538 34.6104C56.2871 34.6504 56.3038 34.6937 56.3038 34.7404V38.0604C56.3038 38.087 56.3138 38.107 56.3338 38.1204C56.3538 38.127 56.3671 38.1204 56.3738 38.1004C56.7871 37.5204 57.4005 37.2304 58.2138 37.2304Z" fill="#252530"></path><path d="M40.7239 69.3404C40.7239 69.3738 40.7106 69.4004 40.6839 69.4204C40.6639 69.4471 40.6372 69.4604 40.6039 69.4604H37.2039C37.1706 69.4604 37.1539 69.4771 37.1539 69.5104V71.3804C37.1539 71.4138 37.1706 71.4305 37.2039 71.4305H39.4939C39.5272 71.4305 39.5572 71.4404 39.5839 71.4604C39.6039 71.4871 39.6139 71.5171 39.6139 71.5504V72.3104C39.6139 72.3438 39.6039 72.3738 39.5839 72.4004C39.5572 72.4204 39.5272 72.4305 39.4939 72.4305H37.2039C37.1706 72.4305 37.1539 72.4471 37.1539 72.4804V75.3404C37.1539 75.3738 37.1406 75.4004 37.1139 75.4204C37.0939 75.4471 37.0672 75.4604 37.0339 75.4604H36.1139C36.0806 75.4604 36.0539 75.4471 36.0339 75.4204C36.0072 75.4004 35.9939 75.3738 35.9939 75.3404V68.5804C35.9939 68.5471 36.0072 68.5205 36.0339 68.5005C36.0539 68.4738 36.0806 68.4604 36.1139 68.4604H40.6039C40.6372 68.4604 40.6639 68.4738 40.6839 68.5005C40.7106 68.5205 40.7239 68.5471 40.7239 68.5804V69.3404ZM45.2839 75.4604C45.2172 75.4604 45.1739 75.4271 45.1539 75.3605L44.8239 74.2905C44.8106 74.2638 44.7939 74.2505 44.7739 74.2505H42.1339C42.1139 74.2505 42.0972 74.2638 42.0839 74.2905L41.7539 75.3605C41.7339 75.4271 41.6906 75.4604 41.6239 75.4604H40.6239C40.5839 75.4604 40.5539 75.4471 40.5339 75.4204C40.5139 75.4004 40.5106 75.3671 40.5239 75.3204L42.6939 68.5604C42.7139 68.4938 42.7572 68.4604 42.8239 68.4604H44.0739C44.1406 68.4604 44.1839 68.4938 44.2039 68.5604L46.3839 75.3204C46.3906 75.3338 46.3939 75.3504 46.3939 75.3704C46.3939 75.4304 46.3572 75.4604 46.2839 75.4604H45.2839ZM42.3939 73.2804C42.3872 73.3204 42.4006 73.3404 42.4339 73.3404H44.4639C44.5039 73.3404 44.5172 73.3204 44.5039 73.2804L43.4739 69.9305C43.4672 69.9038 43.4572 69.8904 43.4439 69.8904C43.4306 69.8904 43.4206 69.9038 43.4139 69.9305L42.3939 73.2804ZM47.5439 75.4604C47.5106 75.4604 47.4839 75.4471 47.4639 75.4204C47.4372 75.4004 47.4239 75.3738 47.4239 75.3404V68.5804C47.4239 68.5471 47.4372 68.5205 47.4639 68.5005C47.4839 68.4738 47.5106 68.4604 47.5439 68.4604H48.4639C48.4972 68.4604 48.5272 68.4738 48.5539 68.5005C48.5739 68.5205 48.5839 68.5471 48.5839 68.5804V74.4104C48.5839 74.4438 48.6006 74.4604 48.6339 74.4604H51.9839C52.0172 74.4604 52.0439 74.4738 52.0639 74.5005C52.0906 74.5205 52.1039 74.5471 52.1039 74.5804V75.3404C52.1039 75.3738 52.0906 75.4004 52.0639 75.4204C52.0439 75.4471 52.0172 75.4604 51.9839 75.4604H47.5439ZM53.2539 75.4604C53.2206 75.4604 53.1939 75.4471 53.1739 75.4204C53.1472 75.4004 53.1339 75.3738 53.1339 75.3404V68.5804C53.1339 68.5471 53.1472 68.5205 53.1739 68.5005C53.1939 68.4738 53.2206 68.4604 53.2539 68.4604H54.1739C54.2072 68.4604 54.2372 68.4738 54.2639 68.5005C54.2839 68.5205 54.2939 68.5471 54.2939 68.5804V74.4104C54.2939 74.4438 54.3106 74.4604 54.3439 74.4604H57.6939C57.7272 74.4604 57.7572 74.4738 57.7839 74.5005C57.8039 74.5205 57.8139 74.5471 57.8139 74.5804V75.3404C57.8139 75.3738 57.8039 75.4004 57.7839 75.4204C57.7572 75.4471 57.7272 75.4604 57.6939 75.4604H53.2539Z" fill="white"></path><path d="M33.7539 93.5203C33.7339 93.5403 33.7272 93.5603 33.7339 93.5803C33.7472 93.6003 33.7672 93.6103 33.7939 93.6103H37.7239C37.7705 93.6103 37.8105 93.627 37.8439 93.6603C37.8839 93.6937 37.9039 93.7337 37.9039 93.7803V95.1903C37.9039 95.237 37.8839 95.277 37.8439 95.3103C37.8105 95.3437 37.7705 95.3603 37.7239 95.3603H31.2039C31.1505 95.3603 31.1072 95.3437 31.0739 95.3103C31.0405 95.277 31.0239 95.237 31.0239 95.1903V93.8503C31.0239 93.7637 31.0539 93.6903 31.1139 93.6303C31.5872 93.1703 32.0705 92.667 32.5639 92.1203C33.0572 91.5737 33.3672 91.2337 33.4939 91.1003C33.7605 90.7803 34.0339 90.4737 34.3139 90.1803C35.1939 89.207 35.6339 88.4837 35.6339 88.0103C35.6339 87.6703 35.5139 87.3903 35.2739 87.1703C35.0339 86.957 34.7205 86.8503 34.3339 86.8503C33.9472 86.8503 33.6339 86.957 33.3939 87.1703C33.1472 87.3903 33.0239 87.6803 33.0239 88.0403V88.4003C33.0239 88.447 33.0072 88.487 32.9739 88.5203C32.9405 88.5537 32.9005 88.5703 32.8539 88.5703H31.1439C31.0972 88.5703 31.0572 88.5537 31.0239 88.5203C30.9839 88.487 30.9639 88.447 30.9639 88.4003V87.7203C30.9972 87.2003 31.1639 86.737 31.4639 86.3303C31.7639 85.9303 32.1605 85.6237 32.6539 85.4103C33.1539 85.197 33.7139 85.0903 34.3339 85.0903C35.0205 85.0903 35.6172 85.2203 36.1239 85.4803C36.6305 85.7337 37.0205 86.077 37.2939 86.5103C37.5739 86.9503 37.7139 87.4337 37.7139 87.9603C37.7139 88.367 37.6105 88.7837 37.4039 89.2103C37.2039 89.637 36.9005 90.097 36.4939 90.5903C36.1939 90.9637 35.8705 91.337 35.5239 91.7103C35.1772 92.077 34.6605 92.607 33.9739 93.3003L33.7539 93.5203ZM42.6139 95.5203C41.5472 95.5203 40.7072 95.2237 40.0939 94.6303C39.4739 94.037 39.1639 93.227 39.1639 92.2003V88.3703C39.1639 87.3637 39.4739 86.567 40.0939 85.9803C40.7072 85.387 41.5472 85.0903 42.6139 85.0903C43.6739 85.0903 44.5172 85.387 45.1439 85.9803C45.7639 86.567 46.0739 87.3637 46.0739 88.3703V92.2003C46.0739 93.227 45.7639 94.037 45.1439 94.6303C44.5172 95.2237 43.6739 95.5203 42.6139 95.5203ZM42.6139 93.7703C43.0472 93.7703 43.3905 93.637 43.6439 93.3703C43.9039 93.1037 44.0339 92.747 44.0339 92.3003V88.3103C44.0339 87.8703 43.9039 87.517 43.6439 87.2503C43.3905 86.9837 43.0472 86.8503 42.6139 86.8503C42.1872 86.8503 41.8472 86.9837 41.5939 87.2503C41.3339 87.517 41.2039 87.8703 41.2039 88.3103V92.3003C41.2039 92.747 41.3339 93.1037 41.5939 93.3703C41.8472 93.637 42.1872 93.7703 42.6139 93.7703ZM50.1339 93.5203C50.1139 93.5403 50.1105 93.5603 50.1239 93.5803C50.1305 93.6003 50.1505 93.6103 50.1839 93.6103H54.1139C54.1605 93.6103 54.2005 93.627 54.2339 93.6603C54.2672 93.6937 54.2839 93.7337 54.2839 93.7803V95.1903C54.2839 95.237 54.2672 95.277 54.2339 95.3103C54.2005 95.3437 54.1605 95.3603 54.1139 95.3603H47.5839C47.5372 95.3603 47.4972 95.3437 47.4639 95.3103C47.4305 95.277 47.4139 95.237 47.4139 95.1903V93.8503C47.4139 93.7637 47.4405 93.6903 47.4939 93.6303C47.9739 93.1703 48.4572 92.667 48.9439 92.1203C49.4372 91.5737 49.7472 91.2337 49.8739 91.1003C50.1472 90.7803 50.4239 90.4737 50.7039 90.1803C51.5839 89.207 52.0239 88.4837 52.0239 88.0103C52.0239 87.6703 51.9039 87.3903 51.6639 87.1703C51.4172 86.957 51.1005 86.8503 50.7139 86.8503C50.3272 86.8503 50.0139 86.957 49.7739 87.1703C49.5339 87.3903 49.4139 87.6803 49.4139 88.0403V88.4003C49.4139 88.447 49.3972 88.487 49.3639 88.5203C49.3305 88.5537 49.2872 88.5703 49.2339 88.5703H47.5239C47.4772 88.5703 47.4372 88.5537 47.4039 88.5203C47.3705 88.487 47.3539 88.447 47.3539 88.4003V87.7203C47.3805 87.2003 47.5439 86.737 47.8439 86.3303C48.1439 85.9303 48.5439 85.6237 49.0439 85.4103C49.5439 85.197 50.1005 85.0903 50.7139 85.0903C51.4005 85.0903 51.9972 85.2203 52.5039 85.4803C53.0172 85.7337 53.4105 86.077 53.6839 86.5103C53.9572 86.9503 54.0939 87.4337 54.0939 87.9603C54.0939 88.367 53.9939 88.7837 53.7939 89.2103C53.5872 89.637 53.2805 90.097 52.8739 90.5903C52.5739 90.9637 52.2505 91.337 51.9039 91.7103C51.5572 92.077 51.0405 92.607 50.3539 93.3003L50.1339 93.5203ZM62.7939 90.9403C62.8405 90.9403 62.8839 90.957 62.9239 90.9903C62.9572 91.0237 62.9739 91.0637 62.9739 91.1103V92.5803C62.9739 92.627 62.9572 92.667 62.9239 92.7003C62.8839 92.7337 62.8405 92.7503 62.7939 92.7503H62.1739C62.1272 92.7503 62.1039 92.7737 62.1039 92.8203V95.1903C62.1039 95.237 62.0872 95.277 62.0539 95.3103C62.0139 95.3437 61.9705 95.3603 61.9239 95.3603H60.2339C60.1805 95.3603 60.1372 95.3437 60.1039 95.3103C60.0705 95.277 60.0539 95.237 60.0539 95.1903V92.8203C60.0539 92.7737 60.0305 92.7503 59.9839 92.7503H55.5339C55.4872 92.7503 55.4439 92.7337 55.4039 92.7003C55.3705 92.667 55.3539 92.627 55.3539 92.5803V91.4203C55.3539 91.3603 55.3705 91.287 55.4039 91.2003L58.0139 85.3403C58.0539 85.2537 58.1205 85.2103 58.2139 85.2103H60.0239C60.0905 85.2103 60.1372 85.227 60.1639 85.2603C60.1905 85.2937 60.1872 85.3437 60.1539 85.4103L57.7339 90.8503C57.7272 90.8703 57.7272 90.8903 57.7339 90.9103C57.7472 90.9303 57.7639 90.9403 57.7839 90.9403H59.9839C60.0305 90.9403 60.0539 90.9137 60.0539 90.8603V89.0703C60.0539 89.017 60.0705 88.9737 60.1039 88.9403C60.1372 88.907 60.1805 88.8903 60.2339 88.8903H61.9239C61.9705 88.8903 62.0139 88.907 62.0539 88.9403C62.0872 88.9737 62.1039 89.017 62.1039 89.0703V90.8603C62.1039 90.9137 62.1272 90.9403 62.1739 90.9403H62.7939Z" fill="#252530"></path></g><defs><clipPath id="clip0_3303_2419"><rect width="94" height="122" fill="white" transform="translate(0.263916 0.0605469)"></rect></clipPath></defs></svg>