<svg width="95" height="123" viewBox="0 0 95 123" fill="none" xmlns="http://www.w3.org/2000/svg" class="IdentifySection-module--icon--ec6d0"><g clip-path="url(#clip0_3303_2247)"><path d="M8.36401 89.9604L47.864 110.06L85.864 89.9604V11.3604H8.36401V89.9604Z" fill="white"></path><path d="M86.664 11.6606L7.56396 91.3606L48.564 111.661L86.664 92.1606V11.6606Z" fill="#F2F3F2"></path><path d="M5.76392 37.5607V91.6607L7.16392 92.3607L46.6639 112.461L47.8639 113.061L49.0639 112.461L87.1639 92.3607L88.5639 91.6607V8.76074H5.76392V37.5607ZM8.36392 90.1607V11.3607H85.9639V90.1607L47.8639 110.261L8.36392 90.1607Z" fill="#DCDEDC"></path><path d="M47.164 12.6607C47.564 12.6607 47.964 12.6607 48.364 12.7607L47.164 15.0607C45.364 14.9607 43.764 16.3607 43.664 18.1607C43.564 19.9607 44.964 21.5607 46.764 21.6607H47.164C47.964 21.6607 48.764 21.3607 49.364 20.8607L50.664 23.0607C49.664 23.7607 48.464 24.1607 47.164 24.1607C43.964 24.2607 41.264 21.8607 41.164 18.6607C41.064 15.4607 43.464 12.7607 46.664 12.6607H47.164ZM51.264 17.5607L52.764 20.0607L51.264 22.4607L49.864 20.0607H46.964L48.464 17.5607H51.264ZM48.864 16.6607C48.864 16.2607 48.964 15.8607 49.164 15.5607C49.364 15.2607 49.764 14.9607 50.064 14.7607L50.264 14.6607C50.664 14.4607 50.764 14.3607 50.764 14.1607C50.764 13.9607 50.464 13.7607 50.264 13.7607C49.864 13.7607 49.564 13.9607 49.364 14.3607L48.864 13.8607C48.964 13.6607 49.164 13.4607 49.364 13.2607C49.664 13.0607 49.964 13.0607 50.264 13.0607C50.564 13.0607 50.964 13.1607 51.164 13.3607C51.364 13.5607 51.564 13.8607 51.564 14.1607C51.564 14.6607 51.264 15.0607 50.664 15.2607L50.364 15.4607C50.064 15.6607 49.864 15.7607 49.764 16.0607H51.564V16.7607L48.864 16.6607ZM47.164 29.1607L56.664 23.7607V8.76074H37.564V23.6607L47.164 29.1607Z" fill="#FF492C"></path><path d="M90.4638 64.5605H3.86382L0.663818 71.5605L3.86382 78.5605H90.4638L93.5638 71.5605L90.4638 64.5605Z" fill="#2690CE"></path><path d="M11.0338 60.0604C11.0005 60.0604 10.9705 60.047 10.9438 60.0204C10.9171 59.9937 10.9038 59.9637 10.9038 59.9304V52.4904C10.9038 52.457 10.9171 52.427 10.9438 52.4004C10.9705 52.3737 11.0005 52.3604 11.0338 52.3604H12.3238C12.3638 52.3604 12.3938 52.3737 12.4138 52.4004C12.4405 52.427 12.4538 52.457 12.4538 52.4904V59.9304C12.4538 59.9637 12.4405 59.9937 12.4138 60.0204C12.3938 60.047 12.3638 60.0604 12.3238 60.0604H11.0338ZM19.9638 54.3204C20.5371 54.3204 20.9871 54.4937 21.3138 54.8404C21.6338 55.1804 21.7938 55.6637 21.7938 56.2904V59.9304C21.7938 59.9637 21.7805 59.9937 21.7538 60.0204C21.7271 60.047 21.6971 60.0604 21.6638 60.0604H20.3738C20.3405 60.0604 20.3105 60.047 20.2838 60.0204C20.2571 59.9937 20.2438 59.9637 20.2438 59.9304V56.6304C20.2438 56.3304 20.1671 56.0904 20.0138 55.9104C19.8605 55.737 19.6538 55.6504 19.3938 55.6504C19.1405 55.6504 18.9338 55.737 18.7738 55.9104C18.6071 56.0904 18.5238 56.327 18.5238 56.6204V59.9304C18.5238 59.9637 18.5138 59.9937 18.4938 60.0204C18.4671 60.047 18.4338 60.0604 18.3938 60.0604H17.1238C17.0838 60.0604 17.0505 60.047 17.0238 60.0204C16.9971 59.9937 16.9838 59.9637 16.9838 59.9304V56.6304C16.9838 56.337 16.9038 56.1004 16.7438 55.9204C16.5838 55.7404 16.3738 55.6504 16.1138 55.6504C15.8805 55.6504 15.6871 55.7204 15.5338 55.8604C15.3738 56.0004 15.2805 56.1937 15.2538 56.4404V59.9304C15.2538 59.9637 15.2405 59.9937 15.2138 60.0204C15.1871 60.047 15.1538 60.0604 15.1138 60.0604H13.8338C13.7938 60.0604 13.7605 60.047 13.7338 60.0204C13.7071 59.9937 13.6938 59.9637 13.6938 59.9304V54.5404C13.6938 54.5004 13.7071 54.467 13.7338 54.4404C13.7605 54.4204 13.7938 54.4104 13.8338 54.4104H15.1138C15.1538 54.4104 15.1871 54.4204 15.2138 54.4404C15.2405 54.467 15.2538 54.5004 15.2538 54.5404V54.9704C15.2538 54.9904 15.2605 55.0037 15.2738 55.0104C15.2871 55.017 15.3005 55.0104 15.3138 54.9904C15.6138 54.5437 16.0805 54.3204 16.7138 54.3204C17.0805 54.3204 17.4005 54.397 17.6738 54.5504C17.9471 54.7037 18.1571 54.9237 18.3038 55.2104C18.3305 55.2504 18.3571 55.2504 18.3838 55.2104C18.5438 54.9104 18.7638 54.687 19.0438 54.5404C19.3171 54.3937 19.6238 54.3204 19.9638 54.3204ZM27.9338 55.9204C28.0671 56.3004 28.1338 56.7404 28.1338 57.2404C28.1338 57.747 28.0638 58.207 27.9238 58.6204C27.7505 59.087 27.4838 59.4604 27.1238 59.7404C26.7638 60.0137 26.3138 60.1504 25.7738 60.1504C25.2471 60.1504 24.8371 59.967 24.5438 59.6004C24.5305 59.5804 24.5171 59.5737 24.5038 59.5804C24.4838 59.587 24.4738 59.6004 24.4738 59.6204V61.9704C24.4738 62.0104 24.4638 62.0437 24.4438 62.0704C24.4171 62.097 24.3838 62.1104 24.3438 62.1104H23.0638C23.0238 62.1104 22.9905 62.097 22.9638 62.0704C22.9371 62.0437 22.9238 62.0104 22.9238 61.9704V54.5404C22.9238 54.5004 22.9371 54.467 22.9638 54.4404C22.9905 54.4204 23.0238 54.4104 23.0638 54.4104H24.3438C24.3838 54.4104 24.4171 54.4204 24.4438 54.4404C24.4638 54.467 24.4738 54.5004 24.4738 54.5404V54.9004C24.4738 54.9204 24.4838 54.9337 24.5038 54.9404C24.5171 54.947 24.5305 54.9404 24.5438 54.9204C24.8505 54.5204 25.2771 54.3204 25.8238 54.3204C26.3305 54.3204 26.7671 54.4604 27.1338 54.7404C27.5071 55.027 27.7738 55.4204 27.9338 55.9204ZM26.2538 58.3904C26.4338 58.1037 26.5238 57.7137 26.5238 57.2204C26.5238 56.7604 26.4471 56.3937 26.2938 56.1204C26.1271 55.807 25.8571 55.6504 25.4838 55.6504C25.1438 55.6504 24.8905 55.807 24.7238 56.1204C24.5705 56.387 24.4938 56.757 24.4938 57.2304C24.4938 57.7237 24.5738 58.107 24.7338 58.3804C24.9005 58.6737 25.1505 58.8204 25.4838 58.8204C25.8105 58.8204 26.0671 58.677 26.2538 58.3904ZM29.2638 60.0604C29.2305 60.0604 29.2005 60.047 29.1738 60.0204C29.1471 59.9937 29.1338 59.9637 29.1338 59.9304V52.4904C29.1338 52.457 29.1471 52.427 29.1738 52.4004C29.2005 52.3737 29.2305 52.3604 29.2638 52.3604H30.5538C30.5871 52.3604 30.6171 52.3737 30.6438 52.4004C30.6705 52.427 30.6838 52.457 30.6838 52.4904V59.9304C30.6838 59.9637 30.6705 59.9937 30.6438 60.0204C30.6171 60.047 30.5871 60.0604 30.5538 60.0604H29.2638ZM36.8238 56.6504C36.8638 56.9304 36.8771 57.2437 36.8638 57.5904C36.8571 57.677 36.8105 57.7204 36.7238 57.7204H33.3238C33.2771 57.7204 33.2638 57.737 33.2838 57.7704C33.3038 57.917 33.3438 58.0637 33.4038 58.2104C33.5905 58.6237 33.9771 58.8304 34.5638 58.8304C35.0371 58.8237 35.4071 58.6337 35.6738 58.2604C35.7071 58.2137 35.7405 58.1904 35.7738 58.1904C35.8005 58.1904 35.8271 58.2037 35.8538 58.2304L36.6438 59.0204C36.6838 59.0537 36.7038 59.0837 36.7038 59.1104C36.7038 59.1304 36.6871 59.1604 36.6538 59.2004C36.4138 59.5004 36.1038 59.7337 35.7238 59.9004C35.3438 60.067 34.9238 60.1504 34.4638 60.1504C33.8371 60.1504 33.3038 60.007 32.8638 59.7204C32.4305 59.4337 32.1171 59.0337 31.9238 58.5204C31.7705 58.1537 31.6938 57.6737 31.6938 57.0804C31.6938 56.6737 31.7505 56.317 31.8638 56.0104C32.0305 55.4904 32.3238 55.077 32.7438 54.7704C33.1638 54.4637 33.6638 54.3104 34.2438 54.3104C34.9771 54.3104 35.5671 54.5237 36.0138 54.9504C36.4538 55.3704 36.7238 55.937 36.8238 56.6504ZM34.2538 55.6504C33.7938 55.6504 33.4905 55.867 33.3438 56.3004C33.3171 56.3937 33.2905 56.5104 33.2638 56.6504C33.2638 56.6904 33.2838 56.7104 33.3238 56.7104H35.2238C35.2705 56.7104 35.2871 56.6904 35.2738 56.6504C35.2338 56.437 35.2138 56.3337 35.2138 56.3404C35.1471 56.1204 35.0305 55.9504 34.8638 55.8304C34.7038 55.7104 34.5005 55.6504 34.2538 55.6504ZM44.0938 54.3204C44.6671 54.3204 45.1138 54.4937 45.4338 54.8404C45.7538 55.1804 45.9138 55.6637 45.9138 56.2904V59.9304C45.9138 59.9637 45.9038 59.9937 45.8838 60.0204C45.8571 60.047 45.8238 60.0604 45.7838 60.0604H44.5038C44.4638 60.0604 44.4305 60.047 44.4038 60.0204C44.3771 59.9937 44.3638 59.9637 44.3638 59.9304V56.6304C44.3638 56.3304 44.2871 56.0904 44.1338 55.9104C43.9805 55.737 43.7771 55.6504 43.5238 55.6504C43.2638 55.6504 43.0538 55.737 42.8938 55.9104C42.7338 56.0904 42.6538 56.327 42.6538 56.6204V59.9304C42.6538 59.9637 42.6405 59.9937 42.6138 60.0204C42.5871 60.047 42.5571 60.0604 42.5238 60.0604H41.2438C41.2038 60.0604 41.1738 60.047 41.1538 60.0204C41.1271 59.9937 41.1138 59.9637 41.1138 59.9304V56.6304C41.1138 56.337 41.0338 56.1004 40.8738 55.9204C40.7071 55.7404 40.4971 55.6504 40.2438 55.6504C40.0105 55.6504 39.8138 55.7204 39.6538 55.8604C39.4938 56.0004 39.4005 56.1937 39.3738 56.4404V59.9304C39.3738 59.9637 39.3605 59.9937 39.3338 60.0204C39.3071 60.047 39.2771 60.0604 39.2438 60.0604H37.9538C37.9205 60.0604 37.8905 60.047 37.8638 60.0204C37.8371 59.9937 37.8238 59.9637 37.8238 59.9304V54.5404C37.8238 54.5004 37.8371 54.467 37.8638 54.4404C37.8905 54.4204 37.9205 54.4104 37.9538 54.4104H39.2438C39.2771 54.4104 39.3071 54.4204 39.3338 54.4404C39.3605 54.467 39.3738 54.5004 39.3738 54.5404V54.9704C39.3738 54.9904 39.3805 55.0037 39.3938 55.0104C39.4071 55.017 39.4238 55.0104 39.4438 54.9904C39.7438 54.5437 40.2071 54.3204 40.8338 54.3204C41.2005 54.3204 41.5205 54.397 41.7938 54.5504C42.0738 54.7037 42.2871 54.9237 42.4338 55.2104C42.4538 55.2504 42.4771 55.2504 42.5038 55.2104C42.6705 54.9104 42.8905 54.687 43.1638 54.5404C43.4371 54.3937 43.7471 54.3204 44.0938 54.3204ZM51.9738 56.6504C52.0205 56.9304 52.0371 57.2437 52.0238 57.5904C52.0171 57.677 51.9705 57.7204 51.8838 57.7204H48.4838C48.4371 57.7204 48.4205 57.737 48.4338 57.7704C48.4605 57.917 48.5005 58.0637 48.5538 58.2104C48.7471 58.6237 49.1371 58.8304 49.7238 58.8304C50.1905 58.8237 50.5605 58.6337 50.8338 58.2604C50.8605 58.2137 50.8938 58.1904 50.9338 58.1904C50.9538 58.1904 50.9805 58.2037 51.0138 58.2304L51.8038 59.0204C51.8371 59.0537 51.8538 59.0837 51.8538 59.1104C51.8538 59.1304 51.8405 59.1604 51.8138 59.2004C51.5738 59.5004 51.2605 59.7337 50.8738 59.9004C50.4938 60.067 50.0771 60.1504 49.6238 60.1504C48.9971 60.1504 48.4638 60.007 48.0238 59.7204C47.5905 59.4337 47.2771 59.0337 47.0838 58.5204C46.9305 58.1537 46.8538 57.6737 46.8538 57.0804C46.8538 56.6737 46.9071 56.317 47.0138 56.0104C47.1871 55.4904 47.4838 55.077 47.9038 54.7704C48.3238 54.4637 48.8238 54.3104 49.4038 54.3104C50.1371 54.3104 50.7271 54.5237 51.1738 54.9504C51.6138 55.3704 51.8805 55.937 51.9738 56.6504ZM49.4138 55.6504C48.9538 55.6504 48.6505 55.867 48.5038 56.3004C48.4771 56.3937 48.4505 56.5104 48.4238 56.6504C48.4238 56.6904 48.4438 56.7104 48.4838 56.7104H50.3838C50.4305 56.7104 50.4438 56.6904 50.4238 56.6504C50.3905 56.437 50.3738 56.3337 50.3738 56.3404C50.3071 56.1204 50.1905 55.9504 50.0238 55.8304C49.8638 55.7104 49.6605 55.6504 49.4138 55.6504ZM55.9238 54.3204C56.5105 54.3204 56.9838 54.5004 57.3438 54.8604C57.7038 55.2204 57.8838 55.707 57.8838 56.3204V59.9304C57.8838 59.9637 57.8705 59.9937 57.8438 60.0204C57.8238 60.047 57.7938 60.0604 57.7538 60.0604H56.4638C56.4305 60.0604 56.4005 60.047 56.3738 60.0204C56.3471 59.9937 56.3338 59.9637 56.3338 59.9304V56.6404C56.3338 56.347 56.2505 56.107 56.0838 55.9204C55.9238 55.7404 55.7071 55.6504 55.4338 55.6504C55.1605 55.6504 54.9405 55.7404 54.7738 55.9204C54.6138 56.107 54.5338 56.347 54.5338 56.6404V59.9304C54.5338 59.9637 54.5205 59.9937 54.4938 60.0204C54.4671 60.047 54.4338 60.0604 54.3938 60.0604H53.1138C53.0738 60.0604 53.0405 60.047 53.0138 60.0204C52.9938 59.9937 52.9838 59.9637 52.9838 59.9304V54.5404C52.9838 54.5004 52.9938 54.467 53.0138 54.4404C53.0405 54.4204 53.0738 54.4104 53.1138 54.4104H54.3938C54.4338 54.4104 54.4671 54.4204 54.4938 54.4404C54.5205 54.467 54.5338 54.5004 54.5338 54.5404V54.9204C54.5338 54.947 54.5405 54.9637 54.5538 54.9704C54.5671 54.977 54.5771 54.9737 54.5838 54.9604C54.8838 54.5337 55.3305 54.3204 55.9238 54.3204ZM62.2438 55.5204C62.2438 55.5537 62.2305 55.5837 62.2038 55.6104C62.1771 55.637 62.1471 55.6504 62.1138 55.6504H61.0538C61.0205 55.6504 61.0038 55.667 61.0038 55.7004V58.0404C61.0038 58.2804 61.0505 58.4604 61.1438 58.5804C61.2438 58.6937 61.4038 58.7504 61.6238 58.7504H61.9938C62.0271 58.7504 62.0571 58.7637 62.0838 58.7904C62.1105 58.817 62.1238 58.847 62.1238 58.8804V59.9304C62.1238 60.0104 62.0805 60.057 61.9938 60.0704C61.6805 60.0837 61.4571 60.0904 61.3238 60.0904C60.7171 60.0904 60.2638 59.9904 59.9638 59.7904C59.6638 59.5904 59.5105 59.2104 59.5038 58.6504V55.7004C59.5038 55.667 59.4838 55.6504 59.4438 55.6504H58.8238C58.7838 55.6504 58.7505 55.637 58.7238 55.6104C58.7038 55.5837 58.6938 55.5537 58.6938 55.5204V54.5404C58.6938 54.5004 58.7038 54.467 58.7238 54.4404C58.7505 54.4204 58.7838 54.4104 58.8238 54.4104H59.4438C59.4838 54.4104 59.5038 54.3904 59.5038 54.3504V53.0404C59.5038 53.007 59.5171 52.977 59.5438 52.9504C59.5705 52.9237 59.6005 52.9104 59.6338 52.9104H60.8638C60.9038 52.9104 60.9371 52.9237 60.9638 52.9504C60.9905 52.977 61.0038 53.007 61.0038 53.0404V54.3504C61.0038 54.3904 61.0205 54.4104 61.0538 54.4104H62.1138C62.1471 54.4104 62.1771 54.4204 62.2038 54.4404C62.2305 54.467 62.2438 54.5004 62.2438 54.5404V55.5204ZM65.4338 54.3204C65.9071 54.3204 66.3305 54.4037 66.7038 54.5704C67.0838 54.7304 67.3771 54.9537 67.5838 55.2404C67.7905 55.527 67.8938 55.847 67.8938 56.2004V59.9304C67.8938 59.9637 67.8805 59.9937 67.8538 60.0204C67.8338 60.047 67.8038 60.0604 67.7638 60.0604H66.4738C66.4405 60.0604 66.4105 60.047 66.3838 60.0204C66.3571 59.9937 66.3438 59.9637 66.3438 59.9304V59.5704C66.3438 59.5437 66.3371 59.527 66.3238 59.5204C66.3105 59.5137 66.2971 59.5204 66.2838 59.5404C65.9705 59.947 65.4738 60.1504 64.7938 60.1504C64.2205 60.1504 63.7571 60.0104 63.4038 59.7304C63.0571 59.4503 62.8838 59.0404 62.8838 58.5004C62.8838 57.9337 63.0805 57.4937 63.4738 57.1804C63.8671 56.8737 64.4305 56.7204 65.1638 56.7204H66.2938C66.3271 56.7204 66.3438 56.7004 66.3438 56.6604V56.4204C66.3438 56.1804 66.2705 55.9904 66.1238 55.8504C65.9771 55.717 65.7571 55.6504 65.4638 55.6504C65.2371 55.6504 65.0471 55.6904 64.8938 55.7704C64.7471 55.8504 64.6505 55.9637 64.6038 56.1104C64.5838 56.1904 64.5371 56.227 64.4638 56.2204L63.1338 56.0504C63.0471 56.0304 63.0071 55.997 63.0138 55.9504C63.0405 55.637 63.1638 55.357 63.3838 55.1104C63.5971 54.8637 63.8805 54.6704 64.2338 54.5304C64.5938 54.3904 64.9938 54.3204 65.4338 54.3204ZM65.2138 58.9904C65.5271 58.9904 65.7938 58.907 66.0138 58.7404C66.2338 58.5737 66.3438 58.357 66.3438 58.0904V57.7004C66.3438 57.6604 66.3271 57.6404 66.2938 57.6404H65.4938C65.1671 57.6404 64.9105 57.7037 64.7238 57.8304C64.5371 57.9504 64.4438 58.127 64.4438 58.3604C64.4438 58.5537 64.5138 58.707 64.6538 58.8204C64.7938 58.9337 64.9805 58.9904 65.2138 58.9904ZM73.9938 55.8504C74.1338 56.2304 74.2038 56.6837 74.2038 57.2104C74.2038 57.717 74.1405 58.1604 74.0138 58.5404C73.8471 59.0404 73.5771 59.4337 73.2038 59.7204C72.8305 60.007 72.3938 60.1504 71.8938 60.1504C71.3538 60.1504 70.9305 59.947 70.6238 59.5404C70.6105 59.527 70.5971 59.5237 70.5838 59.5304C70.5638 59.5304 70.5538 59.5437 70.5538 59.5704V59.9304C70.5538 59.9637 70.5438 59.9937 70.5238 60.0204C70.4971 60.047 70.4638 60.0604 70.4238 60.0604H69.1438C69.1038 60.0604 69.0705 60.047 69.0438 60.0204C69.0171 59.9937 69.0038 59.9637 69.0038 59.9304V52.4904C69.0038 52.457 69.0171 52.427 69.0438 52.4004C69.0705 52.3737 69.1038 52.3604 69.1438 52.3604H70.4238C70.4638 52.3604 70.4971 52.3737 70.5238 52.4004C70.5438 52.427 70.5538 52.457 70.5538 52.4904V54.8504C70.5538 54.8704 70.5638 54.8837 70.5838 54.8904C70.5971 54.897 70.6105 54.8904 70.6238 54.8704C70.9105 54.5037 71.3171 54.3204 71.8438 54.3204C72.3771 54.3204 72.8271 54.457 73.1938 54.7304C73.5538 55.0037 73.8205 55.377 73.9938 55.8504ZM72.3638 58.3404C72.5171 58.067 72.5938 57.7004 72.5938 57.2404C72.5938 56.7404 72.5038 56.3537 72.3238 56.0804C72.1505 55.7937 71.8905 55.6504 71.5438 55.6504C71.2238 55.6504 70.9805 55.7937 70.8138 56.0804C70.6538 56.3604 70.5738 56.7437 70.5738 57.2304C70.5738 57.7237 70.6438 58.0937 70.7838 58.3404C70.9638 58.6604 71.2238 58.8204 71.5638 58.8204C71.9171 58.8204 72.1838 58.6604 72.3638 58.3404ZM75.3438 60.0604C75.3038 60.0604 75.2738 60.047 75.2538 60.0204C75.2271 59.9937 75.2138 59.9637 75.2138 59.9304V52.4904C75.2138 52.457 75.2271 52.427 75.2538 52.4004C75.2738 52.3737 75.3038 52.3604 75.3438 52.3604H76.6338C76.6671 52.3604 76.6971 52.3737 76.7238 52.4004C76.7505 52.427 76.7638 52.457 76.7638 52.4904V59.9304C76.7638 59.9637 76.7505 59.9937 76.7238 60.0204C76.6971 60.047 76.6671 60.0604 76.6338 60.0604H75.3438ZM82.9038 56.6504C82.9438 56.9304 82.9571 57.2437 82.9438 57.5904C82.9371 57.677 82.8905 57.7204 82.8038 57.7204H79.4038C79.3571 57.7204 79.3405 57.737 79.3538 57.7704C79.3805 57.917 79.4238 58.0637 79.4838 58.2104C79.6705 58.6237 80.0571 58.8304 80.6438 58.8304C81.1105 58.8237 81.4805 58.6337 81.7538 58.2604C81.7871 58.2137 81.8205 58.1904 81.8538 58.1904C81.8738 58.1904 81.9005 58.2037 81.9338 58.2304L82.7238 59.0204C82.7638 59.0537 82.7838 59.0837 82.7838 59.1104C82.7838 59.1304 82.7671 59.1604 82.7338 59.2004C82.4938 59.5004 82.1838 59.7337 81.8038 59.9004C81.4171 60.067 80.9971 60.1504 80.5438 60.1504C79.9171 60.1504 79.3838 60.007 78.9438 59.7204C78.5105 59.4337 78.1971 59.0337 78.0038 58.5204C77.8505 58.1537 77.7738 57.6737 77.7738 57.0804C77.7738 56.6737 77.8271 56.317 77.9338 56.0104C78.1071 55.4904 78.4038 55.077 78.8238 54.7704C79.2438 54.4637 79.7438 54.3104 80.3238 54.3104C81.0571 54.3104 81.6471 54.5237 82.0938 54.9504C82.5338 55.3704 82.8038 55.937 82.9038 56.6504ZM80.3338 55.6504C79.8738 55.6504 79.5705 55.867 79.4238 56.3004C79.3971 56.3937 79.3705 56.5104 79.3438 56.6504C79.3438 56.6904 79.3638 56.7104 79.4038 56.7104H81.3038C81.3505 56.7104 81.3638 56.6904 81.3438 56.6504C81.3105 56.437 81.2938 56.3337 81.2938 56.3404C81.2271 56.1204 81.1105 55.9504 80.9438 55.8304C80.7838 55.7104 80.5805 55.6504 80.3338 55.6504ZM40.5538 41.4504C40.5938 41.3904 40.6438 41.3604 40.7038 41.3604H41.9938C42.0338 41.3604 42.0671 41.3737 42.0938 41.4004C42.1138 41.427 42.1238 41.457 42.1238 41.4904V48.9304C42.1238 48.9637 42.1138 48.9937 42.0938 49.0204C42.0671 49.047 42.0338 49.0604 41.9938 49.0604H40.7038C40.6705 49.0604 40.6405 49.047 40.6138 49.0204C40.5871 48.9937 40.5738 48.9637 40.5738 48.9304V44.0804C40.5738 44.047 40.5671 44.0304 40.5538 44.0304C40.5405 44.0304 40.5271 44.0437 40.5138 44.0704L39.3438 45.8904C39.3105 45.9504 39.2605 45.9804 39.1938 45.9804H38.5438C38.4771 45.9804 38.4238 45.9504 38.3838 45.8904L37.2238 44.0704C37.2105 44.0437 37.1938 44.0337 37.1738 44.0404C37.1605 44.0404 37.1538 44.057 37.1538 44.0904V48.9304C37.1538 48.9637 37.1405 48.9937 37.1138 49.0204C37.0938 49.047 37.0638 49.0604 37.0238 49.0604H35.7338C35.7005 49.0604 35.6705 49.047 35.6438 49.0204C35.6171 48.9937 35.6038 48.9637 35.6038 48.9304V41.4904C35.6038 41.457 35.6171 41.427 35.6438 41.4004C35.6705 41.3737 35.7005 41.3604 35.7338 41.3604H37.0238C37.0905 41.3604 37.1405 41.3904 37.1738 41.4504L38.8238 44.0104C38.8505 44.057 38.8738 44.057 38.8938 44.0104L40.5538 41.4504ZM45.8638 49.1504C45.2505 49.1504 44.7238 48.987 44.2838 48.6604C43.8438 48.3404 43.5438 47.9004 43.3838 47.3404C43.2771 47.0004 43.2238 46.627 43.2238 46.2204C43.2238 45.787 43.2771 45.4004 43.3838 45.0604C43.5505 44.5137 43.8538 44.087 44.2938 43.7804C44.7338 43.4737 45.2605 43.3204 45.8738 43.3204C46.4805 43.3204 46.9938 43.4704 47.4138 43.7704C47.8405 44.077 48.1438 44.5037 48.3238 45.0504C48.4371 45.417 48.4938 45.8004 48.4938 46.2004C48.4938 46.5937 48.4438 46.9637 48.3438 47.3104C48.1838 47.8837 47.8838 48.3337 47.4438 48.6604C47.0105 48.987 46.4838 49.1504 45.8638 49.1504ZM45.8638 47.8204C46.1105 47.8204 46.3171 47.747 46.4838 47.6004C46.6505 47.4537 46.7705 47.2504 46.8438 46.9904C46.9038 46.757 46.9338 46.5004 46.9338 46.2204C46.9338 45.9137 46.9038 45.6537 46.8438 45.4404C46.7638 45.1937 46.6405 45.0004 46.4738 44.8604C46.3071 44.7204 46.1005 44.6504 45.8538 44.6504C45.6071 44.6504 45.4005 44.7204 45.2338 44.8604C45.0671 45.0004 44.9471 45.1937 44.8738 45.4404C44.8205 45.6204 44.7938 45.8804 44.7938 46.2204C44.7938 46.5537 44.8171 46.8104 44.8638 46.9904C44.9371 47.2504 45.0605 47.4537 45.2338 47.6004C45.4071 47.747 45.6171 47.8204 45.8638 47.8204ZM51.7538 49.1404C51.2605 49.1404 50.8305 49.0704 50.4638 48.9304C50.0971 48.7904 49.8138 48.597 49.6138 48.3504C49.4138 48.097 49.3138 47.8137 49.3138 47.5004V47.3904C49.3138 47.3504 49.3271 47.317 49.3538 47.2904C49.3738 47.2704 49.4038 47.2604 49.4438 47.2604H50.6638C50.6971 47.2604 50.7271 47.2704 50.7538 47.2904C50.7805 47.317 50.7938 47.3504 50.7938 47.3904V47.4004C50.7938 47.5604 50.8838 47.697 51.0638 47.8104C51.2438 47.9237 51.4705 47.9804 51.7438 47.9804C51.9905 47.9804 52.1905 47.9304 52.3438 47.8304C52.4971 47.7304 52.5738 47.6104 52.5738 47.4704C52.5738 47.337 52.5105 47.237 52.3838 47.1704C52.2505 47.1037 52.0338 47.0337 51.7338 46.9604C51.3871 46.8737 51.1138 46.7904 50.9138 46.7104C50.4471 46.5437 50.0738 46.3437 49.7938 46.1104C49.5138 45.877 49.3738 45.5404 49.3738 45.1004C49.3738 44.5604 49.5871 44.1304 50.0138 43.8104C50.4338 43.4904 50.9905 43.3304 51.6838 43.3304C52.1571 43.3304 52.5671 43.4037 52.9138 43.5504C53.2671 43.7037 53.5405 43.917 53.7338 44.1904C53.9338 44.457 54.0338 44.7637 54.0338 45.1104C54.0338 45.1504 54.0205 45.1804 53.9938 45.2004C53.9671 45.227 53.9338 45.2404 53.8938 45.2404H52.7238C52.6838 45.2404 52.6505 45.227 52.6238 45.2004C52.5971 45.1804 52.5838 45.1504 52.5838 45.1104C52.5838 44.9504 52.5038 44.8137 52.3438 44.7004C52.1771 44.5937 51.9571 44.5404 51.6838 44.5404C51.4438 44.5404 51.2471 44.5837 51.0938 44.6704C50.9405 44.757 50.8638 44.877 50.8638 45.0304C50.8638 45.177 50.9371 45.287 51.0838 45.3604C51.2371 45.4337 51.4905 45.5137 51.8438 45.6004C51.9238 45.6204 52.0138 45.6437 52.1138 45.6704C52.2205 45.697 52.3305 45.727 52.4438 45.7604C52.9638 45.9137 53.3738 46.1104 53.6738 46.3504C53.9805 46.597 54.1338 46.9504 54.1338 47.4104C54.1338 47.9504 53.9171 48.3737 53.4838 48.6804C53.0571 48.987 52.4805 49.1404 51.7538 49.1404ZM58.2538 44.5204C58.2538 44.5537 58.2405 44.5837 58.2138 44.6104C58.1871 44.637 58.1571 44.6504 58.1238 44.6504H57.0638C57.0305 44.6504 57.0138 44.667 57.0138 44.7004V47.0404C57.0138 47.2804 57.0638 47.4604 57.1638 47.5804C57.2571 47.6937 57.4138 47.7504 57.6338 47.7504H58.0038C58.0371 47.7504 58.0671 47.7637 58.0938 47.7904C58.1205 47.817 58.1338 47.847 58.1338 47.8804V48.9304C58.1338 49.0104 58.0905 49.057 58.0038 49.0704C57.6971 49.0837 57.4771 49.0904 57.3438 49.0904C56.7305 49.0904 56.2738 48.9904 55.9738 48.7904C55.6738 48.5904 55.5205 48.2104 55.5138 47.6504V44.7004C55.5138 44.667 55.4971 44.6504 55.4638 44.6504H54.8338C54.7938 44.6504 54.7638 44.637 54.7438 44.6104C54.7171 44.5837 54.7038 44.5537 54.7038 44.5204V43.5404C54.7038 43.5004 54.7171 43.467 54.7438 43.4404C54.7638 43.4204 54.7938 43.4104 54.8338 43.4104H55.4638C55.4971 43.4104 55.5138 43.3904 55.5138 43.3504V42.0404C55.5138 42.007 55.5271 41.977 55.5538 41.9504C55.5805 41.9237 55.6105 41.9104 55.6438 41.9104H56.8838C56.9171 41.9104 56.9471 41.9237 56.9738 41.9504C57.0005 41.977 57.0138 42.007 57.0138 42.0404V43.3504C57.0138 43.3904 57.0305 43.4104 57.0638 43.4104H58.1238C58.1571 43.4104 58.1871 43.4204 58.2138 43.4404C58.2405 43.467 58.2538 43.5004 58.2538 43.5404V44.5204Z" fill="#252530"></path><path d="M40.7239 69.3404C40.7239 69.3738 40.7106 69.4004 40.6839 69.4204C40.6639 69.4471 40.6372 69.4604 40.6039 69.4604H37.2039C37.1706 69.4604 37.1539 69.4771 37.1539 69.5104V71.3804C37.1539 71.4138 37.1706 71.4305 37.2039 71.4305H39.4939C39.5272 71.4305 39.5572 71.4404 39.5839 71.4604C39.6039 71.4871 39.6139 71.5171 39.6139 71.5504V72.3104C39.6139 72.3438 39.6039 72.3738 39.5839 72.4004C39.5572 72.4204 39.5272 72.4305 39.4939 72.4305H37.2039C37.1706 72.4305 37.1539 72.4471 37.1539 72.4804V75.3404C37.1539 75.3738 37.1406 75.4004 37.1139 75.4204C37.0939 75.4471 37.0672 75.4604 37.0339 75.4604H36.1139C36.0806 75.4604 36.0539 75.4471 36.0339 75.4204C36.0072 75.4004 35.9939 75.3738 35.9939 75.3404V68.5804C35.9939 68.5471 36.0072 68.5205 36.0339 68.5005C36.0539 68.4738 36.0806 68.4604 36.1139 68.4604H40.6039C40.6372 68.4604 40.6639 68.4738 40.6839 68.5005C40.7106 68.5205 40.7239 68.5471 40.7239 68.5804V69.3404ZM45.2839 75.4604C45.2172 75.4604 45.1739 75.4271 45.1539 75.3605L44.8239 74.2905C44.8106 74.2638 44.7939 74.2505 44.7739 74.2505H42.1339C42.1139 74.2505 42.0972 74.2638 42.0839 74.2905L41.7539 75.3605C41.7339 75.4271 41.6906 75.4604 41.6239 75.4604H40.6239C40.5839 75.4604 40.5539 75.4471 40.5339 75.4204C40.5139 75.4004 40.5106 75.3671 40.5239 75.3204L42.6939 68.5604C42.7139 68.4938 42.7572 68.4604 42.8239 68.4604H44.0739C44.1406 68.4604 44.1839 68.4938 44.2039 68.5604L46.3839 75.3204C46.3906 75.3338 46.3939 75.3504 46.3939 75.3704C46.3939 75.4304 46.3572 75.4604 46.2839 75.4604H45.2839ZM42.3939 73.2804C42.3872 73.3204 42.4006 73.3404 42.4339 73.3404H44.4639C44.5039 73.3404 44.5172 73.3204 44.5039 73.2804L43.4739 69.9305C43.4672 69.9038 43.4572 69.8904 43.4439 69.8904C43.4306 69.8904 43.4206 69.9038 43.4139 69.9305L42.3939 73.2804ZM47.5439 75.4604C47.5106 75.4604 47.4839 75.4471 47.4639 75.4204C47.4372 75.4004 47.4239 75.3738 47.4239 75.3404V68.5804C47.4239 68.5471 47.4372 68.5205 47.4639 68.5005C47.4839 68.4738 47.5106 68.4604 47.5439 68.4604H48.4639C48.4972 68.4604 48.5272 68.4738 48.5539 68.5005C48.5739 68.5205 48.5839 68.5471 48.5839 68.5804V74.4104C48.5839 74.4438 48.6006 74.4604 48.6339 74.4604H51.9839C52.0172 74.4604 52.0439 74.4738 52.0639 74.5005C52.0906 74.5205 52.1039 74.5471 52.1039 74.5804V75.3404C52.1039 75.3738 52.0906 75.4004 52.0639 75.4204C52.0439 75.4471 52.0172 75.4604 51.9839 75.4604H47.5439ZM53.2539 75.4604C53.2206 75.4604 53.1939 75.4471 53.1739 75.4204C53.1472 75.4004 53.1339 75.3738 53.1339 75.3404V68.5804C53.1339 68.5471 53.1472 68.5205 53.1739 68.5005C53.1939 68.4738 53.2206 68.4604 53.2539 68.4604H54.1739C54.2072 68.4604 54.2372 68.4738 54.2639 68.5005C54.2839 68.5205 54.2939 68.5471 54.2939 68.5804V74.4104C54.2939 74.4438 54.3106 74.4604 54.3439 74.4604H57.6939C57.7272 74.4604 57.7572 74.4738 57.7839 74.5005C57.8039 74.5205 57.8139 74.5471 57.8139 74.5804V75.3404C57.8139 75.3738 57.8039 75.4004 57.7839 75.4204C57.7572 75.4471 57.7272 75.4604 57.6939 75.4604H53.2539Z" fill="white"></path><path d="M33.7539 93.5203C33.7339 93.5403 33.7272 93.5603 33.7339 93.5803C33.7472 93.6003 33.7672 93.6103 33.7939 93.6103H37.7239C37.7705 93.6103 37.8105 93.627 37.8439 93.6603C37.8839 93.6937 37.9039 93.7337 37.9039 93.7803V95.1903C37.9039 95.237 37.8839 95.277 37.8439 95.3103C37.8105 95.3437 37.7705 95.3603 37.7239 95.3603H31.2039C31.1505 95.3603 31.1072 95.3437 31.0739 95.3103C31.0405 95.277 31.0239 95.237 31.0239 95.1903V93.8503C31.0239 93.7637 31.0539 93.6903 31.1139 93.6303C31.5872 93.1703 32.0705 92.667 32.5639 92.1203C33.0572 91.5737 33.3672 91.2337 33.4939 91.1003C33.7605 90.7803 34.0339 90.4737 34.3139 90.1803C35.1939 89.207 35.6339 88.4837 35.6339 88.0103C35.6339 87.6703 35.5139 87.3903 35.2739 87.1703C35.0339 86.957 34.7205 86.8503 34.3339 86.8503C33.9472 86.8503 33.6339 86.957 33.3939 87.1703C33.1472 87.3903 33.0239 87.6803 33.0239 88.0403V88.4003C33.0239 88.447 33.0072 88.487 32.9739 88.5203C32.9405 88.5537 32.9005 88.5703 32.8539 88.5703H31.1439C31.0972 88.5703 31.0572 88.5537 31.0239 88.5203C30.9839 88.487 30.9639 88.447 30.9639 88.4003V87.7203C30.9972 87.2003 31.1639 86.737 31.4639 86.3303C31.7639 85.9303 32.1605 85.6237 32.6539 85.4103C33.1539 85.197 33.7139 85.0903 34.3339 85.0903C35.0205 85.0903 35.6172 85.2203 36.1239 85.4803C36.6305 85.7337 37.0205 86.077 37.2939 86.5103C37.5739 86.9503 37.7139 87.4337 37.7139 87.9603C37.7139 88.367 37.6105 88.7837 37.4039 89.2103C37.2039 89.637 36.9005 90.097 36.4939 90.5903C36.1939 90.9637 35.8705 91.337 35.5239 91.7103C35.1772 92.077 34.6605 92.607 33.9739 93.3003L33.7539 93.5203ZM42.6139 95.5203C41.5472 95.5203 40.7072 95.2237 40.0939 94.6303C39.4739 94.037 39.1639 93.227 39.1639 92.2003V88.3703C39.1639 87.3637 39.4739 86.567 40.0939 85.9803C40.7072 85.387 41.5472 85.0903 42.6139 85.0903C43.6739 85.0903 44.5172 85.387 45.1439 85.9803C45.7639 86.567 46.0739 87.3637 46.0739 88.3703V92.2003C46.0739 93.227 45.7639 94.037 45.1439 94.6303C44.5172 95.2237 43.6739 95.5203 42.6139 95.5203ZM42.6139 93.7703C43.0472 93.7703 43.3905 93.637 43.6439 93.3703C43.9039 93.1037 44.0339 92.747 44.0339 92.3003V88.3103C44.0339 87.8703 43.9039 87.517 43.6439 87.2503C43.3905 86.9837 43.0472 86.8503 42.6139 86.8503C42.1872 86.8503 41.8472 86.9837 41.5939 87.2503C41.3339 87.517 41.2039 87.8703 41.2039 88.3103V92.3003C41.2039 92.747 41.3339 93.1037 41.5939 93.3703C41.8472 93.637 42.1872 93.7703 42.6139 93.7703ZM50.1339 93.5203C50.1139 93.5403 50.1105 93.5603 50.1239 93.5803C50.1305 93.6003 50.1505 93.6103 50.1839 93.6103H54.1139C54.1605 93.6103 54.2005 93.627 54.2339 93.6603C54.2672 93.6937 54.2839 93.7337 54.2839 93.7803V95.1903C54.2839 95.237 54.2672 95.277 54.2339 95.3103C54.2005 95.3437 54.1605 95.3603 54.1139 95.3603H47.5839C47.5372 95.3603 47.4972 95.3437 47.4639 95.3103C47.4305 95.277 47.4139 95.237 47.4139 95.1903V93.8503C47.4139 93.7637 47.4405 93.6903 47.4939 93.6303C47.9739 93.1703 48.4572 92.667 48.9439 92.1203C49.4372 91.5737 49.7472 91.2337 49.8739 91.1003C50.1472 90.7803 50.4239 90.4737 50.7039 90.1803C51.5839 89.207 52.0239 88.4837 52.0239 88.0103C52.0239 87.6703 51.9039 87.3903 51.6639 87.1703C51.4172 86.957 51.1005 86.8503 50.7139 86.8503C50.3272 86.8503 50.0139 86.957 49.7739 87.1703C49.5339 87.3903 49.4139 87.6803 49.4139 88.0403V88.4003C49.4139 88.447 49.3972 88.487 49.3639 88.5203C49.3305 88.5537 49.2872 88.5703 49.2339 88.5703H47.5239C47.4772 88.5703 47.4372 88.5537 47.4039 88.5203C47.3705 88.487 47.3539 88.447 47.3539 88.4003V87.7203C47.3805 87.2003 47.5439 86.737 47.8439 86.3303C48.1439 85.9303 48.5439 85.6237 49.0439 85.4103C49.5439 85.197 50.1005 85.0903 50.7139 85.0903C51.4005 85.0903 51.9972 85.2203 52.5039 85.4803C53.0172 85.7337 53.4105 86.077 53.6839 86.5103C53.9572 86.9503 54.0939 87.4337 54.0939 87.9603C54.0939 88.367 53.9939 88.7837 53.7939 89.2103C53.5872 89.637 53.2805 90.097 52.8739 90.5903C52.5739 90.9637 52.2505 91.337 51.9039 91.7103C51.5572 92.077 51.0405 92.607 50.3539 93.3003L50.1339 93.5203ZM62.7939 90.9403C62.8405 90.9403 62.8839 90.957 62.9239 90.9903C62.9572 91.0237 62.9739 91.0637 62.9739 91.1103V92.5803C62.9739 92.627 62.9572 92.667 62.9239 92.7003C62.8839 92.7337 62.8405 92.7503 62.7939 92.7503H62.1739C62.1272 92.7503 62.1039 92.7737 62.1039 92.8203V95.1903C62.1039 95.237 62.0872 95.277 62.0539 95.3103C62.0139 95.3437 61.9705 95.3603 61.9239 95.3603H60.2339C60.1805 95.3603 60.1372 95.3437 60.1039 95.3103C60.0705 95.277 60.0539 95.237 60.0539 95.1903V92.8203C60.0539 92.7737 60.0305 92.7503 59.9839 92.7503H55.5339C55.4872 92.7503 55.4439 92.7337 55.4039 92.7003C55.3705 92.667 55.3539 92.627 55.3539 92.5803V91.4203C55.3539 91.3603 55.3705 91.287 55.4039 91.2003L58.0139 85.3403C58.0539 85.2537 58.1205 85.2103 58.2139 85.2103H60.0239C60.0905 85.2103 60.1372 85.227 60.1639 85.2603C60.1905 85.2937 60.1872 85.3437 60.1539 85.4103L57.7339 90.8503C57.7272 90.8703 57.7272 90.8903 57.7339 90.9103C57.7472 90.9303 57.7639 90.9403 57.7839 90.9403H59.9839C60.0305 90.9403 60.0539 90.9137 60.0539 90.8603V89.0703C60.0539 89.017 60.0705 88.9737 60.1039 88.9403C60.1372 88.907 60.1805 88.8903 60.2339 88.8903H61.9239C61.9705 88.8903 62.0139 88.907 62.0539 88.9403C62.0872 88.9737 62.1039 89.017 62.1039 89.0703V90.8603C62.1039 90.9137 62.1272 90.9403 62.1739 90.9403H62.7939Z" fill="#252530"></path></g><defs><clipPath id="clip0_3303_2247"><rect width="94" height="122" fill="white" transform="translate(0.263916 0.0605469)"></rect></clipPath></defs></svg>