<svg width="95" height="123" viewBox="0 0 95 123" fill="none" xmlns="http://www.w3.org/2000/svg" class="IdentifySection-module--icon--ec6d0"><g clip-path="url(#clip0_3303_2411)"><path d="M8.36401 89.9604L47.864 110.06L85.864 89.9604V11.3604H8.36401V89.9604Z" fill="white"></path><path d="M86.664 11.6606L7.56396 91.3606L48.564 111.661L86.664 92.1606V11.6606Z" fill="#F2F3F2"></path><path d="M5.76392 37.5607V91.6607L7.16392 92.3607L46.6639 112.461L47.8639 113.061L49.0639 112.461L87.1639 92.3607L88.5639 91.6607V8.76074H5.76392V37.5607ZM8.36392 90.1607V11.3607H85.9639V90.1607L47.8639 110.261L8.36392 90.1607Z" fill="#DCDEDC"></path><path d="M47.1638 12.6607C47.5638 12.6607 47.9638 12.6607 48.3638 12.7607L47.1638 15.0607C45.3638 14.9607 43.7638 16.3607 43.6638 18.1607C43.5638 19.9607 44.9638 21.5607 46.7638 21.6607H47.1638C47.9638 21.6607 48.7638 21.3607 49.3638 20.8607L50.6638 23.0607C49.6638 23.7607 48.4638 24.1607 47.1638 24.1607C43.9638 24.2607 41.2638 21.8607 41.1638 18.6607C41.0638 15.4607 43.4638 12.7607 46.6638 12.6607H47.1638ZM51.2638 17.5607L52.7638 20.0607L51.2638 22.4607L49.8638 20.0607H46.9638L48.4638 17.5607H51.2638ZM48.8638 16.6607C48.8638 16.2607 48.9638 15.8607 49.1638 15.5607C49.3638 15.2607 49.7638 14.9607 50.0638 14.7607L50.2638 14.6607C50.6638 14.4607 50.7638 14.3607 50.7638 14.1607C50.7638 13.9607 50.4638 13.7607 50.2638 13.7607C49.8638 13.7607 49.5638 13.9607 49.3638 14.3607L48.8638 13.8607C48.9638 13.6607 49.1638 13.4607 49.3638 13.2607C49.6638 13.0607 49.9638 13.0607 50.2638 13.0607C50.5638 13.0607 50.9638 13.1607 51.1638 13.3607C51.3638 13.5607 51.5638 13.8607 51.5638 14.1607C51.5638 14.6607 51.2638 15.0607 50.6638 15.2607L50.3638 15.4607C50.0638 15.6607 49.8638 15.7607 49.7638 16.0607H51.5638V16.7607L48.8638 16.6607ZM47.1638 29.1607L56.6638 23.7607V8.76074H37.5638V23.6607L47.1638 29.1607ZM90.4638 64.5607H3.86382L0.663818 71.5607L3.86382 78.5607H90.4638L93.5638 71.5607L90.4638 64.5607Z" fill="#FF492C"></path><path d="M19.3538 60.0604C19.2938 60.0604 19.2438 60.0404 19.2038 60.0004C19.1638 59.9538 19.1438 59.9004 19.1438 59.8404V47.6804C19.1438 47.6204 19.1638 47.5671 19.2038 47.5204C19.2438 47.4804 19.2938 47.4604 19.3538 47.4604H21.4638C21.5238 47.4604 21.5738 47.4804 21.6138 47.5204C21.6605 47.5671 21.6838 47.6204 21.6838 47.6804V57.7904C21.6838 57.8504 21.7138 57.8804 21.7738 57.8804H27.6538C27.7138 57.8804 27.7671 57.9004 27.8138 57.9404C27.8538 57.9871 27.8738 58.0404 27.8738 58.1004V59.8404C27.8738 59.9004 27.8538 59.9538 27.8138 60.0004C27.7671 60.0404 27.7138 60.0604 27.6538 60.0604H19.3538ZM37.4638 54.4804C37.5371 54.9338 37.5605 55.4438 37.5338 56.0104C37.5271 56.1571 37.4505 56.2304 37.3038 56.2304H31.7438C31.6705 56.2304 31.6471 56.2604 31.6738 56.3204C31.7071 56.5604 31.7705 56.8004 31.8638 57.0404C32.1771 57.7071 32.8138 58.0404 33.7738 58.0404C34.5405 58.0338 35.1471 57.7238 35.5938 57.1104C35.6405 57.0371 35.6938 57.0004 35.7538 57.0004C35.7938 57.0004 35.8371 57.0238 35.8838 57.0704L37.1738 58.3504C37.2338 58.4104 37.2638 58.4638 37.2638 58.5104C37.2638 58.5371 37.2405 58.5871 37.1938 58.6604C36.8005 59.1471 36.2905 59.5271 35.6638 59.8004C35.0438 60.0671 34.3605 60.2004 33.6138 60.2004C32.5805 60.2004 31.7071 59.9671 30.9938 59.5004C30.2805 59.0338 29.7671 58.3804 29.4538 57.5404C29.2005 56.9404 29.0738 56.1538 29.0738 55.1804C29.0738 54.5204 29.1638 53.9404 29.3438 53.4404C29.6238 52.5871 30.1071 51.9071 30.7938 51.4004C31.4871 50.9004 32.3071 50.6504 33.2538 50.6504C34.4538 50.6504 35.4171 50.9971 36.1438 51.6904C36.8705 52.3838 37.3105 53.3138 37.4638 54.4804ZM33.2738 52.8404C32.5138 52.8404 32.0138 53.1938 31.7738 53.9004C31.7271 54.0604 31.6871 54.2538 31.6538 54.4804C31.6538 54.5404 31.6838 54.5704 31.7438 54.5704H34.8538C34.9271 54.5704 34.9505 54.5404 34.9238 54.4804C34.8638 54.1338 34.8338 53.9671 34.8338 53.9804C34.7271 53.6204 34.5405 53.3404 34.2738 53.1404C34.0005 52.9404 33.6671 52.8404 33.2738 52.8404ZM42.7038 50.6604C43.4838 50.6604 44.1805 50.7971 44.7938 51.0704C45.4071 51.3371 45.8838 51.7071 46.2238 52.1804C46.5638 52.6471 46.7338 53.1671 46.7338 53.7404V59.8404C46.7338 59.9004 46.7138 59.9538 46.6738 60.0004C46.6338 60.0404 46.5838 60.0604 46.5238 60.0604H44.4138C44.3538 60.0604 44.3038 60.0404 44.2638 60.0004C44.2171 59.9538 44.1938 59.9004 44.1938 59.8404V59.2504C44.1938 59.2171 44.1838 59.1938 44.1638 59.1804C44.1371 59.1671 44.1138 59.1771 44.0938 59.2104C43.5871 59.8704 42.7771 60.2004 41.6638 60.2004C40.7238 60.2004 39.9671 59.9738 39.3938 59.5204C38.8138 59.0671 38.5238 58.3938 38.5238 57.5004C38.5238 56.5804 38.8505 55.8638 39.5038 55.3504C40.1505 54.8438 41.0738 54.5904 42.2738 54.5904H44.1038C44.1638 54.5904 44.1938 54.5604 44.1938 54.5004V54.1004C44.1938 53.7071 44.0738 53.3971 43.8338 53.1704C43.5938 52.9504 43.2338 52.8404 42.7538 52.8404C42.3871 52.8404 42.0805 52.9071 41.8338 53.0404C41.5871 53.1738 41.4271 53.3604 41.3538 53.6004C41.3205 53.7338 41.2438 53.7938 41.1238 53.7804L38.9438 53.4904C38.7971 53.4638 38.7305 53.4104 38.7438 53.3304C38.7905 52.8238 38.9905 52.3671 39.3438 51.9604C39.6971 51.5538 40.1671 51.2371 40.7538 51.0104C41.3338 50.7771 41.9838 50.6604 42.7038 50.6604ZM42.3438 58.3104C42.8571 58.3104 43.2938 58.1738 43.6538 57.9004C44.0138 57.6271 44.1938 57.2738 44.1938 56.8404V56.1904C44.1938 56.1304 44.1638 56.1004 44.1038 56.1004H42.8138C42.2738 56.1004 41.8505 56.2038 41.5438 56.4104C41.2371 56.6104 41.0838 56.8971 41.0838 57.2704C41.0838 57.5971 41.1971 57.8504 41.4238 58.0304C41.6505 58.2171 41.9571 58.3104 42.3438 58.3104ZM54.2638 47.6804C54.2638 47.6204 54.2838 47.5671 54.3238 47.5204C54.3638 47.4804 54.4138 47.4604 54.4738 47.4604H56.5838C56.6438 47.4604 56.6938 47.4804 56.7338 47.5204C56.7738 47.5671 56.7938 47.6204 56.7938 47.6804V59.8404C56.7938 59.9004 56.7738 59.9538 56.7338 60.0004C56.6938 60.0404 56.6438 60.0604 56.5838 60.0604H54.4738C54.4138 60.0604 54.3638 60.0404 54.3238 60.0004C54.2838 59.9538 54.2638 59.9004 54.2638 59.8404V59.2504C54.2638 59.2171 54.2505 59.1971 54.2238 59.1904C54.1971 59.1838 54.1738 59.1904 54.1538 59.2104C53.6471 59.8704 52.9571 60.2004 52.0838 60.2004C51.2438 60.2004 50.5205 59.9671 49.9138 59.5004C49.3071 59.0338 48.8705 58.3938 48.6038 57.5804C48.4038 56.9538 48.3038 56.2271 48.3038 55.4004C48.3038 54.5471 48.4105 53.8038 48.6238 53.1704C48.9038 52.3971 49.3405 51.7871 49.9338 51.3404C50.5271 50.8871 51.2605 50.6604 52.1338 50.6604C53.0005 50.6604 53.6738 50.9604 54.1538 51.5604C54.1738 51.6004 54.1971 51.6138 54.2238 51.6004C54.2505 51.5871 54.2638 51.5638 54.2638 51.5304V47.6804ZM53.8838 57.2504C54.1238 56.8104 54.2438 56.2038 54.2438 55.4304C54.2438 54.6304 54.1105 54.0004 53.8438 53.5404C53.5705 53.0738 53.1705 52.8404 52.6438 52.8404C52.0771 52.8404 51.6505 53.0738 51.3638 53.5404C51.0638 54.0138 50.9138 54.6504 50.9138 55.4504C50.9138 56.1704 51.0405 56.7704 51.2938 57.2504C51.5938 57.7704 52.0371 58.0304 52.6238 58.0304C53.1638 58.0304 53.5838 57.7704 53.8838 57.2504ZM66.8938 54.4804C66.9671 54.9338 66.9905 55.4438 66.9638 56.0104C66.9571 56.1571 66.8805 56.2304 66.7338 56.2304H61.1738C61.1005 56.2304 61.0771 56.2604 61.1038 56.3204C61.1371 56.5604 61.2005 56.8004 61.2938 57.0404C61.6071 57.7071 62.2438 58.0404 63.2038 58.0404C63.9705 58.0338 64.5771 57.7238 65.0238 57.1104C65.0705 57.0371 65.1238 57.0004 65.1838 57.0004C65.2238 57.0004 65.2671 57.0238 65.3138 57.0704L66.6038 58.3504C66.6638 58.4104 66.6938 58.4638 66.6938 58.5104C66.6938 58.5371 66.6705 58.5871 66.6238 58.6604C66.2305 59.1471 65.7205 59.5271 65.0938 59.8004C64.4738 60.0671 63.7905 60.2004 63.0438 60.2004C62.0105 60.2004 61.1371 59.9671 60.4238 59.5004C59.7105 59.0338 59.1971 58.3804 58.8838 57.5404C58.6305 56.9404 58.5038 56.1538 58.5038 55.1804C58.5038 54.5204 58.5938 53.9404 58.7738 53.4404C59.0538 52.5871 59.5371 51.9071 60.2238 51.4004C60.9171 50.9004 61.7371 50.6504 62.6838 50.6504C63.8838 50.6504 64.8471 50.9971 65.5738 51.6904C66.3005 52.3838 66.7405 53.3138 66.8938 54.4804ZM62.7038 52.8404C61.9438 52.8404 61.4438 53.1938 61.2038 53.9004C61.1571 54.0604 61.1171 54.2538 61.0838 54.4804C61.0838 54.5404 61.1138 54.5704 61.1738 54.5704H64.2838C64.3571 54.5704 64.3805 54.5404 64.3538 54.4804C64.2938 54.1338 64.2638 53.9671 64.2638 53.9804C64.1571 53.6204 63.9705 53.3404 63.7038 53.1404C63.4305 52.9404 63.0971 52.8404 62.7038 52.8404ZM73.1438 50.6804C73.5771 50.6804 73.9171 50.7638 74.1638 50.9304C74.2638 50.9838 74.3005 51.0738 74.2738 51.2004L73.8938 53.2604C73.8871 53.4004 73.8038 53.4404 73.6438 53.3804C73.4638 53.3204 73.2538 53.2904 73.0138 53.2904C72.9205 53.2904 72.7905 53.3038 72.6238 53.3304C72.1905 53.3638 71.8238 53.5204 71.5238 53.8004C71.2238 54.0871 71.0738 54.4638 71.0738 54.9304V59.8404C71.0738 59.9004 71.0538 59.9538 71.0138 60.0004C70.9671 60.0404 70.9138 60.0604 70.8538 60.0604H68.7538C68.6938 60.0604 68.6405 60.0404 68.5938 60.0004C68.5538 59.9538 68.5338 59.9004 68.5338 59.8404V51.0204C68.5338 50.9604 68.5538 50.9104 68.5938 50.8704C68.6405 50.8304 68.6938 50.8104 68.7538 50.8104H70.8538C70.9138 50.8104 70.9671 50.8304 71.0138 50.8704C71.0538 50.9104 71.0738 50.9604 71.0738 51.0204V51.7104C71.0738 51.7438 71.0838 51.7671 71.1038 51.7804C71.1305 51.7938 71.1505 51.7871 71.1638 51.7604C71.6571 51.0404 72.3171 50.6804 73.1438 50.6804Z" fill="#252530"></path><path d="M40.7239 69.3404C40.7239 69.3738 40.7106 69.4004 40.6839 69.4204C40.6639 69.4471 40.6372 69.4604 40.6039 69.4604H37.2039C37.1706 69.4604 37.1539 69.4771 37.1539 69.5104V71.3804C37.1539 71.4138 37.1706 71.4305 37.2039 71.4305H39.4939C39.5272 71.4305 39.5572 71.4404 39.5839 71.4604C39.6039 71.4871 39.6139 71.5171 39.6139 71.5504V72.3104C39.6139 72.3438 39.6039 72.3738 39.5839 72.4004C39.5572 72.4204 39.5272 72.4305 39.4939 72.4305H37.2039C37.1706 72.4305 37.1539 72.4471 37.1539 72.4804V75.3404C37.1539 75.3738 37.1406 75.4004 37.1139 75.4204C37.0939 75.4471 37.0672 75.4604 37.0339 75.4604H36.1139C36.0806 75.4604 36.0539 75.4471 36.0339 75.4204C36.0072 75.4004 35.9939 75.3738 35.9939 75.3404V68.5804C35.9939 68.5471 36.0072 68.5205 36.0339 68.5005C36.0539 68.4738 36.0806 68.4604 36.1139 68.4604H40.6039C40.6372 68.4604 40.6639 68.4738 40.6839 68.5005C40.7106 68.5205 40.7239 68.5471 40.7239 68.5804V69.3404ZM45.2839 75.4604C45.2172 75.4604 45.1739 75.4271 45.1539 75.3605L44.8239 74.2905C44.8106 74.2638 44.7939 74.2505 44.7739 74.2505H42.1339C42.1139 74.2505 42.0972 74.2638 42.0839 74.2905L41.7539 75.3605C41.7339 75.4271 41.6906 75.4604 41.6239 75.4604H40.6239C40.5839 75.4604 40.5539 75.4471 40.5339 75.4204C40.5139 75.4004 40.5106 75.3671 40.5239 75.3204L42.6939 68.5604C42.7139 68.4938 42.7572 68.4604 42.8239 68.4604H44.0739C44.1406 68.4604 44.1839 68.4938 44.2039 68.5604L46.3839 75.3204C46.3906 75.3338 46.3939 75.3504 46.3939 75.3704C46.3939 75.4304 46.3572 75.4604 46.2839 75.4604H45.2839ZM42.3939 73.2804C42.3872 73.3204 42.4006 73.3404 42.4339 73.3404H44.4639C44.5039 73.3404 44.5172 73.3204 44.5039 73.2804L43.4739 69.9305C43.4672 69.9038 43.4572 69.8904 43.4439 69.8904C43.4306 69.8904 43.4206 69.9038 43.4139 69.9305L42.3939 73.2804ZM47.5439 75.4604C47.5106 75.4604 47.4839 75.4471 47.4639 75.4204C47.4372 75.4004 47.4239 75.3738 47.4239 75.3404V68.5804C47.4239 68.5471 47.4372 68.5205 47.4639 68.5005C47.4839 68.4738 47.5106 68.4604 47.5439 68.4604H48.4639C48.4972 68.4604 48.5272 68.4738 48.5539 68.5005C48.5739 68.5205 48.5839 68.5471 48.5839 68.5804V74.4104C48.5839 74.4438 48.6006 74.4604 48.6339 74.4604H51.9839C52.0172 74.4604 52.0439 74.4738 52.0639 74.5005C52.0906 74.5205 52.1039 74.5471 52.1039 74.5804V75.3404C52.1039 75.3738 52.0906 75.4004 52.0639 75.4204C52.0439 75.4471 52.0172 75.4604 51.9839 75.4604H47.5439ZM53.2539 75.4604C53.2206 75.4604 53.1939 75.4471 53.1739 75.4204C53.1472 75.4004 53.1339 75.3738 53.1339 75.3404V68.5804C53.1339 68.5471 53.1472 68.5205 53.1739 68.5005C53.1939 68.4738 53.2206 68.4604 53.2539 68.4604H54.1739C54.2072 68.4604 54.2372 68.4738 54.2639 68.5005C54.2839 68.5205 54.2939 68.5471 54.2939 68.5804V74.4104C54.2939 74.4438 54.3106 74.4604 54.3439 74.4604H57.6939C57.7272 74.4604 57.7572 74.4738 57.7839 74.5005C57.8039 74.5205 57.8139 74.5471 57.8139 74.5804V75.3404C57.8139 75.3738 57.8039 75.4004 57.7839 75.4204C57.7572 75.4471 57.7272 75.4604 57.6939 75.4604H53.2539Z" fill="white"></path><path d="M33.7539 93.5203C33.7339 93.5403 33.7272 93.5603 33.7339 93.5803C33.7472 93.6003 33.7672 93.6103 33.7939 93.6103H37.7239C37.7705 93.6103 37.8105 93.627 37.8439 93.6603C37.8839 93.6937 37.9039 93.7337 37.9039 93.7803V95.1903C37.9039 95.237 37.8839 95.277 37.8439 95.3103C37.8105 95.3437 37.7705 95.3603 37.7239 95.3603H31.2039C31.1505 95.3603 31.1072 95.3437 31.0739 95.3103C31.0405 95.277 31.0239 95.237 31.0239 95.1903V93.8503C31.0239 93.7637 31.0539 93.6903 31.1139 93.6303C31.5872 93.1703 32.0705 92.667 32.5639 92.1203C33.0572 91.5737 33.3672 91.2337 33.4939 91.1003C33.7605 90.7803 34.0339 90.4737 34.3139 90.1803C35.1939 89.207 35.6339 88.4837 35.6339 88.0103C35.6339 87.6703 35.5139 87.3903 35.2739 87.1703C35.0339 86.957 34.7205 86.8503 34.3339 86.8503C33.9472 86.8503 33.6339 86.957 33.3939 87.1703C33.1472 87.3903 33.0239 87.6803 33.0239 88.0403V88.4003C33.0239 88.447 33.0072 88.487 32.9739 88.5203C32.9405 88.5537 32.9005 88.5703 32.8539 88.5703H31.1439C31.0972 88.5703 31.0572 88.5537 31.0239 88.5203C30.9839 88.487 30.9639 88.447 30.9639 88.4003V87.7203C30.9972 87.2003 31.1639 86.737 31.4639 86.3303C31.7639 85.9303 32.1605 85.6237 32.6539 85.4103C33.1539 85.197 33.7139 85.0903 34.3339 85.0903C35.0205 85.0903 35.6172 85.2203 36.1239 85.4803C36.6305 85.7337 37.0205 86.077 37.2939 86.5103C37.5739 86.9503 37.7139 87.4337 37.7139 87.9603C37.7139 88.367 37.6105 88.7837 37.4039 89.2103C37.2039 89.637 36.9005 90.097 36.4939 90.5903C36.1939 90.9637 35.8705 91.337 35.5239 91.7103C35.1772 92.077 34.6605 92.607 33.9739 93.3003L33.7539 93.5203ZM42.6139 95.5203C41.5472 95.5203 40.7072 95.2237 40.0939 94.6303C39.4739 94.037 39.1639 93.227 39.1639 92.2003V88.3703C39.1639 87.3637 39.4739 86.567 40.0939 85.9803C40.7072 85.387 41.5472 85.0903 42.6139 85.0903C43.6739 85.0903 44.5172 85.387 45.1439 85.9803C45.7639 86.567 46.0739 87.3637 46.0739 88.3703V92.2003C46.0739 93.227 45.7639 94.037 45.1439 94.6303C44.5172 95.2237 43.6739 95.5203 42.6139 95.5203ZM42.6139 93.7703C43.0472 93.7703 43.3905 93.637 43.6439 93.3703C43.9039 93.1037 44.0339 92.747 44.0339 92.3003V88.3103C44.0339 87.8703 43.9039 87.517 43.6439 87.2503C43.3905 86.9837 43.0472 86.8503 42.6139 86.8503C42.1872 86.8503 41.8472 86.9837 41.5939 87.2503C41.3339 87.517 41.2039 87.8703 41.2039 88.3103V92.3003C41.2039 92.747 41.3339 93.1037 41.5939 93.3703C41.8472 93.637 42.1872 93.7703 42.6139 93.7703ZM50.1339 93.5203C50.1139 93.5403 50.1105 93.5603 50.1239 93.5803C50.1305 93.6003 50.1505 93.6103 50.1839 93.6103H54.1139C54.1605 93.6103 54.2005 93.627 54.2339 93.6603C54.2672 93.6937 54.2839 93.7337 54.2839 93.7803V95.1903C54.2839 95.237 54.2672 95.277 54.2339 95.3103C54.2005 95.3437 54.1605 95.3603 54.1139 95.3603H47.5839C47.5372 95.3603 47.4972 95.3437 47.4639 95.3103C47.4305 95.277 47.4139 95.237 47.4139 95.1903V93.8503C47.4139 93.7637 47.4405 93.6903 47.4939 93.6303C47.9739 93.1703 48.4572 92.667 48.9439 92.1203C49.4372 91.5737 49.7472 91.2337 49.8739 91.1003C50.1472 90.7803 50.4239 90.4737 50.7039 90.1803C51.5839 89.207 52.0239 88.4837 52.0239 88.0103C52.0239 87.6703 51.9039 87.3903 51.6639 87.1703C51.4172 86.957 51.1005 86.8503 50.7139 86.8503C50.3272 86.8503 50.0139 86.957 49.7739 87.1703C49.5339 87.3903 49.4139 87.6803 49.4139 88.0403V88.4003C49.4139 88.447 49.3972 88.487 49.3639 88.5203C49.3305 88.5537 49.2872 88.5703 49.2339 88.5703H47.5239C47.4772 88.5703 47.4372 88.5537 47.4039 88.5203C47.3705 88.487 47.3539 88.447 47.3539 88.4003V87.7203C47.3805 87.2003 47.5439 86.737 47.8439 86.3303C48.1439 85.9303 48.5439 85.6237 49.0439 85.4103C49.5439 85.197 50.1005 85.0903 50.7139 85.0903C51.4005 85.0903 51.9972 85.2203 52.5039 85.4803C53.0172 85.7337 53.4105 86.077 53.6839 86.5103C53.9572 86.9503 54.0939 87.4337 54.0939 87.9603C54.0939 88.367 53.9939 88.7837 53.7939 89.2103C53.5872 89.637 53.2805 90.097 52.8739 90.5903C52.5739 90.9637 52.2505 91.337 51.9039 91.7103C51.5572 92.077 51.0405 92.607 50.3539 93.3003L50.1339 93.5203ZM62.7939 90.9403C62.8405 90.9403 62.8839 90.957 62.9239 90.9903C62.9572 91.0237 62.9739 91.0637 62.9739 91.1103V92.5803C62.9739 92.627 62.9572 92.667 62.9239 92.7003C62.8839 92.7337 62.8405 92.7503 62.7939 92.7503H62.1739C62.1272 92.7503 62.1039 92.7737 62.1039 92.8203V95.1903C62.1039 95.237 62.0872 95.277 62.0539 95.3103C62.0139 95.3437 61.9705 95.3603 61.9239 95.3603H60.2339C60.1805 95.3603 60.1372 95.3437 60.1039 95.3103C60.0705 95.277 60.0539 95.237 60.0539 95.1903V92.8203C60.0539 92.7737 60.0305 92.7503 59.9839 92.7503H55.5339C55.4872 92.7503 55.4439 92.7337 55.4039 92.7003C55.3705 92.667 55.3539 92.627 55.3539 92.5803V91.4203C55.3539 91.3603 55.3705 91.287 55.4039 91.2003L58.0139 85.3403C58.0539 85.2537 58.1205 85.2103 58.2139 85.2103H60.0239C60.0905 85.2103 60.1372 85.227 60.1639 85.2603C60.1905 85.2937 60.1872 85.3437 60.1539 85.4103L57.7339 90.8503C57.7272 90.8703 57.7272 90.8903 57.7339 90.9103C57.7472 90.9303 57.7639 90.9403 57.7839 90.9403H59.9839C60.0305 90.9403 60.0539 90.9137 60.0539 90.8603V89.0703C60.0539 89.017 60.0705 88.9737 60.1039 88.9403C60.1372 88.907 60.1805 88.8903 60.2339 88.8903H61.9239C61.9705 88.8903 62.0139 88.907 62.0539 88.9403C62.0872 88.9737 62.1039 89.017 62.1039 89.0703V90.8603C62.1039 90.9137 62.1272 90.9403 62.1739 90.9403H62.7939Z" fill="#252530"></path></g><defs><clipPath id="clip0_3303_2411"><rect width="94" height="122" fill="white" transform="translate(0.263916 0.0605469)"></rect></clipPath></defs></svg>