<svg width="161" height="33" viewBox="0 0 161 33" fill="none" xmlns="http://www.w3.org/2000/svg" role="img" aria-labelledby="titleId" class="ClientsSection-module--binance--1a216"><title id="titleId">Binance</title><g clip-path="url(#clip0_10916_143745)"><path d="M7.79705 16.5391L4.21076 20.1267L0.589844 16.5391L4.20942 12.9195L7.79705 16.5391ZM16.5645 7.77166L22.7413 13.9485L26.3622 10.3303L16.5645 0.564453L6.76669 10.3622L10.3876 13.9805L16.5645 7.77166ZM28.9195 12.9195L25.3319 16.5391L28.9514 20.1586L32.5697 16.5391L28.9195 12.9195ZM16.5645 25.3065L10.3876 19.0977L6.76669 22.7172L16.5645 32.5137L26.3622 22.7159L22.7413 19.0977L16.5645 25.3065ZM16.5645 20.128L20.184 16.5071L16.5645 12.9208L12.9449 16.5391L16.5645 20.1267V20.128ZM54.6293 20.5008V20.4395C54.6293 18.0992 53.3806 16.9131 51.3532 16.133C52.6005 15.4475 53.6615 14.3226 53.6615 12.3577V12.2965C53.6615 9.55017 51.4463 7.77166 47.8893 7.77166H39.7463V25.2758H48.077C52.0387 25.3065 54.6293 23.6837 54.6293 20.5021V20.5008ZM49.8236 13.014C49.8236 14.3239 48.7626 14.8537 47.0467 14.8537H43.491V11.141H47.2969C48.9197 11.141 49.8236 11.7959 49.8236 12.9514V13.014ZM50.7914 20.0029C50.7914 21.3128 49.7624 21.9065 48.0757 21.9065H43.491V18.0673H47.9519C49.9181 18.0673 50.7914 18.7862 50.7914 19.9709V20.0029ZM62.7098 25.3065V7.77166H58.8413V25.2758H62.7098V25.3065ZM83.4275 25.3065V7.77166H79.6202V18.5678L71.4146 7.77166H67.8576V25.2758H71.6649V14.1682L80.1514 25.3065H83.4262H83.4275ZM104.767 25.3065L97.2495 7.67848H93.6939L86.1738 25.3065H90.1368L91.7277 21.3754H99.1226L100.713 25.3065H104.77H104.767ZM97.7474 17.9741H93.0988L95.4391 12.2965L97.7474 17.9741ZM123.146 25.3065V7.77166H119.338V18.5678L111.133 7.77166H107.576V25.2758H111.383V14.1682L119.87 25.3065H123.144H123.146ZM143.019 22.467L140.555 20.0029C139.182 21.2502 137.965 22.061 135.937 22.061C132.942 22.061 130.852 19.5649 130.852 16.5697V16.4765C130.852 13.4813 132.973 11.0172 135.937 11.0172C137.684 11.0172 139.058 11.7653 140.43 12.982L142.894 10.1426C141.273 8.55176 139.307 7.42821 136 7.42821C130.634 7.42821 126.858 11.515 126.858 16.4765V16.5391C126.858 21.5617 130.695 25.5554 135.844 25.5554C139.214 25.5873 141.21 24.4012 143.019 22.467ZM159.463 25.3065V21.8746H149.946V18.1924H158.214V14.7606H149.946V11.2035H159.338V7.77166H146.14V25.2758H159.463V25.3065Z" fill="#F0B90B"></path></g><defs><clipPath id="clip0_10916_143745"><rect width="159.746" height="31.9492" fill="white" transform="translate(0.589844 0.564453)"></rect></clipPath></defs></svg>