<svg xmlns="http://www.w3.org/2000/svg" fill="none" viewBox="0 0 157 21" role="img" aria-labelledby="titleId" class="ClientsSection-module--checkout--e3dc4"><title id="titleId">Checkout</title><g fill="#0C1142" clip-path="url(#clip0_5572_33700)"><path d="M116 16.6a1.6 1.6 0 1 0 0-3.2 1.6 1.6 0 0 0 0 3.2ZM27 16.2a6 6 0 0 1-3.3-5.4c0-.8.2-1.6.4-2.4a5 5 0 0 1 1.1-1.8 5 5 0 0 1 4-1.7c.7 0 1.3 0 2 .3.5.2 1 .4 1.4.8.5.3.8.8 1 1.3.3.5.5 1 .6 1.6h-2.9c0-.5-.3-.9-.7-1.2a2 2 0 0 0-1.3-.5 2.3 2.3 0 0 0-2 1c-.5.7-.7 1.6-.7 2.5 0 .9.2 1.8.7 2.6a2.2 2.2 0 0 0 2 1c.5 0 1-.2 1.4-.5.4-.4.7-1 .8-1.5h2.8a4.6 4.6 0 0 1-3 4c-.6.2-1.3.3-2 .3s-1.5-.1-2.2-.4ZM38.9 6.6c.4-.6.8-1 1.4-1.4.5-.3 1.2-.4 1.8-.4A3.7 3.7 0 0 1 45 6a4.7 4.7 0 0 1 1 3v7.3h-3V9.4c.1-.5 0-1-.4-1.5a1.8 1.8 0 0 0-1.4-.6 2 2 0 0 0-1.6.8c-.5.5-.7 1.1-.7 1.8v6.4H36V.7h3v5.9ZM50.7 16.2a5 5 0 0 1-2.9-3.2 7.3 7.3 0 0 1 0-4.6A7 7 0 0 1 49 6.5a5 5 0 0 1 4-1.7 5 5 0 0 1 4 1.9c.4.6.8 1.3 1 2 .3 1 .4 1.9.4 2.8h-8c.1.8.4 1.5.9 2a2.5 2.5 0 0 0 2 .8c.4 0 .9 0 1.3-.3.3-.3.6-.6.7-1h3c-.2.5-.3 1-.6 1.4l-1 1.2c-.5.3-1 .6-1.5.7a6.6 6.6 0 0 1-4.4-.2Zm.4-8.5c-.4.5-.7 1.1-.8 1.8h5c-.1-.7-.4-1.3-.8-1.8a2 2 0 0 0-1.6-.6c-.7 0-1.3.2-1.8.6ZM62.6 16.2a6 6 0 0 1-3.3-5.4c0-.8.2-1.6.4-2.4a5 5 0 0 1 1.1-1.8 5 5 0 0 1 4-1.7c.6 0 1.3 0 1.9.3.5.2 1 .4 1.5.8.4.3.8.8 1 1.3.3.5.5 1 .5 1.6H67c0-.5-.3-.9-.7-1.2a2 2 0 0 0-1.3-.5 2.3 2.3 0 0 0-2 1c-.5.7-.7 1.6-.7 2.5 0 .9.2 1.8.7 2.6a2.2 2.2 0 0 0 2 1c.5 0 1-.2 1.4-.5.4-.4.7-1 .7-1.5H70a4.6 4.6 0 0 1-3 4 6.1 6.1 0 0 1-4.3-.1ZM74.4 12.5v3.8h-3V.7h3v8.6l3.9-4.2h3.5l-4.1 4.3 4.5 6.9h-3.5l-3.1-5.1-1.2 1.3Z"></path><path d="M85.5 16.2a5.5 5.5 0 0 1-3-3.1 6.8 6.8 0 0 1 0-4.7c.3-.7.7-1.3 1.2-1.8.5-.6 1.1-1 1.8-1.3 1.5-.6 3.1-.6 4.6 0a5.5 5.5 0 0 1 3 3.1c.6 1.5.6 3.2 0 4.7-.3.6-.7 1.3-1.2 1.8-.5.6-1 1-1.8 1.3-1.5.6-3.1.6-4.6 0Zm4.4-2.9a5.2 5.2 0 0 0 0-5.2 2.5 2.5 0 0 0-2-1 2.4 2.4 0 0 0-2.2 1 5.2 5.2 0 0 0 0 5.2 2.7 2.7 0 0 0 4.2 0ZM102 15a5 5 0 0 1-1.3 1.2c-.5.3-1.2.4-1.8.4a3.8 3.8 0 0 1-2.9-1.1c-.7-.8-1-1.9-1-3V5.2h3v7c-.1.5 0 1 .4 1.5a1.8 1.8 0 0 0 1.3.5 2 2 0 0 0 1.7-.7c.4-.5.6-1.1.6-1.8V5.1h3v11.2H102V15ZM107.7 5.1V1.6h2.9v3.5h1.8v2h-1.8V13a1 1 0 0 0 .3.9l.8.2h.8v2.2h-2.8l-1-.5-.7-.8a3 3 0 0 1-.3-1.3V7h-1.5V5h1.5ZM121.7 16.1c-.6-.3-1.2-.7-1.6-1.2a5 5 0 0 1-1-1.9 8.5 8.5 0 0 1 0-4.7l1-1.9a4.6 4.6 0 0 1 3.8-1.7c1 0 2.1.3 3 1 .8.7 1.3 1.6 1.4 2.7H127a3 3 0 0 0-1-2c-.6-.4-1.4-.6-2.1-.5-.6 0-1.2 0-1.7.3a3 3 0 0 0-1.1 1l-.7 1.6a7.9 7.9 0 0 0 0 3.7c.2.6.5 1 .8 1.5.3.5.6.8 1.1 1a3.2 3.2 0 0 0 3.9-.5c.6-.5 1-1.2 1-2h1.3c0 1-.6 2.2-1.4 3a4.4 4.4 0 0 1-3.2 1.1c-.7 0-1.5-.2-2.2-.5ZM132.6 16.1c-.7-.3-1.2-.7-1.7-1.2a7.1 7.1 0 0 1-1.4-4.2c0-.8.2-1.6.4-2.4.2-.7.6-1.3 1-1.9.5-.5 1-1 1.7-1.2a5.3 5.3 0 0 1 4.3 0c.6.3 1.1.7 1.6 1.2.4.6.8 1.2 1 1.9.2.8.4 1.6.3 2.4 0 .8 0 1.5-.3 2.3-.2.7-.6 1.3-1 1.9-.4.5-1 1-1.6 1.2a5.3 5.3 0 0 1-4.3 0Zm3.7-1c.5-.3 1-.6 1.2-1 .3-.5.6-1 .7-1.6.3-1.2.3-2.5 0-3.7l-.7-1.5c-.3-.5-.7-.8-1.2-1-.5-.3-1-.4-1.6-.4a3.4 3.4 0 0 0-2.8 1.4c-.3.4-.6 1-.7 1.5a7.2 7.2 0 0 0 0 3.7c.1.6.4 1 .7 1.6.3.4.7.7 1.2 1a3.7 3.7 0 0 0 3.2 0ZM143 5v1.7c.4-.6.9-1 1.4-1.4.6-.4 1.4-.6 2-.6.7 0 1.3.2 1.9.5.5.4 1 1 1.1 1.6a3.9 3.9 0 0 1 4.8-1.8c.5.1.9.3 1.2.6.3.3.5.7.6 1.1l.3 1.5v8H155V8.5a2.4 2.4 0 0 0-.7-1.9c-.4-.4-1-.6-1.6-.6l-1.2.3-.9.6a3.2 3.2 0 0 0-1 2.3v7.2h-1.3v-8a2.4 2.4 0 0 0-.6-1.8A2 2 0 0 0 146 6c-.4 0-.8.1-1.1.3a3 3 0 0 0-1.7 1.7c-.2.4-.3.8-.3 1.3v7h-1.4V5h1.4ZM12.8 10.7 18 1.5a.6.6 0 0 0 0-.7.7.7 0 0 0-.5-.3H6.8a.7.7 0 0 0-.6.3L.7 10.4a.6.6 0 0 0 0 .6l5.5 9.6a.6.6 0 0 0 .6.3h10.7a.7.7 0 0 0 .5-.3.6.6 0 0 0 0-.7l-5.2-9.2Zm-.7-1.2L7.8 1.8h8.7L12 9.5Zm-5.4-7 4.7 8.2L6.7 19l-4.8-8.3 4.8-8.3Zm1.1 17.1 4.3-7.7 4.3 7.7H7.8Z"></path></g><defs><clipPath id="clip0_5572_33700"><path fill="#fff" d="M.6.6h155.7v20.3H.6z"></path></clipPath></defs></svg>