<svg xmlns="http://www.w3.org/2000/svg" fill="none" viewBox="0 0 128 26" role="img" aria-labelledby="titleId" class="ClientsSection-module--dropbox--e954c"><title id="titleId">Dropbox</title><g clip-path="url(#clip0_5572_33296)"><path fill="#0061FF" d="M15.2 5 7.8 9.5l7.4 4.7L7.8 19 .4 14.3l7.4-4.7L.4 4.9 7.8.2 15.2 5ZM7.8 20.4l7.3-4.7 7.4 4.7-7.4 4.7-7.3-4.7Zm7.4-6.2 7.3-4.7-7.3-4.7L22.5.2 29.9 5l-7.4 4.7 7.4 4.7-7.4 4.7-7.3-4.7Z"></path><path fill="#000" d="M35.6 5h6c3.8 0 7 2.1 7 7.1v1c0 5.1-3 7.4-6.9 7.4h-6V5ZM39 7.6v10h2.5c2.2 0 3.6-1.4 3.6-4.6v-.8c0-3.1-1.5-4.6-3.7-4.6H39Zm11.3.2H53l.4 3c.5-2 1.8-3.1 4.1-3.1h.9V11H57c-2.7 0-3.4 1-3.4 3.6v5.8h-3.3V8Zm8.7 6.6V14c0-4.2 2.7-6.5 6.4-6.5 3.8 0 6.4 2.3 6.4 6.5v.4c0 4.1-2.6 6.4-6.4 6.4-4 0-6.4-2.3-6.4-6.4Zm9.4 0V14c0-2.3-1.1-3.7-3-3.7s-3 1.3-3 3.7v.3c0 2.3 1.1 3.6 3 3.6s3-1.3 3-3.6Zm5.1-6.6h2.8l.3 2.4c.6-1.6 2-2.7 4.1-2.7 3.3 0 5.4 2.3 5.4 6.6v.3c0 4.2-2.4 6.4-5.4 6.4-2 0-3.3-1-4-2.4V25h-3.2V8Zm9.2 6.5v-.2c0-2.6-1.3-3.8-3-3.8-1.8 0-3 1.4-3 3.8v.2c0 2.2 1.1 3.6 3 3.6s3-1.2 3-3.6Zm8.2 3.8-.2 2.3h-2.9V3.7H91V10c.8-1.6 2.2-2.5 4.2-2.5 3 0 5.2 2.1 5.2 6.3v.4c0 4.2-2.1 6.6-5.3 6.6-2.1 0-3.5-1-4.2-2.7Zm6.1-4V14c0-2.3-1.2-3.6-3-3.6s-3 1.4-3 3.6v.3c0 2.3 1.2 3.7 3 3.7 2 0 3-1.2 3-3.7Zm4.8.3V14c0-4.2 2.7-6.5 6.4-6.5 3.8 0 6.4 2.3 6.4 6.5v.4c0 4.1-2.6 6.4-6.4 6.4-4 0-6.4-2.3-6.4-6.4Zm9.5 0V14c0-2.3-1.2-3.7-3.1-3.7-1.8 0-3 1.3-3 3.7v.3c0 2.3 1.1 3.6 3 3.6s3-1.3 3-3.6Zm7.6-.5-4.4-6.1h3.8l2.5 3.8 2.6-3.8h3.8l-4.5 6 4.7 6.6h-3.7l-2.9-4.2-2.8 4.2h-4l5-6.5Z"></path></g><defs><clipPath id="clip0_5572_33296"><path fill="#fff" d="M.4.2h127v25H.4z"></path></clipPath></defs></svg>