<svg xmlns="http://www.w3.org/2000/svg" viewBox="0 0 118 18" fill="none" class="CustomerStories-module--headout--702a0"><g clip-path="url(#clip0_1187_25503)"><mask id="mask0_1187_25503" width="118" height="18" x="0" y="0" maskUnits="userSpaceOnUse" style="mask-type: luminance;"><path fill="#fff" d="M118 0H0v18h118V0Z"></path></mask><g fill="#8000FF" mask="url(#mask0_1187_25503)"><path d="M41.8 6c1.1-1 2.8-1.7 4.5-1.7 1.7 0 3 .6 3 3.2v8.8H47V8c0-1.5-.6-2-1.8-2-1.2 0-2.4.7-3.4 1.3v8.9h-2.3V.4h1.2c1 0 1 .2 1 1.6v4ZM53.4 10.7c.1 2.8 1.4 3.9 3.6 3.9a5 5 0 0 0 3.2-1.1h.8v1.6c-.9.6-2.2 1.2-4.4 1.2-3.5 0-5.5-2.3-5.5-6s2.3-6 5.3-6c3.1 0 5 1.8 5 5.6v.8h-8Zm0-1.5h5.7C59 6.7 58 6 56.4 6c-1.5 0-2.7.9-3 3.3ZM69.8 14.9c-.9.9-2 1.4-3.5 1.4-2.1 0-3.7-1.2-3.7-3.5 0-2.4 2-3.6 4.6-3.6 1 0 1.7.2 2.5.4V8c0-1.4-.8-2-2.3-2-1.4 0-2.5.4-3.2 1h-.8V5.3a9 9 0 0 1 4.3-1c2.8 0 4.4 1 4.4 3.6V16h-1c-.8 0-1.1-.2-1.3-1.2Zm0-1.5v-2.5l-2.2-.2c-1.6 0-2.7.6-2.7 2s.9 2 2.1 2c1.3 0 2-.6 2.7-1.3ZM82.2 14.6c-.7 1-2 1.7-3.6 1.7-2.4 0-4.4-1.8-4.4-5.9 0-4.6 2.4-6.2 4.8-6.2 1.5 0 2.5.5 3.2 1.2v-5h1.3c.9 0 1 .2 1 1.6V16H83c-.5 0-.7-.2-.8-1.5Zm0-1.6V7c-.6-.6-1.4-1-2.6-1-1.5 0-3.2.9-3.2 4.3 0 3.2 1.2 4.3 2.8 4.3 1.3 0 2.2-.6 3-1.6ZM86.6 10.3c0-3.7 2.4-6 5.6-6 3.2 0 5.6 2.3 5.6 6 0 3.8-2.4 6-5.6 6-3.2 0-5.6-2.2-5.6-6Zm8.8 0c0-2.8-1.2-4.3-3.2-4.3s-3.3 1.5-3.3 4.3c0 2.9 1.3 4.3 3.3 4.3 2 0 3.2-1.4 3.2-4.3ZM107.4 13.3v-9h2.4V16h-1.5c-.5 0-.8-.2-.8-1.3a7.7 7.7 0 0 1-4.3 1.5c-2 0-3.3-.8-3.3-3.2V4.3h2.3v8.3c0 1.5.8 1.9 1.9 1.9 1.2 0 2.4-.6 3.3-1.2ZM111.5 4.1h1.4V1h1.4c.7 0 .9.2.9 1.2v2h2.6v1.7h-2.6v7c0 1.4.5 1.7 1.7 1.7h1v1.6l-1.8.2c-2 0-3.2-.9-3.2-3.1V5.8h-1.4V4ZM32.1 7.4C29.8 11.8 24 14 17.8 14A34 34 0 0 1 4 11.6c10 1 19.5.6 28.1-4.2Zm0-2c-2.8-.8-5.5-1-8.2-1-6.8 0-13.7 2.1-19.8 4.8a30.2 30.2 0 0 1 19.3-7.4c3.5 0 7.4 1.4 8.7 3.7Zm1.4 1c0-4.5-7-6.4-10.9-6.4-6.2 0-11.4 2.3-15.8 4.7-.3-.5-.7-.5-1.3-.6a23.5 23.5 0 0 0-5 0c-.4.1-.5.5-.4 1A14 14 0 0 0 1.8 9c-.3 1.2-.2 2.3.8 3.2-.3 1.4-.5 2.9-.4 4.2 0 .6.4.8.8.7 1.8-.3 3.5-1 5-1.7.3-.2.5-.4.6-.7l4.3.7 2.1 2a3 3 0 0 0 1.9.6c3.1 0 5.7-.5 8-1.3.8-.3 1.4-1.5 2.4-3 2.1-1.1 6.2-3.1 6.2-7.2Z"></path></g></g><defs><clipPath id="clip0_1187_25503"><path fill="#fff" d="M0 0h118v18H0z"></path></clipPath></defs></svg>