<svg xmlns="http://www.w3.org/2000/svg" viewBox="0 0 116 20" fill="none" class="CustomerStories-module--jumia--b0d0c"><g clip-path="url(#clip0_7716_147824)"><path fill="#282828" d="M7.6 0H12L12 10.3c0 5.2-1.9 8-6 8.9-1.4.3-2.9.6-4.3.7l-.9.1v-4.8h.7c1.5 0 3-.3 4.5-.8.7-.3 1.7-1 1.6-4l.1-6.5V0ZM60.8.8c.5.6.7 1.2.6 2v16h-4.3v-10l-5.7 8.8a3 3 0 0 1-1 1c-.4.3-.9.4-1.4.4-1 0-1.8-.5-2.3-1.4l-5.9-9v10.2h-4.3V2.5c0-.6.2-1.2.6-1.7.5-.5 1.1-.8 1.7-.7.9 0 1.7.4 2.2 1.1l8 11.9 8-11.9C57.4.5 58.3 0 59.2.1c.5 0 1.2.2 1.6.7ZM86.3 1.6A2.6 2.6 0 0 0 82.8.3c-.5.3-1 .7-1.2 1.3L71.3 18.8h5.2l2.6-4.7h9.5l2.7 4.7h5l-10-17.2Zm-.3 8h-4.3L83.8 6 86 9.6ZM33.7 13a5 5 0 0 1-1.9 4.3 9.7 9.7 0 0 1-5 1.4h-4a38.5 38.5 0 0 1-3.3-.3c-.5 0-1-.2-1.6-.5-.5-.2-1-.6-1.4-1l-1-1.6a6 6 0 0 1-.3-2.2V0h4.2v12.8c0 .4 0 1.4 3 1.4h4.2c2.9 0 2.9-1 2.9-1.4V.1h4.2v13ZM68.9.2h-4.5V19H69V.2Z"></path><path fill="#F8991D" d="m114 4.5-.5-.8-.9-1-.3-.3-.7-.6-.7-.5-.4-.2a9 9 0 0 0-8.8 0l-.3.2-.8.5-.7.6-.3.3-.9 1C98 4.8 97.4 6 97.1 7.4a8.7 8.7 0 0 0 .7 5.8l.5.8.2.4.5.7 1.3 1.3.7.5.7.4c1.4.8 2.9 1.2 4.4 1.1 1.6 0 3-.3 4.4-1l.4-.3 1-.7.7-.6.6-.7.5-.7.3-.4a9.5 9.5 0 0 0 0-9.5ZM113 7l-3.5 3.3.8 4.7-4.2-2.2L102 15l.8-4.7L99.3 7l4.7-.7 2.2-4.3 2 4.3 4.7.7Z"></path></g><defs><clipPath id="clip0_7716_147824"><path fill="#fff" d="M.7 0h114.6v20H.7z"></path></clipPath></defs></svg>