<svg width="61" height="17" viewBox="0 0 61 17" fill="none" xmlns="http://www.w3.org/2000/svg" role="img" aria-labelledby="titleId" class="ClientsSection-module--ramp--4b8bf"><title id="titleId">Ramp</title><g clip-path="url(#clip0_10521_2418)"><mask id="mask0_10521_2418" maskUnits="userSpaceOnUse" x="0" y="0" width="61" height="17" style="mask-type: luminance;"><path d="M60.5234 0.0546875H0.523438V16.0547H60.5234V0.0546875Z" fill="white"></path></mask><g mask="url(#mask0_10521_2418)"><path d="M4.67505 5.46295C3.24403 5.46295 2.54155 6.72408 2.54155 8.40807V12.6281H0.523438V3.72278H2.5062V6.03317H2.54062C2.96397 4.61267 3.80788 3.46484 5.10956 3.46484C6.02511 3.46484 6.41124 3.7845 6.41124 3.7845L5.50034 5.61863C5.50034 5.61863 5.21005 5.46295 4.67505 5.46295ZM29.072 6.68539V12.6272H27.106V7.40854C27.106 5.91065 26.6362 5.11749 25.4358 5.11749C24.1928 5.11749 23.5918 6.12069 23.5918 8.04509V12.6262H21.6434V7.40854C21.6434 5.96869 21.1791 5.11749 19.991 5.11749C18.6344 5.11749 18.1124 6.30585 18.1124 8.04509V12.6262H16.1297V3.72278H18.1124V5.73931H18.1301C18.439 4.34368 19.282 3.48235 20.7046 3.48235C22.1151 3.48235 23.0344 4.2405 23.3834 5.58455C23.7155 4.29116 24.5994 3.48235 25.9578 3.48235C27.8531 3.48235 29.072 4.67071 29.072 6.68539ZM10.3777 3.46484C8.55312 3.46484 7.35935 4.32156 6.81505 5.86828L8.49449 6.47904C8.80056 5.54585 9.43888 5.01432 10.413 5.01432C11.5091 5.01432 12.153 5.49703 12.153 6.23768C12.153 6.99492 11.6403 7.15336 10.4828 7.34037C9.19512 7.54764 6.13304 7.61581 6.13304 10.1989C6.13304 11.7124 7.39843 12.851 9.29928 12.851C10.7285 12.851 11.7017 12.267 12.152 11.18H12.1697V12.6272H14.1357V7.1506C14.1348 4.75453 12.929 3.46484 10.3777 3.46484ZM12.2042 8.43567C12.2042 10.3029 11.2802 11.5024 9.8036 11.5024C8.75968 11.5024 8.13348 10.9165 8.13348 10.0717C8.13348 9.27951 8.77736 8.72959 10.012 8.50295C11.2755 8.27079 11.912 7.98429 12.2042 7.29708V8.43567ZM36.0652 3.48235C34.5616 3.48235 33.5678 4.30867 33.1426 5.55046V3.72278H31.0548V16.055H33.125V10.8005H33.1426C33.6032 12.1454 34.5625 12.8851 36.0652 12.8851C38.448 12.8851 40.1535 10.9221 40.1535 8.14831C40.1526 5.39385 38.448 3.48235 36.0652 3.48235ZM35.5516 11.2325C33.901 11.2325 32.9854 10.0349 32.9854 8.17495C32.9854 6.31506 34.0098 5.11749 35.5516 5.11749C37.0924 5.11749 38.1177 6.3731 38.1177 8.17495C38.1177 9.97783 37.0933 11.2325 35.5516 11.2325Z" fill="#3d3d3d"></path><path d="M60.6639 12.5864V12.642L52.5837 12.6448V12.5864C53.7489 11.9284 54.5532 11.2582 55.2768 10.5578H58.5947L60.6639 12.5864ZM58.6618 2.06362L56.6137 0.0546875H56.5542C56.5542 0.0546875 56.5888 3.7986 53.15 7.20361C49.7852 10.5361 45.8281 10.5436 45.8281 10.5436V10.602L47.9146 12.6458C47.9146 12.6458 51.814 12.6844 55.2586 9.30573C58.6906 5.93838 58.6618 2.06362 58.6618 2.06362Z" fill="#3d3d3d"></path></g></g><defs><clipPath id="clip0_10521_2418"><rect width="60" height="16" fill="white" transform="translate(0.523438 0.0546875)"></rect></clipPath></defs></svg>