<svg xmlns="http://www.w3.org/2000/svg" fill="none" viewBox="0 0 47 44" role="img" aria-labelledby="titleId" class="ClientsSection-module--rockstar--d3381"><title id="titleId">Rockstar Games</title><g clip-path="url(#clip0_5572_33376)"><rect width="46.6" height="42.9" x="0.2" y="0.3" fill="#FCAF16" rx="8"></rect><path fill="#000" d="M38.7.3H8.5a8.2 8.2 0 0 0-8.3 8V35a8 8 0 0 0 8.2 8h30.3a8 8 0 0 0 8.1-8V8.3a8 8 0 0 0-8-8ZM46 35c0 4-3.2 7.1-7.3 7.1H8.4a7 7 0 0 1-7.3-7v-27c0-4 3.2-7 7.4-7h30.2a7 7 0 0 1 7.2 7v27Z"></path><path fill="#000" d="M40.3 25.8h-5.9l-1-5.9-3.3 5.8h-.7a5 5 0 0 1-.5-2.2v-3.3c0-1.6-.5-2.5-1.8-2.8 2.8-.5 4-2.3 4-5 0-3.6-2.4-4.4-5.6-4.4h-8.7l-3.6 17.3h4.6L19 19h3c1.7 0 2.4.8 2.4 2.4l-.1 3c0 .3 0 1 .3 1.3l3.3 3.6-2.9 6.1 6.1-3.6 4.6 3.5-.8-5.8 5.3-3.7Zm-16.7-10h-3.7l.9-4.2h3.4c1.2 0 2.5.3 2.5 1.8 0 1.9-1.5 2.4-3.1 2.4Zm7.7 15-4.2 2.5 2-4.2-2.5-2.5h4l2.4-4.2.7 4.2h3.9L34 29.1l.6 4.3-3.4-2.7Z"></path></g><defs><clipPath id="clip0_5572_33376"><rect width="46.6" height="42.9" x="0.2" y="0.3" fill="#fff" rx="8"></rect></clipPath></defs></svg>