<svg width="124" height="34" viewBox="0 0 124 34" fill="none" xmlns="http://www.w3.org/2000/svg" role="img" aria-labelledby="titleId" class="ClientsSection-module--tiktok--8bc28"><title id="titleId">TikTok</title><path d="M10.03 11.4585V10.3285C9.63768 10.2663 9.24147 10.2323 8.84434 10.2266C4.99978 10.2185 1.59596 12.7098 0.441455 16.3771C-0.713009 20.0443 0.649716 24.0362 3.80565 26.232C1.44161 23.702 0.785173 20.0189 2.12959 16.8279C3.474 13.6369 6.56819 11.534 10.03 11.4585Z" fill="#25F4EE"></path><path d="M10.2438 24.2602C12.3934 24.2574 14.1603 22.5639 14.2544 20.4163V1.25244H17.7556C17.6841 0.852012 17.65 0.445806 17.6537 0.0390625L12.8651 0.0390625V19.1844C12.7854 21.3429 11.0144 23.0526 8.85444 23.0561C8.20898 23.0506 7.57406 22.8919 7.00195 22.593C7.37272 23.1067 7.85965 23.5255 8.42303 23.8152C8.98641 24.105 9.61026 24.2574 10.2438 24.2602ZM24.2949 7.75466V6.68946C23.0064 6.6899 21.7464 6.30966 20.6733 5.59649C21.614 6.69012 22.8853 7.4477 24.2949 7.75466Z" fill="#25F4EE"></path><path d="M20.6715 5.59747C19.6143 4.39366 19.0316 2.84621 19.032 1.24414H17.7538C17.9189 2.12991 18.2627 2.97275 18.7644 3.72122C19.266 4.46969 19.9149 5.10809 20.6715 5.59747ZM8.84339 15.0173C6.99873 15.0268 5.39725 16.2905 4.95916 18.0824C4.52103 19.8743 5.35871 21.7344 6.9909 22.594C6.10652 21.373 5.98157 19.7591 6.66749 18.4166C7.35347 17.074 8.73436 16.2296 10.242 16.2307C10.644 16.2357 11.0432 16.2981 11.4276 16.416V11.5439C11.0351 11.4851 10.6389 11.4541 10.242 11.4513H10.029V15.1562C9.64259 15.0526 9.24324 15.0059 8.84339 15.0173Z" fill="#FE2C55"></path><path d="M24.2892 7.75586V11.4608C21.9039 11.4562 19.5805 10.7011 17.6481 9.30266V19.0375C17.6379 23.895 13.6971 27.8275 8.83955 27.8275C7.03556 27.8307 5.27502 27.274 3.80078 26.2343C6.26108 28.8804 10.09 29.7514 13.4529 28.4301C16.8157 27.1086 19.0274 23.864 19.0281 20.2508V10.5438C20.967 11.9332 23.2933 12.6784 25.6786 12.6742V7.90404C25.2116 7.90256 24.746 7.85291 24.2892 7.75586Z" fill="#FE2C55"></path><path d="M17.6531 19.0372V9.30244C19.5914 10.6929 21.9181 11.4382 24.3035 11.4328V7.72783C22.8942 7.43023 21.6199 6.68254 20.6727 5.59747C19.9161 5.10809 19.2672 4.46969 18.7656 3.72122C18.264 2.97275 17.9201 2.12991 17.755 1.24414H14.2538V20.4173C14.1838 22.1279 13.0381 23.6064 11.3992 24.1012C9.76023 24.596 7.98772 23.9985 6.98282 22.6125C5.35067 21.753 4.51298 19.8928 4.95108 18.101C5.38921 16.3091 6.99065 15.0453 8.83531 15.0359C9.2374 15.0395 9.63684 15.1018 10.0209 15.2211V11.5162C6.53969 11.5751 3.42211 13.6854 2.07393 16.8954C0.725703 20.1055 1.4015 23.809 3.79658 26.336C5.28535 27.3414 7.04844 27.8623 8.84459 27.8272C13.7022 27.8272 17.6429 23.8948 17.6531 19.0372Z" fill="black"></path><path d="M40.8635 27.8412H35.8009V11.3853H30.748L30.7383 6.87449H46.3423L44.9097 11.3853H40.8635V27.8412ZM82.0323 27.8412H76.9793V11.3853H71.9071L71.8974 6.87449H87.8596L86.427 11.3853H82.0323V27.8412ZM47.291 13.544H52.2955V27.8412H47.3297L47.291 13.544ZM60.7558 20.8814L59.2747 22.314V27.8412H54.2799V6.81641H59.2747V16.5835L64.2309 11.7435H70.1937L63.9308 17.8225L70.9487 27.8412H65.4409L60.7558 20.8814ZM113.705 20.8814L112.272 22.314V27.8412H107.268L107.219 6.81641H112.272V16.5835L117.219 11.7435H123.182L116.919 17.8225L123.888 27.8412H118.38L113.705 20.8814Z" fill="black"></path><path d="M49.798 11.9086C51.188 11.9086 52.3148 10.7818 52.3148 9.39178C52.3148 8.0018 51.188 6.875 49.798 6.875C48.4081 6.875 47.2812 8.0018 47.2812 9.39178C47.2812 10.7818 48.4081 11.9086 49.798 11.9086Z" fill="black"></path><path d="M87.2216 19.28C87.2232 14.8142 90.6586 11.1005 95.1108 10.752H94.3654C89.8407 11.0159 86.3066 14.7621 86.3066 19.2945C86.3066 23.8269 89.8407 27.5731 94.3654 27.837H95.1108C90.6475 27.4876 87.208 23.7569 87.2216 19.28Z" fill="#25F4EE"></path><path d="M97.0578 10.728H96.3027C100.74 11.0945 104.155 14.8032 104.155 19.256C104.155 23.7089 100.74 27.4175 96.3027 27.784H97.0578C101.784 27.784 105.615 23.9529 105.615 19.227C105.615 14.501 101.784 10.6699 97.0578 10.6699V10.728Z" fill="#FE2C55"></path><path d="M95.6996 23.446C93.4008 23.446 91.5373 21.5824 91.5373 19.2836C91.5373 16.9848 93.4008 15.1213 95.6996 15.1213C97.9985 15.1213 99.862 16.9848 99.862 19.2836C99.8567 21.5802 97.9962 23.4407 95.6996 23.446ZM95.6996 10.7266C90.9737 10.7266 87.1426 14.5577 87.1426 19.2836C87.1426 24.0096 90.9737 27.8407 95.6996 27.8407C100.426 27.8407 104.257 24.0096 104.257 19.2836C104.257 17.0142 103.355 14.8376 101.75 13.2329C100.146 11.6281 97.9691 10.7266 95.6996 10.7266Z" fill="black"></path></svg>