<svg xmlns="http://www.w3.org/2000/svg" fill="none" viewBox="0 0 131 34" role="img" aria-labelledby="titleId" class="ClientsSection-module--trustpilot--5f100"><title>Trustpilot</title><g clip-path="url(#clip0_5572_33350)"><path fill="#191919" d="M35 11.1h13.2v2.5H43v13.8h-2.9V13.6H35v-2.5Zm12.6 4.5h2.5V18c0-.3.2-.6.5-1a4.1 4.1 0 0 1 1.8-1.4l1.1-.2h1V18a8.3 8.3 0 0 0-1-.1 2.9 2.9 0 0 0-2.3 1 4 4 0 0 0-.7 1.3c-.2.5-.3 1-.3 1.7v5.6h-2.6V15.6Zm18.9 11.8h-2.6v-1.6c-.3.6-.8 1-1.4 1.4-.7.4-1.3.6-2 .6-1.5 0-2.6-.4-3.3-1.2-.7-.8-1-2-1-3.5v-7.5h2.5V23c0 1 .2 1.7.6 2.2.4.4 1 .6 1.7.6.5 0 1 0 1.4-.2l.8-.7c.3-.3.4-.6.5-1l.2-1.3v-6.9h2.6v11.8Zm4.4-3.7c.1.7.4 1.2.9 1.5.5.3 1 .5 1.8.5h.8l.9-.3c.3 0 .5-.2.7-.4l.2-.8c0-.4-.1-.7-.4-.9l-.8-.5-1.3-.3-1.3-.3-1.4-.4-1.3-.6-.8-1a3 3 0 0 1-.3-1.5c0-.7.1-1.2.4-1.6.4-.5.8-.8 1.2-1 .5-.3 1-.5 1.6-.6l1.7-.2c.6 0 1.2 0 1.8.2l1.5.6a3.7 3.7 0 0 1 1.6 2.8h-2.7c-.1-.6-.4-1-.8-1.2-.5-.2-1-.3-1.6-.3a4.8 4.8 0 0 0-1.3.2c-.3 0-.4.2-.6.4l-.2.6c0 .3 0 .6.3.8l.9.5 1.2.3 1.4.3c.5 0 1 .2 1.4.4.5.1.9.3 1.2.6.4.3.7.6.9 1 .2.4.3.9.3 1.4 0 .7-.2 1.3-.5 1.8s-.7 1-1.2 1.2l-1.7.7a8.5 8.5 0 0 1-4 0 5 5 0 0 1-1.6-.8 3.8 3.8 0 0 1-1.5-3.1h2.6Zm8.6-8h2V12H84v3.5h2.3v2h-2.3v7c0 .2 0 .4.2.5l.3.3.7.1h1.1v2h-.8a6.7 6.7 0 0 1-2.5-.1 2 2 0 0 1-1.5-1.5 7 7 0 0 1-.1-1.3v-7h-2v-2Zm8.8 0h2.4v1.5c.4-.7 1-1.1 1.6-1.4a5 5 0 0 1 2.1-.5c1 0 1.8.2 2.4.5.7.3 1.3.8 1.8 1.4.4.5.8 1.2 1 2a8.4 8.4 0 0 1-.9 6.7 4.6 4.6 0 0 1-3.9 1.9 6.4 6.4 0 0 1-2.2-.5A4 4 0 0 1 91 26v5.9h-2.6V15.6Zm9 5.8c0-.5 0-1-.2-1.5-.1-.5-.3-1-.6-1.3l-1-1c-.4-.2-.9-.3-1.4-.3-1.1 0-2 .3-2.5 1.1a5 5 0 0 0-.8 3c0 .6 0 1.2.2 1.7.1.5.3 1 .6 1.3l1 .9 1.5.3a3 3 0 0 0 2.5-1.3c.3-.4.5-.8.6-1.3l.1-1.6Zm4.6-10.4h2.6v2.5H102v-2.5Zm0 4.5h2.6v11.8H102V15.6Zm5-4.5h2.6v16.3h-2.6V11.1Zm10.5 16.7c-1 0-1.8-.2-2.5-.5s-1.4-.8-1.9-1.3c-.5-.6-.9-1.2-1.1-2a7.6 7.6 0 0 1 0-5c.2-.7.6-1.4 1.1-2 .5-.5 1.2-1 1.9-1.2.7-.3 1.6-.5 2.5-.5 1 0 1.8.2 2.5.5.8.3 1.4.7 2 1.3.4.5.8 1.2 1 2 .3.7.5 1.5.5 2.4 0 1-.2 1.8-.4 2.5a5.3 5.3 0 0 1-3 3.3c-.8.3-1.6.5-2.6.5Zm0-2.1a3 3 0 0 0 2.6-1.3c.3-.4.4-.9.6-1.4a6 6 0 0 0 0-3 4 4 0 0 0-.6-1.3l-1-1a3 3 0 0 0-1.6-.3 3 3 0 0 0-2.5 1.3c-.3.4-.5.8-.6 1.3a6.1 6.1 0 0 0 0 3c0 .5.3 1 .6 1.4.2.4.6.7 1 1 .4.2 1 .3 1.5.3Zm6.7-10h2V12h2.6v3.5h2.4v2h-2.4v7l.2.5.4.3.7.1h1.1v2h-.9a6.7 6.7 0 0 1-2.5-.1c-.4-.1-.7-.3-1-.6a2 2 0 0 1-.4-1 7 7 0 0 1-.2-1.2v-7h-2v-2Z"></path><path fill="#00B67A" d="M32 11.1H20L16.4-.2 12.7 11H.7l9.7 7-3.7 11.4 9.7-7 9.6 7L22.3 18l9.7-7Z"></path><path fill="#005128" d="m23.1 20.7-.8-2.6-6 4.4 6.8-1.8Z"></path></g><defs><clipPath id="clip0_5572_33350"><path fill="#fff" d="M.4.2h130v33H.4z"></path></clipPath></defs></svg>