<svg xmlns="http://www.w3.org/2000/svg" fill="none" viewBox="-0 0 111 30" role="img" aria-labelledby="titleId" class="ClientsSection-module--usBank--a35db"><title id="titleId">US Bank</title><g clip-path="url(#clip0_5572_33293)"><path fill="#0941C5" d="M36.6.4v21.4l-18 6.1L.3 21.8V.3l36.2.1Zm-28 5.7H2.9v10.3c0 3.4 2.5 5.1 5.1 5.1 2.3 0 3.8-.8 4.9-2.2v2h5.5V6h-5.6v8c0 2.3-1.4 2.8-2.3 2.8-1.7 0-1.8-1.1-1.8-3l-.1-7.8Zm18.6-.4c-3 0-7.1 1-7.1 4.7 0 2.6 1.7 4 6.1 4.7 2.7.5 3.2.8 3.2 1.6 0 .9-1.2 1.2-2 1.2-.6 0-1.3-.2-1.5-.4-.4-.4-.7-.8-.7-1.3h-5.5c.1 3.9 4 5.2 7.5 5.2 3.6 0 7.6-1.2 7.6-5.2 0-2.5-1.7-3.6-3.6-4.2-2-.7-4-.8-5-1.2-.2-.1-.6-.4-.6-.8 0-1 .9-1.2 1.7-1.2.5 0 1 .2 1.3.4.3.3.5.7.7 1.2h5.2c-.3-3.8-4.2-4.7-7.3-4.7Zm19.5 4.2c-2.1 0-2.5 2-2.5 3.6 0 1.9.5 3.8 2.5 3.8s2.5-2 2.5-3.8c0-1.8-.4-3.6-2.5-3.6Zm-8-9.5h5.7v7.4c1-1.3 2.4-2 4.1-2 5 0 6.4 4.3 6.4 7.9 0 3.8-2 8-6.3 8-2.7 0-3.6-1-4.4-2v1.7h-5.5V.4Zm26.7 14-2.2.7c-1.3.3-2 .7-2 1.6 0 .6.8 1.4 1.8 1.4 1.4 0 2.4-.8 2.4-2.3v-1.5Zm5.5 3.3c0 1.2 0 2.4.7 3.4h-6l-.2-1.4c-1.2 1.4-3 1.8-4.8 1.8-3 0-5.3-1.4-5.3-4.6 0-4.7 5.5-4.5 8.5-5 .8-.2 1.6-.5 1.6-1.4 0-1-1-1.4-1.8-1.4-1.7 0-2.1.9-2.1 1.6H56c.1-4.2 4.2-5 7.7-5 7.2 0 7.1 3 7.1 5.9v6.1Zm2-11.6h5.6v2c1-1.6 2.6-2.3 4.8-2.3 2.8 0 5.1 1.7 5.1 5.1v10.4H83v-7.9c0-1.7-.2-3-1.8-3-1 0-2.2.5-2.2 2.9v8H73L73 6ZM90.8.4h5.7v10l3.7-4.3h6.4l-5.4 5.6 6.2 9.3h-7l-3-5.4-1 1V21h-5.8V.4h.2Zm18 20h.2V20h.5l.1.2v.1h.3V20l-.1-.3-.3-.1.3-.2v-.2c0-.2 0-.3-.2-.4h-.9v1.7Zm.6-.7h-.6v-.5h.6l.1.2-.1.3Zm.8-.8a1.2 1.2 0 0 0-1-.4c-.4 0-.6.1-.9.4-.2.3-.4.5-.4 1 0 .3.2.6.4.8.3.3.5.4 1 .4.3 0 .6-.1.9-.4.2-.2.3-.5.3-.9s0-.6-.3-.9Zm-.2.1c.3.3.4.6.3.8 0 .3-.1.5-.3.8-.2.3-.5.3-.8.3l-.8-.3c-.2-.3-.3-.5-.2-.8l.3-.8.7-.4c.3 0 .6.2.8.4Z"></path><path fill="#DE162B" d="M36.6.4v21.4l-18 6.1L.3 21.8V.3l36.2.1Zm-28 5.7H2.9v10.3c0 3.4 2.5 5.1 5.1 5.1 2.3 0 3.8-.8 4.9-2.2v2h5.5V6h-5.6v8c0 2.3-1.4 2.8-2.3 2.8-1.7 0-1.8-1.1-1.8-3l-.1-7.8Zm18.6-.4c-3 0-7.1 1-7.1 4.7 0 2.6 1.7 4 6.1 4.7 2.7.5 3.2.8 3.2 1.6 0 .9-1.2 1.2-2 1.2-.6 0-1.3-.2-1.5-.4-.4-.4-.7-.8-.7-1.3h-5.5c.1 3.9 4 5.2 7.5 5.2 3.6 0 7.6-1.2 7.6-5.2 0-2.5-1.7-3.6-3.6-4.2-2-.7-4-.8-5-1.2-.2-.1-.6-.4-.6-.8 0-1 .9-1.2 1.7-1.2.5 0 1 .2 1.3.4.3.3.5.7.7 1.2h5.2c-.3-3.8-4.2-4.7-7.3-4.7Z"></path></g><defs><clipPath id="clip0_5572_33293"><path fill="#fff" d="M.4.3h110v28.8H.4z"></path></clipPath></defs></svg>