<svg xmlns="http://www.w3.org/2000/svg" fill="none" viewBox="12 5 144 30" role="img" aria-labelledby="titleId" class="ClientsSection-module--westernUnion--e514a"><title id="titleId">Western Union</title><path fill="#FD0" d="M21 25.8c1.4 2.6 3.8 2.6 5.2 0l.9-1.4-7.4-12.7h-7L21 25.8ZM36.4 20.4c-.6 1-1.8 1-2.4 0l-5-8.7h-7l8.2 14.1c1.5 2.6 3.9 2.6 5.3 0l5.5-9.4-2.7-4.7h-7l5 8.7Z"></path><path fill="#000" d="M48.4 25.9h2.4c1.5-5.5 2.1-7.8 2.3-9.3l2.3 9.2h2.4l3.4-12.3H59c-1.5 5.7-2 8-2.3 9.4l-2.3-9.4H52l-2.3 9.6-2.3-9.6H45l3.3 12.3ZM65 26c1.7 0 3.4-1 4.1-2.4l-1.6-.8h-.1c-.2.5-1 1.4-2.4 1.4s-2.5-.9-2.6-2.1h7V22c0-1.8-.4-3.2-1.4-4.2-.8-.8-1.9-1.2-3.2-1.2-1.3 0-2.5.4-3.3 1.3-.8.9-1.3 2.1-1.3 3.4 0 2.8 2 4.8 4.7 4.8Zm-.2-7.6c1.3 0 2.3.8 2.4 2h-4.8c.1-1.2 1.1-2 2.4-2ZM73.9 26c2.3 0 3.7-1 3.7-2.7 0-2.1-1.8-2.6-3.3-3-1-.2-2-.5-2-1.1 0-.6.6-1 1.4-1 .9 0 1.5.5 1.6 1.3v.3l2-.3c0-1.7-1.6-3-3.6-3s-3.5 1.2-3.5 2.8c0 2 1.8 2.4 3.3 2.8 1 .3 2 .5 2 1.2 0 .6-.6 1-1.6 1s-1.9-.5-2-1.4v-.1l-2 .3c.1 2 2.2 3 4 3ZM79.3 24.2c0 1 .6 1.9 1.7 1.9 1.3 0 1.7-.2 1.7-.2v-1.7h-.9c-.3 0-.5-.2-.5-.5v-5.2h1.4v-1.8h-1.4v-2.6l-2 .6v2h-1v1.8h1v5.7ZM95.2 17.9v-1.2h-1.8V26h2.2v-5.6c0-.6.2-1 .5-1.3.5-.4 1.2-.5 2.1-.4h.1v-1.9c-1.3-.1-2.5.2-3 1.2ZM104.2 16.6c-1.3 0-2.5.5-3.1 1.5v-1.4h-1.9V26h2.2v-5c0-1.5.8-2.4 2.2-2.4 1 0 2 .4 2 2.3v5h2.2v-5.3c0-2.9-1.9-4-3.6-4ZM119.5 20.7c0 2.2-1 3.3-2.8 3.3-1.9 0-2.8-1.1-2.8-3.3v-7.2h-2.2v7.2c0 3.4 1.8 5.4 5 5.4 3 0 5-2 5-5.4v-7.2h-2.2v7.2ZM127.9 16.6c-1.3 0-2.5.5-3.1 1.5v-1.4h-1.9V26h2.2v-5c0-1.5.8-2.4 2.2-2.4 1 0 2 .4 2 2.3v5h2.2v-5.3c0-2.9-1.8-4-3.6-4ZM135 16.7H133V26h2.1v-9.2ZM134 13.4c-.7 0-1.3.5-1.3 1.2s.6 1.2 1.3 1.2c.7 0 1.2-.5 1.2-1.2s-.5-1.2-1.2-1.2ZM140.9 16.6c-1.4 0-2.6.4-3.5 1.3-.9.9-1.4 2-1.4 3.4 0 2.8 2 4.8 4.9 4.8 2.7 0 4.8-2 4.8-4.8 0-1.3-.5-2.5-1.4-3.4a4.9 4.9 0 0 0-3.4-1.3Zm0 7.5a2.7 2.7 0 0 1-2.8-2.8c0-1.6 1.2-2.8 2.8-2.8 1.5 0 2.7 1.2 2.7 2.8 0 1.6-1.2 2.8-2.7 2.8ZM151.7 16.6c-1.3 0-2.5.5-3.2 1.5v-1.4h-1.8V26h2.2v-5c0-1.5.8-2.4 2.2-2.4.9 0 2 .4 2 2.3v5h2.2v-5.3c0-2.9-1.9-4-3.6-4ZM87.9 16.6c-1.3 0-2.5.4-3.3 1.3-.9 1-1.3 2.1-1.3 3.4 0 2.8 2 4.8 4.7 4.8 1.8 0 3.5-1 4.2-2.5l-1.7-.8c-.2.5-1 1.4-2.5 1.4-1.4 0-2.4-.9-2.6-2.1h7V22c.1-1.8-.3-3.2-1.3-4.2-.8-.8-2-1.2-3.2-1.2Zm-2.5 3.8c.2-1.2 1.2-2 2.5-2s2.3.8 2.4 2h-4.9Z"></path></svg>