<svg viewBox="0 0 196 187" fill="none" xmlns="http://www.w3.org/2000/svg" class="CustomerStories-module--dropbox2--87f8d"><g filter="url(#filter0_d_1205_26853)"><path d="M193.199 79.4424C193.199 82.2426 193.199 83.6428 192.654 84.7123C192.175 85.6531 191.41 86.418 190.469 86.8974C189.4 87.4424 187.999 87.4424 185.199 87.4424H156.683C155.211 87.4424 154.475 87.4424 153.8 87.2489C153.202 87.0776 152.641 86.7963 152.146 86.4193C151.588 85.9936 151.148 85.4036 150.268 84.2236L143.237 74.7907C142.357 73.6106 141.918 73.0206 141.359 72.595C140.864 72.218 140.304 71.9366 139.706 71.7653C139.031 71.5719 138.295 71.5719 136.823 71.5719H73.8005C71.0002 71.5719 69.6001 71.5719 68.5305 71.0269C67.5897 70.5475 66.8248 69.7826 66.3454 68.8418C65.8005 67.7723 65.8005 66.3721 65.8005 63.5719V0.557777C65.8005 -2.24248 65.8005 -3.64261 66.3454 -4.71217C66.8248 -5.65298 67.5897 -6.41788 68.5305 -6.89725C69.6001 -7.44221 71.0002 -7.44221 73.8005 -7.44221H185.199C187.999 -7.44221 189.4 -7.44221 190.469 -6.89725C191.41 -6.41788 192.175 -5.65298 192.654 -4.71217C193.199 -3.64261 193.199 -2.24248 193.199 0.557785V79.4424Z" fill="#FAFAF8"></path><path d="M193.199 79.4424C193.199 82.2426 193.199 83.6428 192.654 84.7123C192.175 85.6531 191.41 86.418 190.469 86.8974C189.4 87.4424 187.999 87.4424 185.199 87.4424H156.683C155.211 87.4424 154.475 87.4424 153.8 87.2489C153.202 87.0776 152.641 86.7963 152.146 86.4193C151.588 85.9936 151.148 85.4036 150.268 84.2236L143.237 74.7907C142.357 73.6106 141.918 73.0206 141.359 72.595C140.864 72.218 140.304 71.9366 139.706 71.7653C139.031 71.5719 138.295 71.5719 136.823 71.5719H73.8005C71.0002 71.5719 69.6001 71.5719 68.5305 71.0269C67.5897 70.5475 66.8248 69.7826 66.3454 68.8418C65.8005 67.7723 65.8005 66.3721 65.8005 63.5719V0.557777C65.8005 -2.24248 65.8005 -3.64261 66.3454 -4.71217C66.8248 -5.65298 67.5897 -6.41788 68.5305 -6.89725C69.6001 -7.44221 71.0002 -7.44221 73.8005 -7.44221H185.199C187.999 -7.44221 189.4 -7.44221 190.469 -6.89725C191.41 -6.41788 192.175 -5.65298 192.654 -4.71217C193.199 -3.64261 193.199 -2.24248 193.199 0.557785V79.4424Z" fill="url(#paint0_linear_1205_26853)" fill-opacity="0.02"></path><path d="M193.199 79.4424C193.199 82.2426 193.199 83.6428 192.654 84.7123C192.175 85.6531 191.41 86.418 190.469 86.8974C189.4 87.4424 187.999 87.4424 185.199 87.4424H156.683C155.211 87.4424 154.475 87.4424 153.8 87.2489C153.202 87.0776 152.641 86.7963 152.146 86.4193C151.588 85.9936 151.148 85.4036 150.268 84.2236L143.237 74.7907C142.357 73.6106 141.918 73.0206 141.359 72.595C140.864 72.218 140.304 71.9366 139.706 71.7653C139.031 71.5719 138.295 71.5719 136.823 71.5719H73.8005C71.0002 71.5719 69.6001 71.5719 68.5305 71.0269C67.5897 70.5475 66.8248 69.7826 66.3454 68.8418C65.8005 67.7723 65.8005 66.3721 65.8005 63.5719V0.557777C65.8005 -2.24248 65.8005 -3.64261 66.3454 -4.71217C66.8248 -5.65298 67.5897 -6.41788 68.5305 -6.89725C69.6001 -7.44221 71.0002 -7.44221 73.8005 -7.44221H185.199C187.999 -7.44221 189.4 -7.44221 190.469 -6.89725C191.41 -6.41788 192.175 -5.65298 192.654 -4.71217C193.199 -3.64261 193.199 -2.24248 193.199 0.557785V79.4424Z" stroke="#F0F0ED" stroke-linecap="round"></path></g><g filter="url(#filter1_di_1205_26853)"><path d="M136.199 88.9576C136.199 86.7174 136.199 85.5973 135.763 84.7417C135.38 83.989 134.768 83.3771 134.015 82.9936C133.16 82.5576 132.039 82.5576 129.799 82.5576H98.8796C97.7021 82.5576 97.1134 82.5576 96.5733 82.7124C96.095 82.8494 95.6465 83.0745 95.2507 83.3761C94.8039 83.7166 94.452 84.1886 93.7483 85.1327L85.7571 95.8531C85.0534 96.7971 84.7015 97.2691 84.2547 97.6096C83.8589 97.9112 83.4104 98.1363 82.9321 98.2734C82.392 98.4281 81.8033 98.4281 80.6258 98.4281H15.2005C12.9602 98.4281 11.8401 98.4281 10.9845 98.8641C10.2318 99.2476 9.61992 99.8595 9.23643 100.612C8.80045 101.468 8.80045 102.588 8.80045 104.828V171.042C8.80045 173.282 8.80045 174.403 9.23643 175.258C9.61992 176.011 10.2318 176.623 10.9845 177.006C11.8401 177.442 12.9602 177.442 15.2005 177.442H129.799C132.039 177.442 133.16 177.442 134.015 177.006C134.768 176.623 135.38 176.011 135.763 175.258C136.199 174.403 136.199 173.282 136.199 171.042V88.9576Z" fill="#FAFAF8" shape-rendering="crispEdges"></path><path d="M136.199 88.9576C136.199 86.7174 136.199 85.5973 135.763 84.7417C135.38 83.989 134.768 83.3771 134.015 82.9936C133.16 82.5576 132.039 82.5576 129.799 82.5576H98.8796C97.7021 82.5576 97.1134 82.5576 96.5733 82.7124C96.095 82.8494 95.6465 83.0745 95.2507 83.3761C94.8039 83.7166 94.452 84.1886 93.7483 85.1327L85.7571 95.8531C85.0534 96.7971 84.7015 97.2691 84.2547 97.6096C83.8589 97.9112 83.4104 98.1363 82.9321 98.2734C82.392 98.4281 81.8033 98.4281 80.6258 98.4281H15.2005C12.9602 98.4281 11.8401 98.4281 10.9845 98.8641C10.2318 99.2476 9.61992 99.8595 9.23643 100.612C8.80045 101.468 8.80045 102.588 8.80045 104.828V171.042C8.80045 173.282 8.80045 174.403 9.23643 175.258C9.61992 176.011 10.2318 176.623 10.9845 177.006C11.8401 177.442 12.9602 177.442 15.2005 177.442H129.799C132.039 177.442 133.16 177.442 134.015 177.006C134.768 176.623 135.38 176.011 135.763 175.258C136.199 174.403 136.199 173.282 136.199 171.042V88.9576Z" fill="url(#paint1_linear_1205_26853)" fill-opacity="0.01" shape-rendering="crispEdges"></path><path d="M138.436 83.3797L135.763 84.7417L138.436 83.3797C138.906 84.3009 139.065 85.2336 139.135 86.0861C139.199 86.8769 139.199 87.8228 139.199 88.8528C139.199 88.8876 139.199 88.9226 139.199 88.9576V171.042L139.199 171.147C139.199 172.177 139.199 173.123 139.135 173.914C139.065 174.766 138.906 175.699 138.436 176.62L135.78 175.267L138.436 176.62C137.765 177.937 136.694 179.008 135.377 179.679C134.456 180.149 133.523 180.308 132.671 180.378C131.88 180.442 130.934 180.442 129.904 180.442H129.799H15.2005H15.0955C14.0656 180.442 13.1197 180.442 12.329 180.378C11.4764 180.308 10.5437 180.149 9.62252 179.679C8.30538 179.008 7.23451 177.937 6.5634 176.62C6.09402 175.699 5.93457 174.766 5.86491 173.914C5.80031 173.123 5.80037 172.177 5.80045 171.147V171.042V104.828V104.724C5.80037 103.694 5.80031 102.748 5.86491 101.957C5.93457 101.104 6.09402 100.171 6.5634 99.2502C7.23451 97.9331 8.30539 96.8622 9.62252 96.1911C10.5437 95.7217 11.4764 95.5622 12.329 95.4926C13.1197 95.428 14.0657 95.4281 15.0956 95.4281L15.2005 95.4281H80.6258C81.2453 95.4281 81.5943 95.4271 81.8579 95.4131C82.0209 95.4043 82.0886 95.3929 82.1064 95.3892C82.2255 95.355 82.3372 95.299 82.4357 95.224C82.4493 95.2119 82.4989 95.1645 82.6034 95.0389C82.7722 94.8361 82.9816 94.5568 83.3518 94.0601L91.343 83.3397C91.3891 83.2779 91.4354 83.2156 91.4819 83.1528C92.0406 82.4002 92.6378 81.5954 93.4324 80.99L95.2507 83.3761L93.4324 80.99C94.1249 80.4622 94.9099 80.0683 95.7469 79.8284C96.7072 79.5533 97.7094 79.5553 98.6467 79.5573C98.7248 79.5575 98.8024 79.5576 98.8796 79.5576H129.799C129.834 79.5576 129.869 79.5576 129.904 79.5576C130.934 79.5575 131.88 79.5575 132.671 79.6221C133.523 79.6917 134.456 79.8512 135.377 80.3206L134.015 82.9936L135.377 80.3206C136.694 80.9917 137.765 82.0625 138.436 83.3797ZM82.4318 95.2273C82.4315 95.2275 82.4327 95.2266 82.4356 95.2241C82.4333 95.2258 82.432 95.227 82.4318 95.2273Z" stroke="#D9D9D6" stroke-opacity="0.2" stroke-width="6" stroke-linecap="round" shape-rendering="crispEdges"></path></g><g filter="url(#filter2_dd_1205_26853)"><path d="M136.199 90.5576C136.199 87.7574 136.199 86.3572 135.654 85.2877C135.175 84.3469 134.41 83.582 133.469 83.1026C132.4 82.5576 130.999 82.5576 128.199 82.5576H99.6825C98.2107 82.5576 97.4748 82.5576 96.7997 82.7511C96.2018 82.9224 95.6411 83.2037 95.1464 83.5807C94.5879 84.0064 94.1481 84.5964 93.2684 85.7764L86.237 95.2093C85.3573 96.3894 84.9175 96.9794 84.359 97.405C83.8643 97.782 83.3036 98.0634 82.7057 98.2347C82.0307 98.4281 81.2947 98.4281 79.8229 98.4281H16.8005C14.0002 98.4281 12.6001 98.4281 11.5305 98.9731C10.5897 99.4525 9.82479 100.217 9.34542 101.158C8.80045 102.228 8.80045 103.628 8.80045 106.428V169.442C8.80045 172.242 8.80045 173.643 9.34542 174.712C9.82479 175.653 10.5897 176.418 11.5305 176.897C12.6001 177.442 14.0002 177.442 16.8005 177.442H128.199C130.999 177.442 132.4 177.442 133.469 176.897C134.41 176.418 135.175 175.653 135.654 174.712C136.199 173.643 136.199 172.242 136.199 169.442V90.5576Z" fill="#FAFAF8"></path><path d="M136.199 90.5576C136.199 87.7574 136.199 86.3572 135.654 85.2877C135.175 84.3469 134.41 83.582 133.469 83.1026C132.4 82.5576 130.999 82.5576 128.199 82.5576H99.6825C98.2107 82.5576 97.4748 82.5576 96.7997 82.7511C96.2018 82.9224 95.6411 83.2037 95.1464 83.5807C94.5879 84.0064 94.1481 84.5964 93.2684 85.7764L86.237 95.2093C85.3573 96.3894 84.9175 96.9794 84.359 97.405C83.8643 97.782 83.3036 98.0634 82.7057 98.2347C82.0307 98.4281 81.2947 98.4281 79.8229 98.4281H16.8005C14.0002 98.4281 12.6001 98.4281 11.5305 98.9731C10.5897 99.4525 9.82479 100.217 9.34542 101.158C8.80045 102.228 8.80045 103.628 8.80045 106.428V169.442C8.80045 172.242 8.80045 173.643 9.34542 174.712C9.82479 175.653 10.5897 176.418 11.5305 176.897C12.6001 177.442 14.0002 177.442 16.8005 177.442H128.199C130.999 177.442 132.4 177.442 133.469 176.897C134.41 176.418 135.175 175.653 135.654 174.712C136.199 173.643 136.199 172.242 136.199 169.442V90.5576Z" fill="url(#paint2_linear_1205_26853)" fill-opacity="0.01"></path><path d="M136.199 90.5576C136.199 87.7574 136.199 86.3572 135.654 85.2877C135.175 84.3469 134.41 83.582 133.469 83.1026C132.4 82.5576 130.999 82.5576 128.199 82.5576H99.6825C98.2107 82.5576 97.4748 82.5576 96.7997 82.7511C96.2018 82.9224 95.6411 83.2037 95.1464 83.5807C94.5879 84.0064 94.1481 84.5964 93.2684 85.7764L86.237 95.2093C85.3573 96.3894 84.9175 96.9794 84.359 97.405C83.8643 97.782 83.3036 98.0634 82.7057 98.2347C82.0307 98.4281 81.2947 98.4281 79.8229 98.4281H16.8005C14.0002 98.4281 12.6001 98.4281 11.5305 98.9731C10.5897 99.4525 9.82479 100.217 9.34542 101.158C8.80045 102.228 8.80045 103.628 8.80045 106.428V169.442C8.80045 172.242 8.80045 173.643 9.34542 174.712C9.82479 175.653 10.5897 176.418 11.5305 176.897C12.6001 177.442 14.0002 177.442 16.8005 177.442H128.199C130.999 177.442 132.4 177.442 133.469 176.897C134.41 176.418 135.175 175.653 135.654 174.712C136.199 173.643 136.199 172.242 136.199 169.442V90.5576Z" stroke="#F35B22" stroke-linecap="round"></path></g><defs><filter id="filter0_d_1205_26853" x="63.3003" y="-8.94238" width="132.399" height="99.8848" filterUnits="userSpaceOnUse" color-interpolation-filters="sRGB"><feFlood flood-opacity="0" result="BackgroundImageFix"></feFlood><feColorMatrix in="SourceAlpha" type="matrix" values="0 0 0 0 0 0 0 0 0 0 0 0 0 0 0 0 0 0 127 0" result="hardAlpha"></feColorMatrix><feOffset dy="1"></feOffset><feGaussianBlur stdDeviation="1"></feGaussianBlur><feComposite in2="hardAlpha" operator="out"></feComposite><feColorMatrix type="matrix" values="0 0 0 0 0.0941176 0 0 0 0 0.0980392 0 0 0 0 0.0862745 0 0 0 0.06 0"></feColorMatrix><feBlend mode="normal" in2="BackgroundImageFix" result="effect1_dropShadow_1205_26853"></feBlend><feBlend mode="normal" in="SourceGraphic" in2="effect1_dropShadow_1205_26853" result="shape"></feBlend></filter><filter id="filter1_di_1205_26853" x="0.800293" y="75.5557" width="143.399" height="110.887" filterUnits="userSpaceOnUse" color-interpolation-filters="sRGB"><feFlood flood-opacity="0" result="BackgroundImageFix"></feFlood><feColorMatrix in="SourceAlpha" type="matrix" values="0 0 0 0 0 0 0 0 0 0 0 0 0 0 0 0 0 0 127 0" result="hardAlpha"></feColorMatrix><feOffset dy="1"></feOffset><feGaussianBlur stdDeviation="1"></feGaussianBlur><feComposite in2="hardAlpha" operator="out"></feComposite><feColorMatrix type="matrix" values="0 0 0 0 0.0941176 0 0 0 0 0.0980392 0 0 0 0 0.0862745 0 0 0 0.06 0"></feColorMatrix><feBlend mode="normal" in2="BackgroundImageFix" result="effect1_dropShadow_1205_26853"></feBlend><feBlend mode="normal" in="SourceGraphic" in2="effect1_dropShadow_1205_26853" result="shape"></feBlend><feColorMatrix in="SourceAlpha" type="matrix" values="0 0 0 0 0 0 0 0 0 0 0 0 0 0 0 0 0 0 127 0" result="hardAlpha"></feColorMatrix><feOffset dy="1"></feOffset><feGaussianBlur stdDeviation="0.5"></feGaussianBlur><feComposite in2="hardAlpha" operator="arithmetic" k2="-1" k3="1"></feComposite><feColorMatrix type="matrix" values="0 0 0 0 0.466667 0 0 0 0 0.211765 0 0 0 0 0.109804 0 0 0 0.25 0"></feColorMatrix><feBlend mode="normal" in2="shape" result="effect2_innerShadow_1205_26853"></feBlend></filter><filter id="filter2_dd_1205_26853" x="3.30029" y="81.0576" width="138.399" height="105.885" filterUnits="userSpaceOnUse" color-interpolation-filters="sRGB"><feFlood flood-opacity="0" result="BackgroundImageFix"></feFlood><feColorMatrix in="SourceAlpha" type="matrix" values="0 0 0 0 0 0 0 0 0 0 0 0 0 0 0 0 0 0 127 0" result="hardAlpha"></feColorMatrix><feMorphology radius="2" operator="erode" in="SourceAlpha" result="effect1_dropShadow_1205_26853"></feMorphology><feOffset dy="2"></feOffset><feGaussianBlur stdDeviation="2"></feGaussianBlur><feComposite in2="hardAlpha" operator="out"></feComposite><feColorMatrix type="matrix" values="0 0 0 0 0.0941176 0 0 0 0 0.0980392 0 0 0 0 0.0862745 0 0 0 0.1 0"></feColorMatrix><feBlend mode="normal" in2="BackgroundImageFix" result="effect1_dropShadow_1205_26853"></feBlend><feColorMatrix in="SourceAlpha" type="matrix" values="0 0 0 0 0 0 0 0 0 0 0 0 0 0 0 0 0 0 127 0" result="hardAlpha"></feColorMatrix><feMorphology radius="1" operator="erode" in="SourceAlpha" result="effect2_dropShadow_1205_26853"></feMorphology><feOffset dy="4"></feOffset><feGaussianBlur stdDeviation="3"></feGaussianBlur><feComposite in2="hardAlpha" operator="out"></feComposite><feColorMatrix type="matrix" values="0 0 0 0 0.0941176 0 0 0 0 0.0980392 0 0 0 0 0.0862745 0 0 0 0.1 0"></feColorMatrix><feBlend mode="normal" in2="effect1_dropShadow_1205_26853" result="effect2_dropShadow_1205_26853"></feBlend><feBlend mode="normal" in="SourceGraphic" in2="effect2_dropShadow_1205_26853" result="shape"></feBlend></filter><linearGradient id="paint0_linear_1205_26853" x1="92.1287" y1="-13.8197" x2="162.987" y2="42.8762" gradientUnits="userSpaceOnUse"><stop stop-color="#484946"></stop><stop offset="1" stop-color="#6E6F6C"></stop></linearGradient><linearGradient id="paint1_linear_1205_26853" x1="13.3476" y1="196.31" x2="100.293" y2="89.0794" gradientUnits="userSpaceOnUse"><stop stop-color="#484946"></stop><stop offset="1" stop-color="#6E6F6C"></stop></linearGradient><linearGradient id="paint2_linear_1205_26853" x1="19.4341" y1="201.609" x2="132.81" y2="97.8497" gradientUnits="userSpaceOnUse"><stop stop-color="#484946"></stop><stop offset="1" stop-color="#6E6F6C"></stop></linearGradient></defs></svg>