<svg viewBox="0 0 171 135" fill="none" xmlns="http://www.w3.org/2000/svg" class="CustomerStories-module--dropbox3--4620e"><g filter="url(#filter0_d_1205_26850)"><path d="M-16.1992 88.4424C-16.1992 91.2426 -16.1992 92.6428 -15.6543 93.7123C-15.1749 94.6531 -14.41 95.418 -13.4692 95.8974C-12.3996 96.4424 -10.9995 96.4424 -8.19922 96.4424H20.3175C21.7893 96.4424 22.5252 96.4424 23.2003 96.2489C23.7982 96.0776 24.3589 95.7963 24.8536 95.4193C25.4121 94.9936 25.8519 94.4036 26.7316 93.2236L33.763 83.7907C34.6427 82.6106 35.0825 82.0206 35.641 81.595C36.1357 81.218 36.6964 80.9366 37.2943 80.7653C37.9693 80.5719 38.7053 80.5719 40.1771 80.5719H103.2C106 80.5719 107.4 80.5719 108.469 80.0269C109.41 79.5475 110.175 78.7826 110.655 77.8418C111.2 76.7723 111.2 75.3721 111.2 72.5719V9.55778C111.2 6.75752 111.2 5.35739 110.655 4.28783C110.175 3.34702 109.41 2.58212 108.469 2.10275C107.4 1.55779 106 1.55779 103.2 1.55779H-8.19921C-10.9995 1.55779 -12.3996 1.55779 -13.4692 2.10275C-14.41 2.58212 -15.1749 3.34702 -15.6543 4.28783C-16.1992 5.35739 -16.1992 6.75752 -16.1992 9.55779V88.4424Z" fill="#FAFAF8"></path><path d="M-16.1992 88.4424C-16.1992 91.2426 -16.1992 92.6428 -15.6543 93.7123C-15.1749 94.6531 -14.41 95.418 -13.4692 95.8974C-12.3996 96.4424 -10.9995 96.4424 -8.19922 96.4424H20.3175C21.7893 96.4424 22.5252 96.4424 23.2003 96.2489C23.7982 96.0776 24.3589 95.7963 24.8536 95.4193C25.4121 94.9936 25.8519 94.4036 26.7316 93.2236L33.763 83.7907C34.6427 82.6106 35.0825 82.0206 35.641 81.595C36.1357 81.218 36.6964 80.9366 37.2943 80.7653C37.9693 80.5719 38.7053 80.5719 40.1771 80.5719H103.2C106 80.5719 107.4 80.5719 108.469 80.0269C109.41 79.5475 110.175 78.7826 110.655 77.8418C111.2 76.7723 111.2 75.3721 111.2 72.5719V9.55778C111.2 6.75752 111.2 5.35739 110.655 4.28783C110.175 3.34702 109.41 2.58212 108.469 2.10275C107.4 1.55779 106 1.55779 103.2 1.55779H-8.19921C-10.9995 1.55779 -12.3996 1.55779 -13.4692 2.10275C-14.41 2.58212 -15.1749 3.34702 -15.6543 4.28783C-16.1992 5.35739 -16.1992 6.75752 -16.1992 9.55779V88.4424Z" fill="url(#paint0_linear_1205_26850)" fill-opacity="0.02"></path><path d="M-16.1992 88.4424C-16.1992 91.2426 -16.1992 92.6428 -15.6543 93.7123C-15.1749 94.6531 -14.41 95.418 -13.4692 95.8974C-12.3996 96.4424 -10.9995 96.4424 -8.19922 96.4424H20.3175C21.7893 96.4424 22.5252 96.4424 23.2003 96.2489C23.7982 96.0776 24.3589 95.7963 24.8536 95.4193C25.4121 94.9936 25.8519 94.4036 26.7316 93.2236L33.763 83.7907C34.6427 82.6106 35.0825 82.0206 35.641 81.595C36.1357 81.218 36.6964 80.9366 37.2943 80.7653C37.9693 80.5719 38.7053 80.5719 40.1771 80.5719H103.2C106 80.5719 107.4 80.5719 108.469 80.0269C109.41 79.5475 110.175 78.7826 110.655 77.8418C111.2 76.7723 111.2 75.3721 111.2 72.5719V9.55778C111.2 6.75752 111.2 5.35739 110.655 4.28783C110.175 3.34702 109.41 2.58212 108.469 2.10275C107.4 1.55779 106 1.55779 103.2 1.55779H-8.19921C-10.9995 1.55779 -12.3996 1.55779 -13.4692 2.10275C-14.41 2.58212 -15.1749 3.34702 -15.6543 4.28783C-16.1992 5.35739 -16.1992 6.75752 -16.1992 9.55779V88.4424Z" stroke="#F0F0ED" stroke-linecap="round"></path></g><g filter="url(#filter1_d_1205_26850)"><path d="M40.8008 100.558C40.8008 97.7574 40.8008 96.3572 41.3457 95.2877C41.8251 94.3469 42.59 93.582 43.5308 93.1026C44.6004 92.5576 46.0005 92.5576 48.8008 92.5576H77.3175C78.7893 92.5576 79.5252 92.5576 80.2003 92.7511C80.7982 92.9224 81.3589 93.2037 81.8536 93.5807C82.4121 94.0064 82.8519 94.5964 83.7316 95.7764L90.763 105.209C91.6427 106.389 92.0825 106.979 92.641 107.405C93.1357 107.782 93.6964 108.063 94.2943 108.235C94.9693 108.428 95.7053 108.428 97.1771 108.428H160.2C163 108.428 164.4 108.428 165.469 108.973C166.41 109.452 167.175 110.217 167.655 111.158C168.2 112.228 168.2 113.628 168.2 116.428V179.442C168.2 182.242 168.2 183.643 167.655 184.712C167.175 185.653 166.41 186.418 165.469 186.897C164.4 187.442 163 187.442 160.2 187.442H48.8008C46.0005 187.442 44.6004 187.442 43.5308 186.897C42.59 186.418 41.8251 185.653 41.3457 184.712C40.8008 183.643 40.8008 182.242 40.8008 179.442V100.558Z" fill="#FAFAF8"></path><path d="M40.8008 100.558C40.8008 97.7574 40.8008 96.3572 41.3457 95.2877C41.8251 94.3469 42.59 93.582 43.5308 93.1026C44.6004 92.5576 46.0005 92.5576 48.8008 92.5576H77.3175C78.7893 92.5576 79.5252 92.5576 80.2003 92.7511C80.7982 92.9224 81.3589 93.2037 81.8536 93.5807C82.4121 94.0064 82.8519 94.5964 83.7316 95.7764L90.763 105.209C91.6427 106.389 92.0825 106.979 92.641 107.405C93.1357 107.782 93.6964 108.063 94.2943 108.235C94.9693 108.428 95.7053 108.428 97.1771 108.428H160.2C163 108.428 164.4 108.428 165.469 108.973C166.41 109.452 167.175 110.217 167.655 111.158C168.2 112.228 168.2 113.628 168.2 116.428V179.442C168.2 182.242 168.2 183.643 167.655 184.712C167.175 185.653 166.41 186.418 165.469 186.897C164.4 187.442 163 187.442 160.2 187.442H48.8008C46.0005 187.442 44.6004 187.442 43.5308 186.897C42.59 186.418 41.8251 185.653 41.3457 184.712C40.8008 183.643 40.8008 182.242 40.8008 179.442V100.558Z" fill="url(#paint1_linear_1205_26850)" fill-opacity="0.02"></path><path d="M40.8008 100.558C40.8008 97.7574 40.8008 96.3572 41.3457 95.2877C41.8251 94.3469 42.59 93.582 43.5308 93.1026C44.6004 92.5576 46.0005 92.5576 48.8008 92.5576H77.3175C78.7893 92.5576 79.5252 92.5576 80.2003 92.7511C80.7982 92.9224 81.3589 93.2037 81.8536 93.5807C82.4121 94.0064 82.8519 94.5964 83.7316 95.7764L90.763 105.209C91.6427 106.389 92.0825 106.979 92.641 107.405C93.1357 107.782 93.6964 108.063 94.2943 108.235C94.9693 108.428 95.7053 108.428 97.1771 108.428H160.2C163 108.428 164.4 108.428 165.469 108.973C166.41 109.452 167.175 110.217 167.655 111.158C168.2 112.228 168.2 113.628 168.2 116.428V179.442C168.2 182.242 168.2 183.643 167.655 184.712C167.175 185.653 166.41 186.418 165.469 186.897C164.4 187.442 163 187.442 160.2 187.442H48.8008C46.0005 187.442 44.6004 187.442 43.5308 186.897C42.59 186.418 41.8251 185.653 41.3457 184.712C40.8008 183.643 40.8008 182.242 40.8008 179.442V100.558Z" stroke="#F0F0ED" stroke-linecap="round"></path></g><defs><filter id="filter0_d_1205_26850" x="-18.6992" y="0.0576172" width="132.399" height="99.8848" filterUnits="userSpaceOnUse" color-interpolation-filters="sRGB"><feFlood flood-opacity="0" result="BackgroundImageFix"></feFlood><feColorMatrix in="SourceAlpha" type="matrix" values="0 0 0 0 0 0 0 0 0 0 0 0 0 0 0 0 0 0 127 0" result="hardAlpha"></feColorMatrix><feOffset dy="1"></feOffset><feGaussianBlur stdDeviation="1"></feGaussianBlur><feComposite in2="hardAlpha" operator="out"></feComposite><feColorMatrix type="matrix" values="0 0 0 0 0.0941176 0 0 0 0 0.0980392 0 0 0 0 0.0862745 0 0 0 0.06 0"></feColorMatrix><feBlend mode="normal" in2="BackgroundImageFix" result="effect1_dropShadow_1205_26850"></feBlend><feBlend mode="normal" in="SourceGraphic" in2="effect1_dropShadow_1205_26850" result="shape"></feBlend></filter><filter id="filter1_d_1205_26850" x="38.3008" y="91.0576" width="132.399" height="99.8848" filterUnits="userSpaceOnUse" color-interpolation-filters="sRGB"><feFlood flood-opacity="0" result="BackgroundImageFix"></feFlood><feColorMatrix in="SourceAlpha" type="matrix" values="0 0 0 0 0 0 0 0 0 0 0 0 0 0 0 0 0 0 127 0" result="hardAlpha"></feColorMatrix><feOffset dy="1"></feOffset><feGaussianBlur stdDeviation="1"></feGaussianBlur><feComposite in2="hardAlpha" operator="out"></feComposite><feColorMatrix type="matrix" values="0 0 0 0 0.0941176 0 0 0 0 0.0980392 0 0 0 0 0.0862745 0 0 0 0.06 0"></feColorMatrix><feBlend mode="normal" in2="BackgroundImageFix" result="effect1_dropShadow_1205_26850"></feBlend><feBlend mode="normal" in="SourceGraphic" in2="effect1_dropShadow_1205_26850" result="shape"></feBlend></filter><linearGradient id="paint0_linear_1205_26850" x1="84.8713" y1="-4.81966" x2="14.0133" y2="51.8762" gradientUnits="userSpaceOnUse"><stop stop-color="#484946"></stop><stop offset="1" stop-color="#6E6F6C"></stop></linearGradient><linearGradient id="paint1_linear_1205_26850" x1="141.871" y1="193.82" x2="71.0133" y2="137.124" gradientUnits="userSpaceOnUse"><stop stop-color="#484946"></stop><stop offset="1" stop-color="#6E6F6C"></stop></linearGradient></defs></svg>