<svg viewBox="0 0 171 91" fill="none" xmlns="http://www.w3.org/2000/svg" class="CustomerStories-module--dropbox1--ede0f"><g filter="url(#filter0_d_1205_26856)"><path d="M168.2 79.4424C168.2 82.2426 168.2 83.6428 167.655 84.7123C167.175 85.6531 166.41 86.418 165.47 86.8974C164.4 87.4424 163 87.4424 160.2 87.4424H131.683C130.211 87.4424 129.475 87.4424 128.8 87.2489C128.202 87.0776 127.642 86.7963 127.147 86.4193C126.588 85.9936 126.149 85.4036 125.269 84.2236L118.237 74.7907C117.358 73.6106 116.918 73.0206 116.359 72.595C115.865 72.218 115.304 71.9366 114.706 71.7653C114.031 71.5719 113.295 71.5719 111.823 71.5719H48.8009C46.0007 71.5719 44.6005 71.5719 43.531 71.0269C42.5902 70.5475 41.8253 69.7826 41.3459 68.8418C40.8009 67.7723 40.8009 66.3721 40.8009 63.5719V0.557777C40.8009 -2.24248 40.8009 -3.64261 41.3459 -4.71217C41.8253 -5.65298 42.5902 -6.41788 43.531 -6.89725C44.6005 -7.44221 46.0007 -7.44221 48.8009 -7.44221H160.2C163 -7.44221 164.4 -7.44221 165.47 -6.89725C166.41 -6.41788 167.175 -5.65298 167.655 -4.71217C168.2 -3.64261 168.2 -2.24248 168.2 0.557785V79.4424Z" fill="#FAFAF8"></path><path d="M168.2 79.4424C168.2 82.2426 168.2 83.6428 167.655 84.7123C167.175 85.6531 166.41 86.418 165.47 86.8974C164.4 87.4424 163 87.4424 160.2 87.4424H131.683C130.211 87.4424 129.475 87.4424 128.8 87.2489C128.202 87.0776 127.642 86.7963 127.147 86.4193C126.588 85.9936 126.149 85.4036 125.269 84.2236L118.237 74.7907C117.358 73.6106 116.918 73.0206 116.359 72.595C115.865 72.218 115.304 71.9366 114.706 71.7653C114.031 71.5719 113.295 71.5719 111.823 71.5719H48.8009C46.0007 71.5719 44.6005 71.5719 43.531 71.0269C42.5902 70.5475 41.8253 69.7826 41.3459 68.8418C40.8009 67.7723 40.8009 66.3721 40.8009 63.5719V0.557777C40.8009 -2.24248 40.8009 -3.64261 41.3459 -4.71217C41.8253 -5.65298 42.5902 -6.41788 43.531 -6.89725C44.6005 -7.44221 46.0007 -7.44221 48.8009 -7.44221H160.2C163 -7.44221 164.4 -7.44221 165.47 -6.89725C166.41 -6.41788 167.175 -5.65298 167.655 -4.71217C168.2 -3.64261 168.2 -2.24248 168.2 0.557785V79.4424Z" fill="url(#paint0_linear_1205_26856)" fill-opacity="0.02"></path><path d="M168.2 79.4424C168.2 82.2426 168.2 83.6428 167.655 84.7123C167.175 85.6531 166.41 86.418 165.47 86.8974C164.4 87.4424 163 87.4424 160.2 87.4424H131.683C130.211 87.4424 129.475 87.4424 128.8 87.2489C128.202 87.0776 127.642 86.7963 127.147 86.4193C126.588 85.9936 126.149 85.4036 125.269 84.2236L118.237 74.7907C117.358 73.6106 116.918 73.0206 116.359 72.595C115.865 72.218 115.304 71.9366 114.706 71.7653C114.031 71.5719 113.295 71.5719 111.823 71.5719H48.8009C46.0007 71.5719 44.6005 71.5719 43.531 71.0269C42.5902 70.5475 41.8253 69.7826 41.3459 68.8418C40.8009 67.7723 40.8009 66.3721 40.8009 63.5719V0.557777C40.8009 -2.24248 40.8009 -3.64261 41.3459 -4.71217C41.8253 -5.65298 42.5902 -6.41788 43.531 -6.89725C44.6005 -7.44221 46.0007 -7.44221 48.8009 -7.44221H160.2C163 -7.44221 164.4 -7.44221 165.47 -6.89725C166.41 -6.41788 167.175 -5.65298 167.655 -4.71217C168.2 -3.64261 168.2 -2.24248 168.2 0.557785V79.4424Z" stroke="#F0F0ED" stroke-linecap="round"></path></g><defs><filter id="filter0_d_1205_26856" x="38.3008" y="-8.94238" width="132.399" height="99.8848" filterUnits="userSpaceOnUse" color-interpolation-filters="sRGB"><feFlood flood-opacity="0" result="BackgroundImageFix"></feFlood><feColorMatrix in="SourceAlpha" type="matrix" values="0 0 0 0 0 0 0 0 0 0 0 0 0 0 0 0 0 0 127 0" result="hardAlpha"></feColorMatrix><feOffset dy="1"></feOffset><feGaussianBlur stdDeviation="1"></feGaussianBlur><feComposite in2="hardAlpha" operator="out"></feComposite><feColorMatrix type="matrix" values="0 0 0 0 0.0941176 0 0 0 0 0.0980392 0 0 0 0 0.0862745 0 0 0 0.06 0"></feColorMatrix><feBlend mode="normal" in2="BackgroundImageFix" result="effect1_dropShadow_1205_26856"></feBlend><feBlend mode="normal" in="SourceGraphic" in2="effect1_dropShadow_1205_26856" result="shape"></feBlend></filter><linearGradient id="paint0_linear_1205_26856" x1="67.1292" y1="-13.8197" x2="137.987" y2="42.8762" gradientUnits="userSpaceOnUse"><stop stop-color="#484946"></stop><stop offset="1" stop-color="#6E6F6C"></stop></linearGradient></defs></svg>