<svg xmlns="http://www.w3.org/2000/svg" width="263" height="325" fill="none"><style>@keyframes paymentFraud-stroke-5{0%{stroke-dashoffset:416.9500732421875px;stroke-dasharray:416.9500732421875px}to{stroke-dashoffset:0;stroke-dasharray:416.9500732421875px}}@keyframes paymentFraud-fill-5{0%{fill:transparent}to{fill:#fafaf8}}@keyframes paymentFraud-stroke-6{0%{stroke-dashoffset:416.9500732421875px;stroke-dasharray:416.9500732421875px}to{stroke-dashoffset:0;stroke-dasharray:416.9500732421875px}}@keyframes paymentFraud-fill-6{0%{fill:transparent}to{fill:url(#paint1_linear_1959_18501)}}@keyframes paymentFraud-stroke-7{0%{stroke-dashoffset:416.9500732421875px;stroke-dasharray:416.9500732421875px}to{stroke-dashoffset:0;stroke-dasharray:416.9500732421875px}}@keyframes paymentFraud-stroke-8{0%{stroke-dashoffset:416.9500732421875px;stroke-dasharray:416.9500732421875px}to{stroke-dashoffset:0;stroke-dasharray:416.9500732421875px}}@keyframes paymentFraud-fill-8{0%{fill:transparent}to{fill:#fafaf8}}@keyframes paymentFraud-stroke-9{0%{stroke-dashoffset:416.9500732421875px;stroke-dasharray:416.9500732421875px}to{stroke-dashoffset:0;stroke-dasharray:416.9500732421875px}}@keyframes paymentFraud-fill-9{0%{fill:transparent}to{fill:url(#paint2_linear_1959_18501)}}@keyframes paymentFraud-stroke-10{0%{stroke-dashoffset:416.9500732421875px;stroke-dasharray:416.9500732421875px}to{stroke-dashoffset:0;stroke-dasharray:416.9500732421875px}}@keyframes paymentFraud-stroke-11{0%{stroke-dashoffset:178.57525634765625px;stroke-dasharray:178.57525634765625px}to{stroke-dashoffset:0;stroke-dasharray:178.57525634765625px}}@keyframes paymentFraud-fill-11{0%{fill:transparent}to{fill:#f35b22}}@keyframes paymentFraud-stroke-12{0%{stroke-dashoffset:62.9222526550293px;stroke-dasharray:62.9222526550293px}to{stroke-dashoffset:0;stroke-dasharray:62.9222526550293px}}@keyframes paymentFraud-fill-12{0%{fill:transparent}to{fill:#fff}}@keyframes paymentFraud-stroke-13{0%{stroke-dashoffset:90.42674255371094px;stroke-dasharray:90.42674255371094px}to{stroke-dashoffset:0;stroke-dasharray:90.42674255371094px}}@keyframes paymentFraud-fill-13{0%{fill:transparent}to{fill:#d14200}}@keyframes paymentFraud-stroke-14{0%{stroke-dashoffset:65.73436737060547px;stroke-dasharray:65.73436737060547px}to{stroke-dashoffset:0;stroke-dasharray:65.73436737060547px}}@keyframes paymentFraud-fill-14{0%{fill:transparent}to{fill:#d14200}}@keyframes paymentFraud-stroke-15{0%{stroke-dashoffset:39.67138671875px;stroke-dasharray:39.67138671875px}to{stroke-dashoffset:0;stroke-dasharray:39.67138671875px}}@keyframes paymentFraud-fill-15{0%{fill:transparent}to{fill:#d14200}}@keyframes paymentFraud-stroke-16{0%{stroke-dashoffset:324.7325134277344px;stroke-dasharray:324.7325134277344px}to{stroke-dashoffset:0;stroke-dasharray:324.7325134277344px}}@keyframes paymentFraud-fill-16{0%{fill:transparent}to{fill:#f35b22}}@keyframes paymentFraud-stroke-17{0%{stroke-dashoffset:104.42265319824219px;stroke-dasharray:104.42265319824219px}to{stroke-dashoffset:0;stroke-dasharray:104.42265319824219px}}@keyframes paymentFraud-fill-17{0%{fill:transparent}to{fill:#f35b22}}@keyframes paymentFraud-stroke-18{0%{stroke-dashoffset:67.40043640136719px;stroke-dasharray:67.40043640136719px}to{stroke-dashoffset:0;stroke-dasharray:67.40043640136719px}}@keyframes paymentFraud-fill-18{0%{fill:transparent}to{fill:#f35b22}}@keyframes paymentFraud-stroke-19{0%{stroke-dashoffset:27.535385131835938px;stroke-dasharray:27.535385131835938px}to{stroke-dashoffset:0;stroke-dasharray:27.535385131835938px}}@keyframes paymentFraud-stroke-20{0%{stroke-dashoffset:466.7974548339844px;stroke-dasharray:466.7974548339844px}to{stroke-dashoffset:0;stroke-dasharray:466.7974548339844px}}@keyframes paymentFraud-fill-20{0%{fill:transparent}to{fill:#141415}}@keyframes paymentFraud-stroke-21{0%{stroke-dashoffset:198.27919006347656px;stroke-dasharray:198.27919006347656px}to{stroke-dashoffset:0;stroke-dasharray:198.27919006347656px}}@keyframes paymentFraud-fill-21{0%{fill:transparent}to{fill:#181916}}@keyframes paymentFraud-stroke-22{0%{stroke-dashoffset:324.49169921875px;stroke-dasharray:324.49169921875px}to{stroke-dashoffset:0;stroke-dasharray:324.49169921875px}}@keyframes paymentFraud-fill-22{0%{fill:transparent}to{fill:#fafafa}}@keyframes paymentFraud-stroke-23{0%{stroke-dashoffset:324.49169921875px;stroke-dasharray:324.49169921875px}to{stroke-dashoffset:0;stroke-dasharray:324.49169921875px}}@keyframes paymentFraud-stroke-24{0%{stroke-dashoffset:174.95664978027344px;stroke-dasharray:174.95664978027344px}to{stroke-dashoffset:0;stroke-dasharray:174.95664978027344px}}@keyframes paymentFraud-fill-24{0%{fill:transparent}to{fill:#484946}}@keyframes paymentFraud-stroke-25{0%{stroke-dashoffset:134.03436279296875px;stroke-dasharray:134.03436279296875px}to{stroke-dashoffset:0;stroke-dasharray:134.03436279296875px}}@keyframes paymentFraud-fill-25{0%{fill:transparent}to{fill:#181916}}@keyframes paymentFraud-stroke-26{0%{stroke-dashoffset:152.49169921875px;stroke-dasharray:152.49169921875px}to{stroke-dashoffset:0;stroke-dasharray:152.49169921875px}}@keyframes paymentFraud-fill-26{0%{fill:transparent}to{fill:#fafafa}}@keyframes paymentFraud-stroke-27{0%{stroke-dashoffset:152.49169921875px;stroke-dasharray:152.49169921875px}to{stroke-dashoffset:0;stroke-dasharray:152.49169921875px}}@keyframes paymentFraud-stroke-28{0%{stroke-dashoffset:191.90771484375px;stroke-dasharray:191.90771484375px}to{stroke-dashoffset:0;stroke-dasharray:191.90771484375px}}@keyframes paymentFraud-fill-28{0%{fill:transparent}to{fill:#484946}}@keyframes paymentFraud-stroke-29{0%{stroke-dashoffset:261.39813232421875px;stroke-dasharray:261.39813232421875px}to{stroke-dashoffset:0;stroke-dasharray:261.39813232421875px}}@keyframes paymentFraud-fill-29{0%{fill:transparent}to{fill:#181916}}@keyframes paymentFraud-stroke-30{0%{stroke-dashoffset:324.4917297363281px;stroke-dasharray:324.4917297363281px}to{stroke-dashoffset:0;stroke-dasharray:324.4917297363281px}}@keyframes paymentFraud-fill-30{0%{fill:transparent}to{fill:#fff}}@keyframes paymentFraud-stroke-31{0%{stroke-dashoffset:324.4917297363281px;stroke-dasharray:324.4917297363281px}to{stroke-dashoffset:0;stroke-dasharray:324.4917297363281px}}@keyframes paymentFraud-stroke-32{0%{stroke-dashoffset:362.9281005859375px;stroke-dasharray:362.9281005859375px}to{stroke-dashoffset:0;stroke-dasharray:362.9281005859375px}}@keyframes paymentFraud-fill-32{0%{fill:transparent}to{fill:#484946}}@keyframes paymentFraud-stroke-33{0%{stroke-dashoffset:52.699310302734375px;stroke-dasharray:52.699310302734375px}to{stroke-dashoffset:0;stroke-dasharray:52.699310302734375px}}@keyframes paymentFraud-fill-33{0%{fill:transparent}to{fill:#fff}}@keyframes paymentFraud-stroke-34{0%{stroke-dashoffset:52.699310302734375px;stroke-dasharray:52.699310302734375px}to{stroke-dashoffset:0;stroke-dasharray:52.699310302734375px}}@keyframes paymentFraud-stroke-35{0%{stroke-dashoffset:32.73959732055664px;stroke-dasharray:32.73959732055664px}to{stroke-dashoffset:0;stroke-dasharray:32.73959732055664px}}@keyframes paymentFraud-fill-35{0%{fill:transparent}to{fill:#ed0006}}@keyframes paymentFraud-stroke-36{0%{stroke-dashoffset:23.17894744873047px;stroke-dasharray:23.17894744873047px}to{stroke-dashoffset:0;stroke-dasharray:23.17894744873047px}}@keyframes paymentFraud-fill-36{0%{fill:transparent}to{fill:#f9a000}}@keyframes paymentFraud-stroke-37{0%{stroke-dashoffset:13.618465423583984px;stroke-dasharray:13.618465423583984px}to{stroke-dashoffset:0;stroke-dasharray:13.618465423583984px}}@keyframes paymentFraud-fill-37{0%{fill:transparent}to{fill:#ff5e00}}@keyframes paymentFraud-stroke-38{0%{stroke-dashoffset:330.6147155761719px;stroke-dasharray:330.6147155761719px}to{stroke-dashoffset:0;stroke-dasharray:330.6147155761719px}}@keyframes paymentFraud-stroke-39{0%{stroke-dashoffset:80.68375396728516px;stroke-dasharray:80.68375396728516px}to{stroke-dashoffset:0;stroke-dasharray:80.68375396728516px}}@keyframes paymentFraud-fill-39{0%{fill:transparent}to{fill:#181916}}@keyframes paymentFraud-stroke-40{0%{stroke-dashoffset:152.49172973632812px;stroke-dasharray:152.49172973632812px}to{stroke-dashoffset:0;stroke-dasharray:152.49172973632812px}}@keyframes paymentFraud-fill-40{0%{fill:transparent}to{fill:#fafafa}}@keyframes paymentFraud-stroke-41{0%{stroke-dashoffset:152.49172973632812px;stroke-dasharray:152.49172973632812px}to{stroke-dashoffset:0;stroke-dasharray:152.49172973632812px}}@keyframes paymentFraud-stroke-42{0%{stroke-dashoffset:25.572694778442383px;stroke-dasharray:25.572694778442383px}to{stroke-dashoffset:0;stroke-dasharray:25.572694778442383px}}@keyframes paymentFraud-fill-42{0%{fill:transparent}to{fill:#484946}}@keyframes paymentFraud-stroke-43{0%{stroke-dashoffset:243.8251190185547px;stroke-dasharray:243.8251190185547px}to{stroke-dashoffset:0;stroke-dasharray:243.8251190185547px}}@keyframes paymentFraud-stroke-44{0%{stroke-dashoffset:140.8216552734375px;stroke-dasharray:140.8216552734375px}to{stroke-dashoffset:0;stroke-dasharray:140.8216552734375px}}@keyframes paymentFraud-fill-44{0%{fill:transparent}to{fill:#181916}}@keyframes paymentFraud-stroke-45{0%{stroke-dashoffset:243.8251190185547px;stroke-dasharray:243.8251190185547px}to{stroke-dashoffset:0;stroke-dasharray:243.8251190185547px}}@keyframes paymentFraud-fill-45{0%{fill:transparent}to{fill:#f0f0ed}}@keyframes paymentFraud-stroke-46{0%{stroke-dashoffset:243.8251190185547px;stroke-dasharray:243.8251190185547px}to{stroke-dashoffset:0;stroke-dasharray:243.8251190185547px}}@keyframes paymentFraud-stroke-47{0%{stroke-dashoffset:413.317626953125px;stroke-dasharray:413.317626953125px}to{stroke-dashoffset:0;stroke-dasharray:413.317626953125px}}@keyframes paymentFraud-fill-47{0%{fill:transparent}to{fill:#181916}}.paymentFraudAnimation-29{font-family:"Inter","sans-serif";font-weight:500;animation:paymentFraud-stroke-29 .6s cubic-bezier(.47,0,.745,.715) .7000000000000001s both,paymentFraud-fill-29 .4s cubic-bezier(.47,0,.745,.715) .9800000000000001s both}</style><defs><filter id="filter0_dd_1959_17960" width="260.5" height="542" x="0.5" y="0.2" color-interpolation-filters="sRGB" filterUnits="userSpaceOnUse"><feFlood flood-opacity="0" result="BackgroundImageFix"></feFlood><feColorMatrix in="SourceAlpha" result="hardAlpha" values="0 0 0 0 0 0 0 0 0 0 0 0 0 0 0 0 0 0 127 0"></feColorMatrix><feMorphology in="SourceAlpha" radius="2" result="effect1_dropShadow_1959_17960"></feMorphology><feOffset dy="2"></feOffset><feGaussianBlur stdDeviation="2"></feGaussianBlur><feComposite in2="hardAlpha" operator="out"></feComposite><feColorMatrix values="0 0 0 0 0.0941176 0 0 0 0 0.0980392 0 0 0 0 0.0862745 0 0 0 0.1 0"></feColorMatrix><feBlend in2="BackgroundImageFix" result="effect1_dropShadow_1959_17960"></feBlend><feColorMatrix in="SourceAlpha" result="hardAlpha" values="0 0 0 0 0 0 0 0 0 0 0 0 0 0 0 0 0 0 127 0"></feColorMatrix><feMorphology in="SourceAlpha" radius="1" result="effect2_dropShadow_1959_17960"></feMorphology><feOffset dy="4"></feOffset><feGaussianBlur stdDeviation="3"></feGaussianBlur><feComposite in2="hardAlpha" operator="out"></feComposite><feColorMatrix values="0 0 0 0 0.0941176 0 0 0 0 0.0980392 0 0 0 0 0.0862745 0 0 0 0.1 0"></feColorMatrix><feBlend in2="effect1_dropShadow_1959_17960" result="effect2_dropShadow_1959_17960"></feBlend><feBlend in="SourceGraphic" in2="effect2_dropShadow_1959_17960" result="shape"></feBlend></filter></defs><g filter="url(#filter0_dd_1959_17960)"><path fill="#fff" stroke="#E4E5E1" d="M42 2.7h177.6c19.8 0 35.9 16.3 35.9 36.5v458.1c0 20.1-16.1 36.4-36 36.4H42C22.1 533.7 6 517.4 6 497.3V39.2A36.2 36.2 0 0 1 42 2.7Z" shape-rendering="crispEdges"></path></g><path fill="#fbfbfb" d="M45.3 13.5a28.3 28.3 0 0 0-27.7 28.7v449.5a28.3 28.3 0 0 0 27.7 28.8h170.8a28.3 28.3 0 0 0 27.8-28.8V42.2A28.3 28.3 0 0 0 216 13.5h-22.3c-2.4 0-2.4 2.8-2.4 5.2 0 7.6-4.8 13.2-12.2 13.2h-97c-7.3 0-12.1-5.6-12.1-13.2 0-2.4 0-5.2-2.4-5.2H45.3Z" class="paymentFraudAnimation-2"></path><path stroke="#E4E5E1" stroke-opacity="0.2" d="M18 42.2A27.8 27.8 0 0 1 45.4 14h22.4c.5 0 .8.1 1 .3.3.2.5.6.6 1 .3 1 .3 2.2.3 3.4 0 3.9 1.2 7.3 3.4 9.8a12 12 0 0 0 9.2 3.9h97c3.9 0 7-1.5 9.2-4 2.3-2.4 3.5-5.8 3.5-9.7 0-1.2 0-2.5.3-3.4l.5-1c.3-.2.6-.3 1-.3h22.4c15 0 27.3 12.6 27.3 28.2v449.5A27.8 27.8 0 0 1 216 520H45.3c-15 0-27.2-12.7-27.2-28.3V42.2Z" class="paymentFraudAnimation-3"></path><path fill="#000" fill-opacity="0.1" d="M116.7 19.3c0-.7.5-1.3 1.3-1.3h26c.6 0 1.2.6 1.2 1.3 0 .7-.6 1.3-1.3 1.3h-26c-.7 0-1.2-.6-1.2-1.3Z" class="paymentFraudAnimation-4"></path><rect width="132.5" height="79.7" x="64.2" y="45" fill="#FAFAF8" rx="5" shape-rendering="crispEdges" style="animation: 0.6s cubic-bezier(0.47, 0, 0.745, 0.715) 0.1s 1 normal both running paymentFraud-stroke-5, 0.4s cubic-bezier(0.47, 0, 0.745, 0.715) 0.14s 1 normal both running paymentFraud-fill-5;"></rect><rect width="132.5" height="79.7" x="64.2" y="45" fill="url(#paint1_linear_1959_18501)" fill-opacity="0" rx="5" shape-rendering="crispEdges" style="animation: 0.6s cubic-bezier(0.47, 0, 0.745, 0.715) 0.125s 1 normal both running paymentFraud-stroke-6, 0.4s cubic-bezier(0.47, 0, 0.745, 0.715) 0.175s 1 normal both running paymentFraud-fill-6;"></rect><rect width="132.5" height="79.7" x="64.2" y="45" stroke="#F35B22" stroke-linecap="round" rx="5" shape-rendering="crispEdges" style="animation: 0.6s cubic-bezier(0.47, 0, 0.745, 0.715) 0.15s 1 normal both running paymentFraud-stroke-7, 0.4s cubic-bezier(0.47, 0, 0.745, 0.715) 0.21s 1 normal both running paymentFraud-fill-7;"></rect><rect width="132.5" height="79.7" x="64.2" y="45" fill="#FAFAF8" rx="5" style="animation: 0.6s cubic-bezier(0.47, 0, 0.745, 0.715) 0.175s 1 normal both running paymentFraud-stroke-8, 0.4s cubic-bezier(0.47, 0, 0.745, 0.715) 0.245s 1 normal both running paymentFraud-fill-8;"></rect><rect width="132.5" height="79.7" x="64.2" y="45" fill="url(#paint2_linear_1959_18501)" fill-opacity="0" rx="5" style="animation: 0.6s cubic-bezier(0.47, 0, 0.745, 0.715) 0.2s 1 normal both running paymentFraud-stroke-9, 0.4s cubic-bezier(0.47, 0, 0.745, 0.715) 0.28s 1 normal both running paymentFraud-fill-9;"></rect><rect width="132.5" height="79.7" x="64.2" y="45" stroke="#F35B22" stroke-linecap="round" rx="5" style="animation: 0.6s cubic-bezier(0.47, 0, 0.745, 0.715) 0.225s 1 normal both running paymentFraud-stroke-10, 0.4s cubic-bezier(0.47, 0, 0.745, 0.715) 0.315s 1 normal both running paymentFraud-fill-10;"></rect><text x="72" y="62" fill="#F35B22" font-size="8" style="font-weight: 600; animation: 0.6s cubic-bezier(0.47, 0, 0.745, 0.715) 0.25s 1 normal both running paymentFraud-stroke-11, 0.4s cubic-bezier(0.47, 0, 0.745, 0.715) 0.35s 1 normal both running paymentFraud-fill-11;">Acme Co</text><rect width="19" height="13.4" x="171.2" y="104.5" fill="#fff" fill-opacity="0.1" rx="1.7" style="animation: 0.6s cubic-bezier(0.47, 0, 0.745, 0.715) 0.275s 1 normal both running paymentFraud-stroke-12, 0.4s cubic-bezier(0.47, 0, 0.745, 0.715) 0.385s 1 normal both running paymentFraud-fill-12;"></rect><path fill="#D14200" d="m180.8 114 .3-.4-.3-.3-.4.3.4.4Zm0-5.8-.4.4.4.3.3-.3-.3-.4Zm-.4 5.4c-.5.5-1.3.7-2 .7v1c1 0 2-.3 2.7-1l-.7-.7Zm-2 .7a3.3 3.3 0 0 1-3.4-3.2h-1c0 2.4 2 4.2 4.3 4.2v-1Zm-3.4-3.2c0-1.8 1.5-3.2 3.3-3.2v-1a4.3 4.3 0 0 0-4.3 4.2h1Zm3.3-3.2c.8 0 1.6.2 2.1.7l.7-.7c-.8-.7-1.7-1-2.8-1v1Zm2.8.7c.6-.5 1.3-.7 2.1-.7v-1c-1 0-2 .3-2.8 1l.7.7Zm2.1-.7c1.9 0 3.3 1.4 3.3 3.2h1c0-2.4-2-4.2-4.3-4.2v1Zm3.3 3.2c0 1.8-1.4 3.2-3.3 3.2v1c2.4 0 4.3-1.8 4.3-4.2h-1Zm-3.3 3.2c-.8 0-1.5-.2-2.1-.7l-.7.7c.8.7 1.8 1 2.8 1v-1Z" opacity="0.5" style="animation: 0.6s cubic-bezier(0.47, 0, 0.745, 0.715) 0.3s 1 normal both running paymentFraud-stroke-13, 0.4s cubic-bezier(0.47, 0, 0.745, 0.715) 0.42s 1 normal both running paymentFraud-fill-13;"></path><path fill="#D14200" d="m180.8 114-.4-.4-.4.4.4.3.4-.3Zm0-5.8-.4-.3-.4.3.4.4.4-.4Zm.8 2.9c0 1-.4 1.9-1.2 2.5l.7.7c1-.7 1.5-2 1.5-3.2h-1Zm-1.2-2.5c.8.6 1.2 1.5 1.2 2.5h1c0-1.3-.6-2.5-1.5-3.2l-.7.7Zm.7 0c.6-.5 1.3-.7 2.1-.7v-1c-1 0-2 .3-2.8 1l.7.7Zm2.1-.7c1.9 0 3.3 1.4 3.3 3.2h1c0-2.4-2-4.2-4.3-4.2v1Zm3.3 3.2c0 1.8-1.4 3.2-3.3 3.2v1c2.4 0 4.3-1.8 4.3-4.2h-1Zm-3.3 3.2c-.8 0-1.5-.2-2.1-.7l-.7.7c.8.7 1.8 1 2.8 1v-1Z" opacity="0.5" style="animation: 0.6s cubic-bezier(0.47, 0, 0.745, 0.715) 0.325s 1 normal both running paymentFraud-stroke-14, 0.4s cubic-bezier(0.47, 0, 0.745, 0.715) 0.455s 1 normal both running paymentFraud-fill-14;"></path><path fill="#D14200" d="m180.8 114-.4.3.4.3.3-.3-.3-.3Zm0-5.8.3-.3-.3-.3-.4.3.4.3Zm.8 2.9c0 1-.4 1.9-1.2 2.5l.7.7c1-.7 1.5-1.9 1.5-3.2h-1Zm-1.2-2.5c.8.6 1.2 1.5 1.2 2.5h1c0-1.3-.6-2.5-1.5-3.2l-.7.7Zm-.5 2.5c0-1 .5-1.9 1.2-2.5l-.7-.7c-.9.7-1.5 1.9-1.5 3.2h1Zm1.2 2.5a3.2 3.2 0 0 1-1.2-2.5h-1c0 1.3.6 2.5 1.5 3.2l.7-.7Z" style="animation: 0.6s cubic-bezier(0.47, 0, 0.745, 0.715) 0.35s 1 normal both running paymentFraud-stroke-15, 0.4s cubic-bezier(0.47, 0, 0.745, 0.715) 0.49s 1 normal both running paymentFraud-fill-15;"></path><text x="71" y="115.4" fill="#F35B22" font-size="6" style="font-weight: 600; letter-spacing: 1.006px; animation: 0.6s cubic-bezier(0.47, 0, 0.745, 0.715) 0.375s 1 normal both running paymentFraud-stroke-16, 0.4s cubic-bezier(0.47, 0, 0.745, 0.715) 0.525s 1 normal both running paymentFraud-fill-16;">1234 1234 1234
            1234</text><text x="71" y="103" fill="#F35B22" font-size="4" style="font-weight: 600; text-transform: uppercase; animation: 0.6s cubic-bezier(0.47, 0, 0.745, 0.715) 0.4s 1 normal both running paymentFraud-stroke-17, 0.4s cubic-bezier(0.47, 0, 0.745, 0.715) 0.56s 1 normal both running paymentFraud-fill-17;">John doe</text><text x="141" y="103" fill="#F35B22" font-size="4" style="font-weight: 600; animation: 0.6s cubic-bezier(0.47, 0, 0.745, 0.715) 0.425s 1 normal both running paymentFraud-stroke-18, 0.4s cubic-bezier(0.47, 0, 0.745, 0.715) 0.595s 1 normal both running paymentFraud-fill-18;">06/28</text><path stroke="#F35B22" stroke-linecap="round" d="M186.3 54a9 9 0 0 1 0 9m-2-8a7 7 0 0 1 0 7m-1.8-6.2a5.2 5.2 0 0 1 0 5.1m-2-4.1a3 3 0 0 1 0 3.2" style="animation: 0.6s cubic-bezier(0.47, 0, 0.745, 0.715) 0.45s 1 normal both running paymentFraud-stroke-19, 0.4s cubic-bezier(0.47, 0, 0.745, 0.715) 0.63s 1 normal both running paymentFraud-fill-19;"></path><text x="29" y="159" fill="#141415" font-size="11" style="font-weight: 600; animation: 0.6s cubic-bezier(0.47, 0, 0.745, 0.715) 0.475s 1 normal both running paymentFraud-stroke-20, 0.4s cubic-bezier(0.47, 0, 0.745, 0.715) 0.665s 1 normal both running paymentFraud-fill-20;">Payment details</text><text x="29" y="180" fill="#181916" font-size="8" style="font-weight: 500; animation: 0.6s cubic-bezier(0.47, 0, 0.745, 0.715) 0.5s 1 normal both running paymentFraud-stroke-21, 0.4s cubic-bezier(0.47, 0, 0.745, 0.715) 0.7s 1 normal both running paymentFraud-fill-21;">Full Name</text><rect width="140" height="25" x="29.5" y="186.7" fill="#FAFAFA" rx="4" style="animation: 0.6s cubic-bezier(0.47, 0, 0.745, 0.715) 0.525s 1 normal both running paymentFraud-stroke-22, 0.4s cubic-bezier(0.47, 0, 0.745, 0.715) 0.735s 1 normal both running paymentFraud-fill-22;"></rect><rect width="140" height="25" x="29.5" y="186.7" stroke="#E4E5E1" rx="4" style="animation: 0.6s cubic-bezier(0.47, 0, 0.745, 0.715) 0.55s 1 normal both running paymentFraud-stroke-23, 0.4s cubic-bezier(0.47, 0, 0.745, 0.715) 0.77s 1 normal both running paymentFraud-fill-23;"></rect><text x="37" y="202" fill="#484946" font-size="8" style="font-weight: 400; animation: 0.6s cubic-bezier(0.47, 0, 0.745, 0.715) 0.575s 1 normal both running paymentFraud-stroke-24, 0.4s cubic-bezier(0.47, 0, 0.745, 0.715) 0.805s 1 normal both running paymentFraud-fill-24;">John Doe</text><text x="178" y="180" fill="#181916" font-size="8" style="font-weight: 500; animation: 0.6s cubic-bezier(0.47, 0, 0.745, 0.715) 0.6s 1 normal both running paymentFraud-stroke-25, 0.4s cubic-bezier(0.47, 0, 0.745, 0.715) 0.84s 1 normal both running paymentFraud-fill-25;">Expiry</text><rect width="54" height="25" x="177.5" y="186.7" fill="#FAFAFA" rx="4" style="animation: 0.6s cubic-bezier(0.47, 0, 0.745, 0.715) 0.625s 1 normal both running paymentFraud-stroke-26, 0.4s cubic-bezier(0.47, 0, 0.745, 0.715) 0.875s 1 normal both running paymentFraud-fill-26;"></rect><rect width="54" height="25" x="177.5" y="186.7" stroke="#E4E5E1" rx="4" style="animation: 0.6s cubic-bezier(0.47, 0, 0.745, 0.715) 0.65s 1 normal both running paymentFraud-stroke-27, 0.4s cubic-bezier(0.47, 0, 0.745, 0.715) 0.91s 1 normal both running paymentFraud-fill-27;"></rect><text x="184" y="202" fill="#484946" font-size="8" style="font-weight: 400; animation: 0.6s cubic-bezier(0.47, 0, 0.745, 0.715) 0.675s 1 normal both running paymentFraud-stroke-28, 0.4s cubic-bezier(0.47, 0, 0.745, 0.715) 0.945s 1 normal both running paymentFraud-fill-28;">06 / 2028</text><text x="29" y="228" fill="#181916" class="paymentFraudAnimation-29" font-size="8">Card Number</text><g clip-path="url(#clip1_1959_18501)"><rect width="140" height="25" x="29.5" y="234.7" fill="#fff" rx="4" style="animation: 0.6s cubic-bezier(0.47, 0, 0.745, 0.715) 0.725s 1 normal both running paymentFraud-stroke-30, 0.4s cubic-bezier(0.47, 0, 0.745, 0.715) 1.015s 1 normal both running paymentFraud-fill-30;"></rect><rect width="140" height="25" x="29.5" y="234.7" stroke="#F35B22" stroke-width="0.5" rx="4" style="animation: 0.6s cubic-bezier(0.47, 0, 0.745, 0.715) 0.75s 1 normal both running paymentFraud-stroke-31, 0.4s cubic-bezier(0.47, 0, 0.745, 0.715) 1.05s 1 normal both running paymentFraud-fill-31;"></rect><text x="36" y="250" fill="#484946" font-size="7" style="animation: 0.6s cubic-bezier(0.47, 0, 0.745, 0.715) 0.775s 1 normal both running paymentFraud-stroke-32, 0.4s cubic-bezier(0.47, 0, 0.745, 0.715) 1.085s 1 normal both running paymentFraud-fill-32;">1234 1234 1234 1234</text><rect width="16.2" height="11.2" x="146.3" y="241.6" fill="#fff" rx="1.7" style="animation: 0.6s cubic-bezier(0.47, 0, 0.745, 0.715) 0.8s 1 normal both running paymentFraud-stroke-33, 0.4s cubic-bezier(0.47, 0, 0.745, 0.715) 1.12s 1 normal both running paymentFraud-fill-33;"></rect><rect width="16.2" height="11.2" x="146.3" y="241.6" stroke="#F2F4F7" stroke-width="0.8" rx="1.7" style="animation: 0.6s cubic-bezier(0.47, 0, 0.745, 0.715) 0.825s 1 normal both running paymentFraud-stroke-34, 0.4s cubic-bezier(0.47, 0, 0.745, 0.715) 1.155s 1 normal both running paymentFraud-fill-34;"></rect><path fill="#ED0006" fill-rule="evenodd" d="M154.4 249.6a3.4 3.4 0 0 1-5.6-2.6c0-1.8 1.5-3.3 3.4-3.3.9 0 1.6.3 2.2.8a3.4 3.4 0 0 1 5.6 2.5c0 1.9-1.5 3.4-3.4 3.4-.8 0-1.6-.3-2.2-.8Z" clip-rule="evenodd" style="animation: 0.6s cubic-bezier(0.47, 0, 0.745, 0.715) 0.85s 1 normal both running paymentFraud-stroke-35, 0.4s cubic-bezier(0.47, 0, 0.745, 0.715) 1.19s 1 normal both running paymentFraud-fill-35;"></path><path fill="#F9A000" fill-rule="evenodd" d="M154.4 249.6a3.3 3.3 0 0 0 0-5.1 3.4 3.4 0 0 1 5.6 2.5 3.4 3.4 0 0 1-5.6 2.6Z" clip-rule="evenodd" style="animation: 0.6s cubic-bezier(0.47, 0, 0.745, 0.715) 0.875s 1 normal both running paymentFraud-stroke-36, 0.4s cubic-bezier(0.47, 0, 0.745, 0.715) 1.225s 1 normal both running paymentFraud-fill-36;"></path><path fill="#FF5E00" fill-rule="evenodd" d="M154.4 249.6a3.3 3.3 0 0 0 0-5.1 3.3 3.3 0 0 0 0 5Z" clip-rule="evenodd" style="animation: 0.6s cubic-bezier(0.47, 0, 0.745, 0.715) 0.9s 1 normal both running paymentFraud-stroke-37, 0.4s cubic-bezier(0.47, 0, 0.745, 0.715) 1.26s 1 normal both running paymentFraud-fill-37;"></path></g><rect width="142" height="27" x="28.5" y="233.7" stroke="#FFDDC8" stroke-width="2" rx="5" style="animation: 0.6s cubic-bezier(0.47, 0, 0.745, 0.715) 0.925s 1 normal both running paymentFraud-stroke-38, 0.4s cubic-bezier(0.47, 0, 0.745, 0.715) 1.295s 1 normal both running paymentFraud-fill-38;"></rect><text x="29" y="228" fill="#181916" class="paymentFraudAnimation-29" font-size="8">Card Number</text><text x="179" y="228" fill="#181916" font-size="8" style="font-weight: 500; animation: 0.6s cubic-bezier(0.47, 0, 0.745, 0.715) 0.95s 1 normal both running paymentFraud-stroke-39, 0.4s cubic-bezier(0.47, 0, 0.745, 0.715) 1.33s 1 normal both running paymentFraud-fill-39;">CVV</text><rect width="54" height="25" x="177.5" y="234.7" fill="#FAFAFA" rx="4" style="animation: 0.6s cubic-bezier(0.47, 0, 0.745, 0.715) 0.975s 1 normal both running paymentFraud-stroke-40, 0.4s cubic-bezier(0.47, 0, 0.745, 0.715) 1.365s 1 normal both running paymentFraud-fill-40;"></rect><rect width="54" height="25" x="177.5" y="234.7" stroke="#E4E5E1" rx="4" style="animation: 0.6s cubic-bezier(0.47, 0, 0.745, 0.715) 1s 1 normal both running paymentFraud-stroke-41, 0.4s cubic-bezier(0.47, 0, 0.745, 0.715) 1.4s 1 normal both running paymentFraud-fill-41;"></rect><path fill="#484946" d="M187.7 248.6c-.2 0-.4 0-.6-.2-.2 0-.3-.2-.4-.4l-.2-.7c0-.2 0-.4.2-.6a1.3 1.3 0 0 1 1-.6c.3 0 .5 0 .7.2a1.3 1.3 0 0 1 .6 1c0 .3 0 .5-.2.7 0 .2-.2.3-.4.4l-.7.2Zm4.5 0c-.2 0-.4 0-.6-.2-.2 0-.3-.2-.4-.4l-.2-.7c0-.2 0-.4.2-.6a1.3 1.3 0 0 1 1-.6c.3 0 .5 0 .7.2a1.3 1.3 0 0 1 .6 1c0 .3 0 .5-.2.7 0 .2-.2.3-.4.4l-.7.2Zm4.5 0c-.2 0-.4 0-.6-.2-.2 0-.3-.2-.4-.4l-.2-.7c0-.2 0-.4.2-.6a1.3 1.3 0 0 1 1-.6c.3 0 .5 0 .7.2a1.3 1.3 0 0 1 .6 1c0 .3 0 .5-.2.7 0 .2-.2.3-.4.4l-.7.2Z" style="animation: 0.6s cubic-bezier(0.47, 0, 0.745, 0.715) 1.025s 1 normal both running paymentFraud-stroke-42, 0.4s cubic-bezier(0.47, 0, 0.745, 0.715) 1.435s 1 normal both running paymentFraud-fill-42;"></path><rect width="97.7" height="27" x="29.5" y="283.7" stroke="#E4E5E1" rx="4" style="animation: 0.6s cubic-bezier(0.47, 0, 0.745, 0.715) 1.05s 1 normal both running paymentFraud-stroke-43, 0.4s cubic-bezier(0.47, 0, 0.745, 0.715) 1.47s 1 normal both running paymentFraud-fill-43;"></rect><text x="66" y="300" fill="#181916" font-size="8" style="font-weight: 600; animation: 0.6s cubic-bezier(0.47, 0, 0.745, 0.715) 1.075s 1 normal both running paymentFraud-stroke-44, 0.4s cubic-bezier(0.47, 0, 0.745, 0.715) 1.505s 1 normal both running paymentFraud-fill-44;">Cancel</text><rect width="97.7" height="27" x="133.8" y="283.7" fill="#F0F0ED" rx="4" style="animation: 0.6s cubic-bezier(0.47, 0, 0.745, 0.715) 1.1s 1 normal both running paymentFraud-stroke-45, 0.4s cubic-bezier(0.47, 0, 0.745, 0.715) 1.54s 1 normal both running paymentFraud-fill-45;"></rect><rect width="97.7" height="27" x="133.8" y="283.7" stroke="#E4E5E1" rx="4" style="animation: 0.6s cubic-bezier(0.47, 0, 0.745, 0.715) 1.125s 1 normal both running paymentFraud-stroke-46, 0.4s cubic-bezier(0.47, 0, 0.745, 0.715) 1.575s 1 normal both running paymentFraud-fill-46;"></rect><text x="142" y="300" fill="#181916" font-size="8" style="font-weight: 600; animation: 0.6s cubic-bezier(0.47, 0, 0.745, 0.715) 1.15s 1 normal both running paymentFraud-stroke-47, 0.4s cubic-bezier(0.47, 0, 0.745, 0.715) 1.61s 1 normal both running paymentFraud-fill-47;">Proceed to Checkout</text></svg>